<?xml version="1.0" encoding="UTF-8" standalone="no"?>
<svg xmlns="http://www.w3.org/2000/svg" version="1.2" baseProfile="tiny" viewBox="0.00 0.00 512.00 512.00">
<g stroke-width="2.00" fill="none" stroke-linecap="butt">
<path stroke="#fb5662" vector-effect="non-scaling-stroke" d="
  M 457.31 298.66
  Q 465.00 291.54 470.87 283.61
  Q 486.26 262.80 484.10 236.69
  C 482.92 222.48 478.59 208.92 473.11 195.72
  Q 461.01 166.57 443.15 140.03
  Q 409.10 89.41 362.15 51.09
  Q 331.87 26.38 298.48 10.78
  Q 288.17 5.97 272.27 1.33"
/>
<path stroke="#fb5662" vector-effect="non-scaling-stroke" d="
  M 453.50 294.33
  L 443.13 282.89"
/>
<path stroke="#fb5561" vector-effect="non-scaling-stroke" d="
  M 148.00 222.52
  L 129.94 222.50"
/>
<path stroke="#fa3a48" vector-effect="non-scaling-stroke" d="
  M 129.94 222.50
  Q 130.10 196.44 129.97 182.25
  Q 129.86 168.75 117.06 161.21"
/>
<path stroke="#fb4755" vector-effect="non-scaling-stroke" d="
  M 301.27 222.20
  L 283.04 222.14"
/>
<path stroke="#fa3a48" vector-effect="non-scaling-stroke" d="
  M 283.04 222.14
  Q 283.22 202.57 283.09 183.50
  C 283.03 174.70 280.21 168.25 273.24 163.51
  Q 271.61 162.40 270.02 161.16"
/>
<path stroke="#fb656d" vector-effect="non-scaling-stroke" d="
  M 129.94 222.50
  L 103.17 222.50"
/>
<path stroke="#fb5662" vector-effect="non-scaling-stroke" d="
  M 283.04 222.14
  Q 275.94 221.61 269.00 222.53"
/>
<path stroke="#fb656d" vector-effect="non-scaling-stroke" d="
  M 269.00 222.53
  L 256.25 222.52"
/>
<path stroke="#fb5662" vector-effect="non-scaling-stroke" d="
  M 404.75 410.73
  L 404.75 426.21"
/>
<path stroke="#fc727b" vector-effect="non-scaling-stroke" d="
  M 313.62 512.00
  Q 313.25 510.99 314.26 510.74
  Q 326.32 507.87 334.41 500.65
  Q 350.29 486.47 350.24 465.07
  Q 350.13 419.26 350.31 375.90
  C 350.34 368.11 348.79 362.06 343.31 356.73
  Q 317.99 332.05 293.63 308.19
  Q 284.84 299.58 281.39 287.10
  Q 279.57 280.49 279.68 268.67
  Q 279.83 254.16 279.82 238.91
  Q 279.82 233.85 278.30 230.71
  Q 275.71 225.37 269.00 222.53"
/>
<path stroke="#e2a1a8" vector-effect="non-scaling-stroke" d="
  M 127.94 431.69
  Q 128.31 432.28 128.68 432.87
  A 87.28 87.26 -13.1 0 0 192.64 472.75
  A 87.41 87.01 -44.9 0 0 211.99 472.75
  A 87.26 87.25 -75.7 0 0 273.83 436.04
  A 87.31 87.26 66.5 0 0 288.73 398.25
  A 87.33 87.29 28.8 0 0 268.78 329.45
  A 87.30 87.25 85.6 0 0 248.20 311.77"
/>
<path stroke="#eeafb4" vector-effect="non-scaling-stroke" d="
  M 248.20 311.77
  A 87.28 87.27 -32.5 0 0 192.25 299.32
  A 87.30 87.27 -71.1 0 0 139.94 324.96
  A 87.30 87.24 72.9 0 0 116.76 368.75
  A 87.25 87.25 0.0 0 0 127.94 431.69"
/>
<path stroke="#d4cfd6" vector-effect="non-scaling-stroke" d="
  M 248.20 311.77
  Q 259.80 332.60 260.20 355.22"
/>
<path stroke="#b8afb9" vector-effect="non-scaling-stroke" d="
  M 260.20 355.22
  Q 255.21 351.80 250.74 353.25
  C 242.28 356.00 241.20 367.29 249.05 371.45
  Q 253.80 373.97 259.07 370.86"
/>
<path stroke="#d4cfd6" vector-effect="non-scaling-stroke" d="
  M 259.07 370.86
  L 256.00 384.61"
/>
<path stroke="#b8afb9" vector-effect="non-scaling-stroke" d="
  M 256.00 384.61
  Q 250.51 386.17 248.78 391.25
  Q 247.44 395.15 249.49 399.15"
/>
<path stroke="#d4cfd6" vector-effect="non-scaling-stroke" d="
  M 249.49 399.15
  Q 246.01 405.00 241.99 410.21
  Q 232.64 422.31 219.74 430.50"
/>
<path stroke="#b8afb9" vector-effect="non-scaling-stroke" d="
  M 219.74 430.50
  Q 212.21 429.85 208.82 436.65"
/>
<path stroke="#d4cfd6" vector-effect="non-scaling-stroke" d="
  M 208.82 436.65
  L 196.21 441.05"
/>
<path stroke="#b8afb9" vector-effect="non-scaling-stroke" d="
  M 196.21 441.05
  C 196.29 425.15 172.44 428.19 177.16 443.98"
/>
<path stroke="#d4cfd6" vector-effect="non-scaling-stroke" d="
  M 177.16 443.98
  Q 151.24 444.90 127.94 431.69"
/>
<path stroke="#aca1ac" vector-effect="non-scaling-stroke" d="
  M 177.16 443.98
  Q 179.77 449.45 184.75 449.97
  Q 194.29 450.95 196.21 441.05"
/>
<path stroke="#aca1ac" vector-effect="non-scaling-stroke" d="
  M 208.82 436.65
  Q 207.15 443.42 211.34 447.33
  C 214.72 450.48 219.96 451.04 223.63 448.32
  C 231.04 442.82 228.46 432.63 219.74 430.50"
/>
<path stroke="#aca1ac" vector-effect="non-scaling-stroke" d="
  M 249.49 399.15
  C 253.55 405.43 261.90 405.93 266.15 399.97
  C 268.78 396.29 268.47 391.23 265.45 387.79
  Q 262.10 383.97 256.00 384.61"
/>
<path stroke="#aca1ac" vector-effect="non-scaling-stroke" d="
  M 259.07 370.86
  Q 264.46 366.92 263.15 360.58
  Q 262.56 357.71 260.20 355.22"
/>
<path stroke="#b8afb9" vector-effect="non-scaling-stroke" d="
  M 211.96 329.79
  A 9.82 9.82 0.0 0 0 202.14 319.97
  A 9.82 9.82 0.0 0 0 192.32 329.79
  A 9.82 9.82 0.0 0 0 202.14 339.61
  A 9.82 9.82 0.0 0 0 211.96 329.79"
/>
<path stroke="#b8afb9" vector-effect="non-scaling-stroke" d="
  M 181.47 338.69
  A 9.82 9.82 0.0 0 0 171.65 328.87
  A 9.82 9.82 0.0 0 0 161.83 338.69
  A 9.82 9.82 0.0 0 0 171.65 348.51
  A 9.82 9.82 0.0 0 0 181.47 338.69"
/>
<path stroke="#b8afb9" vector-effect="non-scaling-stroke" d="
  M 242.49 338.69
  A 9.82 9.82 0.0 0 0 232.67 328.87
  A 9.82 9.82 0.0 0 0 222.85 338.69
  A 9.82 9.82 0.0 0 0 232.67 348.51
  A 9.82 9.82 0.0 0 0 242.49 338.69"
/>
<path stroke="#b8afb9" vector-effect="non-scaling-stroke" d="
  M 160.66 362.68
  A 9.82 9.82 0.0 0 0 150.84 352.86
  A 9.82 9.82 0.0 0 0 141.02 362.68
  A 9.82 9.82 0.0 0 0 150.84 372.50
  A 9.82 9.82 0.0 0 0 160.66 362.68"
/>
<path stroke="#ed848f" vector-effect="non-scaling-stroke" d="
  M 176.63 394.49
  A 27.03 27.02 -13.7 0 0 206.49 412.66
  A 27.01 27.00 16.2 0 0 222.57 403.81
  A 26.98 26.97 65.7 0 0 229.30 386.01
  A 27.02 27.02 0.0 0 0 211.40 360.53"
/>
<path stroke="#ed939b" vector-effect="non-scaling-stroke" d="
  M 211.40 360.53
  A 27.05 27.03 -60.3 0 0 181.45 368.74
  A 27.04 27.04 0.0 0 0 176.63 394.49"
/>
<path stroke="#fa3a48" vector-effect="non-scaling-stroke" d="
  M 211.40 360.53
  Q 213.15 371.13 210.45 378.22
  Q 204.58 393.64 187.26 395.76
  Q 183.16 396.26 176.63 394.49"
/>
<path stroke="#b8afb9" vector-effect="non-scaling-stroke" d="
  M 156.16 394.33
  A 9.82 9.82 0.0 0 0 146.34 384.51
  A 9.82 9.82 0.0 0 0 136.52 394.33
  A 9.82 9.82 0.0 0 0 146.34 404.15
  A 9.82 9.82 0.0 0 0 156.16 394.33"
/>
<path stroke="#b8afb9" vector-effect="non-scaling-stroke" d="
  M 169.39 423.24
  A 9.82 9.82 0.0 0 0 159.57 413.42
  A 9.82 9.82 0.0 0 0 149.75 423.24
  A 9.82 9.82 0.0 0 0 159.57 433.06
  A 9.82 9.82 0.0 0 0 169.39 423.24"
/>
</g>
<path fill="#fa4954" d="
  M 278.63 0.00
  L 289.24 0.00
  Q 303.05 1.58 315.96 6.54
  C 338.13 15.06 359.00 27.74 378.43 42.27
  Q 422.89 75.51 458.18 122.10
  C 478.56 149.00 496.10 179.59 506.57 211.25
  Q 510.43 222.90 512.00 236.38
  L 512.00 249.24
  Q 509.87 268.91 497.97 284.51
  Q 492.63 291.51 486.24 297.51
  Q 480.91 302.52 476.35 303.94
  Q 466.16 307.12 457.31 298.66
  Q 465.00 291.54 470.87 283.61
  Q 486.26 262.80 484.10 236.69
  C 482.92 222.48 478.59 208.92 473.11 195.72
  Q 461.01 166.57 443.15 140.03
  Q 409.10 89.41 362.15 51.09
  Q 331.87 26.38 298.48 10.78
  Q 288.17 5.97 272.27 1.33
  L 278.63 0.00
  Z"
/>
<path fill="#fb636f" d="
  M 272.27 1.33
  Q 288.17 5.97 298.48 10.78
  Q 331.87 26.38 362.15 51.09
  Q 409.10 89.41 443.15 140.03
  Q 461.01 166.57 473.11 195.72
  C 478.59 208.92 482.92 222.48 484.10 236.69
  Q 486.26 262.80 470.87 283.61
  Q 465.00 291.54 457.31 298.66
  L 453.50 294.33
  L 443.13 282.89
  Q 425.00 262.96 406.74 243.05
  Q 399.82 235.51 398.80 232.43
  C 396.07 224.18 398.40 216.89 404.66 211.26
  Q 416.54 200.58 427.68 190.25
  C 431.24 186.95 431.65 181.97 429.05 177.97
  Q 395.54 126.40 347.50 88.79
  C 343.32 85.51 338.36 86.15 334.58 89.65
  Q 323.08 100.32 311.52 110.78
  Q 305.06 116.62 296.74 115.75
  C 291.16 115.17 287.46 112.56 283.60 108.31
  Q 258.17 80.30 232.65 52.60
  Q 227.67 47.18 226.50 43.94
  Q 223.85 36.58 226.86 29.60
  Q 228.65 25.44 234.78 20.35
  Q 240.21 15.83 245.20 12.44
  Q 258.45 3.43 272.27 1.33
  Z"
/>
<path fill="#fa2a3b" d="
  M 148.00 222.52
  L 129.94 222.50
  Q 130.10 196.44 129.97 182.25
  Q 129.86 168.75 117.06 161.21
  Q 123.06 158.63 128.03 159.43
  Q 142.00 161.69 146.76 173.97
  Q 147.98 177.11 147.99 181.95
  Q 148.03 202.19 148.00 222.52
  Z"
/>
<path fill="#fa2a3b" d="
  M 301.27 222.20
  L 283.04 222.14
  Q 283.22 202.57 283.09 183.50
  C 283.03 174.70 280.21 168.25 273.24 163.51
  Q 271.61 162.40 270.02 161.16
  Q 275.97 158.60 281.13 159.36
  Q 295.21 161.42 300.32 175.10
  Q 300.97 176.84 301.03 178.98
  Q 301.08 180.91 301.10 183.00
  Q 301.29 202.57 301.27 222.20
  Z"
/>
<path fill="#fa4954" d="
  M 117.06 161.21
  Q 129.86 168.75 129.97 182.25
  Q 130.10 196.44 129.94 222.50
  L 103.17 222.50
  Q 103.03 204.25 103.17 186.16
  Q 103.23 178.06 104.70 174.03
  Q 108.01 164.93 117.06 161.21
  Z"
/>
<path fill="#fa4954" d="
  M 270.02 161.16
  Q 271.61 162.40 273.24 163.51
  C 280.21 168.25 283.03 174.70 283.09 183.50
  Q 283.22 202.57 283.04 222.14
  Q 275.94 221.61 269.00 222.53
  L 256.25 222.52
  Q 256.21 204.77 256.24 187.16
  Q 256.26 178.06 257.75 174.03
  Q 260.92 165.42 270.02 161.16
  Z"
/>
<path fill="#fb636f" d="
  M 283.04 222.14
  L 301.27 222.20
  Q 307.34 222.30 313.44 222.30
  Q 322.36 222.29 325.13 223.47
  Q 330.30 225.68 332.78 230.88
  Q 334.01 233.46 334.03 236.90
  Q 334.09 252.39 333.96 266.83
  Q 333.84 279.28 335.44 285.87
  Q 338.64 299.06 348.58 308.75
  Q 373.64 333.18 397.89 356.90
  Q 404.47 363.34 404.53 373.25
  Q 404.65 392.04 404.75 410.73
  L 404.75 426.21
  Q 404.67 444.33 404.69 462.40
  Q 404.69 467.62 404.32 471.08
  Q 403.72 476.71 402.67 479.64
  Q 392.65 507.54 363.12 512.00
  L 313.62 512.00
  Q 313.25 510.99 314.26 510.74
  Q 326.32 507.87 334.41 500.65
  Q 350.29 486.47 350.24 465.07
  Q 350.13 419.26 350.31 375.90
  C 350.34 368.11 348.79 362.06 343.31 356.73
  Q 317.99 332.05 293.63 308.19
  Q 284.84 299.58 281.39 287.10
  Q 279.57 280.49 279.68 268.67
  Q 279.83 254.16 279.82 238.91
  Q 279.82 233.85 278.30 230.71
  Q 275.71 225.37 269.00 222.53
  Q 275.94 221.61 283.04 222.14
  Z"
/>
<path fill="#fc8086" d="
  M 103.17 222.50
  L 129.94 222.50
  L 148.00 222.52
  L 256.25 222.52
  L 269.00 222.53
  Q 275.71 225.37 278.30 230.71
  Q 279.82 233.85 279.82 238.91
  Q 279.83 254.16 279.68 268.67
  Q 279.57 280.49 281.39 287.10
  Q 284.84 299.58 293.63 308.19
  Q 317.99 332.05 343.31 356.73
  C 348.79 362.06 350.34 368.11 350.31 375.90
  Q 350.13 419.26 350.24 465.07
  Q 350.29 486.47 334.41 500.65
  Q 326.32 507.87 314.26 510.74
  Q 313.25 510.99 313.62 512.00
  L 45.02 512.00
  Q 18.59 510.42 5.83 488.44
  Q 0.86 479.88 0.00 468.61
  L 0.00 370.51
  Q 1.28 362.25 7.09 356.59
  Q 31.65 332.66 56.69 308.20
  Q 70.01 295.19 70.39 274.94
  Q 70.69 258.79 70.38 241.52
  Q 70.25 234.57 71.67 231.30
  Q 74.25 225.39 80.24 223.37
  Q 82.88 222.48 91.39 222.53
  Q 97.33 222.56 103.17 222.50
  Z
  M 127.94 431.69
  Q 128.31 432.28 128.68 432.87
  A 87.28 87.26 -13.1 0 0 192.64 472.75
  A 87.41 87.01 -44.9 0 0 211.99 472.75
  A 87.26 87.25 -75.7 0 0 273.83 436.04
  A 87.31 87.26 66.5 0 0 288.73 398.25
  A 87.33 87.29 28.8 0 0 268.78 329.45
  A 87.30 87.25 85.6 0 0 248.20 311.77
  A 87.28 87.27 -32.5 0 0 192.25 299.32
  A 87.30 87.27 -71.1 0 0 139.94 324.96
  A 87.30 87.24 72.9 0 0 116.76 368.75
  A 87.25 87.25 0.0 0 0 127.94 431.69
  Z"
/>
<path fill="#fa4954" d="
  M 443.13 282.89
  L 453.50 294.33
  C 449.27 298.51 444.10 303.10 441.33 307.67
  Q 436.38 315.87 437.57 325.91
  C 438.51 333.81 442.49 339.54 448.36 345.11
  C 452.16 348.71 456.08 352.52 459.10 356.76
  C 471.11 373.64 469.97 396.39 455.81 411.84
  Q 443.04 425.78 423.50 426.07
  Q 414.15 426.21 404.75 426.21
  L 404.75 410.73
  Q 413.95 410.69 423.00 410.51
  Q 435.94 410.25 443.61 402.27
  C 455.66 389.72 454.08 372.15 441.91 360.49
  Q 438.15 356.89 434.48 353.10
  C 419.04 337.14 417.66 313.44 430.81 295.57
  Q 433.88 291.41 443.13 282.89
  Z"
/>
<path fill="#e0dde2" d="
  M 248.20 311.77
  Q 259.80 332.60 260.20 355.22
  Q 255.21 351.80 250.74 353.25
  C 242.28 356.00 241.20 367.29 249.05 371.45
  Q 253.80 373.97 259.07 370.86
  L 256.00 384.61
  Q 250.51 386.17 248.78 391.25
  Q 247.44 395.15 249.49 399.15
  Q 246.01 405.00 241.99 410.21
  Q 232.64 422.31 219.74 430.50
  Q 212.21 429.85 208.82 436.65
  L 196.21 441.05
  C 196.29 425.15 172.44 428.19 177.16 443.98
  Q 151.24 444.90 127.94 431.69
  A 87.25 87.25 0.0 0 1 116.76 368.75
  A 87.30 87.24 72.9 0 1 139.94 324.96
  A 87.30 87.27 -71.1 0 1 192.25 299.32
  A 87.28 87.27 -32.5 0 1 248.20 311.77
  Z
  M 211.96 329.79
  A 9.82 9.82 0.0 0 0 202.14 319.97
  A 9.82 9.82 0.0 0 0 192.32 329.79
  A 9.82 9.82 0.0 0 0 202.14 339.61
  A 9.82 9.82 0.0 0 0 211.96 329.79
  Z
  M 181.47 338.69
  A 9.82 9.82 0.0 0 0 171.65 328.87
  A 9.82 9.82 0.0 0 0 161.83 338.69
  A 9.82 9.82 0.0 0 0 171.65 348.51
  A 9.82 9.82 0.0 0 0 181.47 338.69
  Z
  M 242.49 338.69
  A 9.82 9.82 0.0 0 0 232.67 328.87
  A 9.82 9.82 0.0 0 0 222.85 338.69
  A 9.82 9.82 0.0 0 0 232.67 348.51
  A 9.82 9.82 0.0 0 0 242.49 338.69
  Z
  M 160.66 362.68
  A 9.82 9.82 0.0 0 0 150.84 352.86
  A 9.82 9.82 0.0 0 0 141.02 362.68
  A 9.82 9.82 0.0 0 0 150.84 372.50
  A 9.82 9.82 0.0 0 0 160.66 362.68
  Z
  M 176.63 394.49
  A 27.03 27.02 -13.7 0 0 206.49 412.66
  A 27.01 27.00 16.2 0 0 222.57 403.81
  A 26.98 26.97 65.7 0 0 229.30 386.01
  A 27.02 27.02 0.0 0 0 211.40 360.53
  A 27.05 27.03 -60.3 0 0 181.45 368.74
  A 27.04 27.04 0.0 0 0 176.63 394.49
  Z
  M 156.16 394.33
  A 9.82 9.82 0.0 0 0 146.34 384.51
  A 9.82 9.82 0.0 0 0 136.52 394.33
  A 9.82 9.82 0.0 0 0 146.34 404.15
  A 9.82 9.82 0.0 0 0 156.16 394.33
  Z
  M 169.39 423.24
  A 9.82 9.82 0.0 0 0 159.57 413.42
  A 9.82 9.82 0.0 0 0 149.75 423.24
  A 9.82 9.82 0.0 0 0 159.57 433.06
  A 9.82 9.82 0.0 0 0 169.39 423.24
  Z"
/>
<path fill="#c8c1c9" d="
  M 248.20 311.77
  A 87.30 87.25 85.6 0 1 268.78 329.45
  A 87.33 87.29 28.8 0 1 288.73 398.25
  A 87.31 87.26 66.5 0 1 273.83 436.04
  A 87.26 87.25 -75.7 0 1 211.99 472.75
  A 87.41 87.01 -44.9 0 1 192.64 472.75
  A 87.28 87.26 -13.1 0 1 128.68 432.87
  Q 128.31 432.28 127.94 431.69
  Q 151.24 444.90 177.16 443.98
  Q 179.77 449.45 184.75 449.97
  Q 194.29 450.95 196.21 441.05
  L 208.82 436.65
  Q 207.15 443.42 211.34 447.33
  C 214.72 450.48 219.96 451.04 223.63 448.32
  C 231.04 442.82 228.46 432.63 219.74 430.50
  Q 232.64 422.31 241.99 410.21
  Q 246.01 405.00 249.49 399.15
  C 253.55 405.43 261.90 405.93 266.15 399.97
  C 268.78 396.29 268.47 391.23 265.45 387.79
  Q 262.10 383.97 256.00 384.61
  L 259.07 370.86
  Q 264.46 366.92 263.15 360.58
  Q 262.56 357.71 260.20 355.22
  Q 259.80 332.60 248.20 311.77
  Z"
/>
<circle fill="#8f818f" cx="202.14" cy="329.79" r="9.82"/>
<circle fill="#8f818f" cx="171.65" cy="338.69" r="9.82"/>
<circle fill="#8f818f" cx="232.67" cy="338.69" r="9.82"/>
<circle fill="#8f818f" cx="150.84" cy="362.68" r="9.82"/>
<path fill="#8f818f" d="
  M 260.20 355.22
  Q 262.56 357.71 263.15 360.58
  Q 264.46 366.92 259.07 370.86
  Q 253.80 373.97 249.05 371.45
  C 241.20 367.29 242.28 356.00 250.74 353.25
  Q 255.21 351.80 260.20 355.22
  Z"
/>
<path fill="#fa4954" d="
  M 211.40 360.53
  Q 213.15 371.13 210.45 378.22
  Q 204.58 393.64 187.26 395.76
  Q 183.16 396.26 176.63 394.49
  A 27.04 27.04 0.0 0 1 181.45 368.74
  A 27.05 27.03 -60.3 0 1 211.40 360.53
  Z"
/>
<path fill="#fa2a3b" d="
  M 211.40 360.53
  A 27.02 27.02 0.0 0 1 229.30 386.01
  A 26.98 26.97 65.7 0 1 222.57 403.81
  A 27.01 27.00 16.2 0 1 206.49 412.66
  A 27.03 27.02 -13.7 0 1 176.63 394.49
  Q 183.16 396.26 187.26 395.76
  Q 204.58 393.64 210.45 378.22
  Q 213.15 371.13 211.40 360.53
  Z"
/>
<circle fill="#8f818f" cx="146.34" cy="394.33" r="9.82"/>
<path fill="#8f818f" d="
  M 256.00 384.61
  Q 262.10 383.97 265.45 387.79
  C 268.47 391.23 268.78 396.29 266.15 399.97
  C 261.90 405.93 253.55 405.43 249.49 399.15
  Q 247.44 395.15 248.78 391.25
  Q 250.51 386.17 256.00 384.61
  Z"
/>
<circle fill="#8f818f" cx="159.57" cy="423.24" r="9.82"/>
<path fill="#8f818f" d="
  M 196.21 441.05
  Q 194.29 450.95 184.75 449.97
  Q 179.77 449.45 177.16 443.98
  C 172.44 428.19 196.29 425.15 196.21 441.05
  Z"
/>
<path fill="#8f818f" d="
  M 219.74 430.50
  C 228.46 432.63 231.04 442.82 223.63 448.32
  C 219.96 451.04 214.72 450.48 211.34 447.33
  Q 207.15 443.42 208.82 436.65
  Q 212.21 429.85 219.74 430.50
  Z"
/>
</svg>
