<?xml version="1.0" encoding="UTF-8" standalone="no"?>
<svg xmlns="http://www.w3.org/2000/svg" version="1.2" baseProfile="tiny" viewBox="0.00 0.00 216.00 197.00">
<g stroke-width="2.00" fill="none" stroke-linecap="butt">
<path stroke="#fdb95b" vector-effect="non-scaling-stroke" d="
  M 181.39 30.86
  Q 185.07 47.78 192.32 62.54
  Q 192.32 62.54 192.87 63.33
  Q 193.16 63.76 193.14 64.34
  A 1.46 1.44 27.2 0 0 193.45 65.29
  Q 195.33 67.64 195.86 70.51
  Q 196.37 73.23 196.66 76.15
  C 197.44 83.82 196.21 91.73 196.58 99.50
  Q 196.93 106.87 197.07 114.90
  Q 197.29 127.38 190.36 137.03
  Q 190.03 137.47 189.90 138.03
  C 189.74 138.68 188.87 139.20 188.44 139.82
  Q 185.76 143.64 182.40 147.21
  C 180.82 148.88 179.68 150.88 177.92 152.37
  Q 170.24 158.86 163.76 164.90
  Q 162.82 165.78 162.13 166.76
  Q 161.39 167.81 160.40 168.47
  Q 158.89 169.48 157.63 170.67
  Q 155.39 172.81 152.98 174.23
  Q 147.94 177.18 141.45 179.86
  C 139.07 180.84 136.54 181.32 134.13 182.21
  C 131.72 183.10 129.15 183.27 126.87 184.44
  Q 126.36 184.70 126.20 185.28
  A 0.76 0.75 6.5 0 1 125.48 185.85
  L 122.68 185.89
  Q 122.17 185.90 121.79 186.23
  Q 121.57 186.43 121.26 186.41
  Q 115.88 186.18 115.93 189.91"
/>
<path stroke="#fec86b" vector-effect="non-scaling-stroke" d="
  M 8.91 95.52
  Q 9.06 99.67 9.11 103.79
  Q 9.13 105.31 9.58 106.72
  Q 10.08 108.25 10.06 109.73
  Q 10.05 111.99 10.51 114.34
  Q 10.72 115.41 10.94 116.49
  Q 12.97 126.52 17.49 133.82
  Q 17.89 134.47 18.71 134.44
  A 1.04 1.04 0.0 0 0 19.68 133.23
  Q 19.35 131.29 19.13 129.57
  Q 18.90 127.75 18.21 125.69
  Q 14.64 114.99 13.62 106.78
  C 13.06 102.19 12.96 95.90 14.57 91.27
  Q 15.31 89.14 15.73 87.16
  Q 16.35 84.18 17.46 81.47
  C 18.19 79.70 18.27 77.98 18.77 76.19
  Q 19.25 74.47 19.41 72.72
  Q 20.01 66.19 21.39 60.13
  Q 23.90 49.16 31.69 41.48
  Q 34.41 38.81 36.52 35.83
  Q 40.36 30.42 45.30 25.59
  Q 50.16 20.84 56.79 18.45
  Q 64.36 15.71 70.10 11.44
  Q 71.48 10.41 71.11 8.74
  Q 71.00 8.25 70.59 7.98
  L 67.33 5.77"
/>
<path stroke="#dc7e43" vector-effect="non-scaling-stroke" d="
  M 20.07 94.12
  Q 18.22 100.97 18.93 107.91
  C 19.37 112.22 21.31 116.66 22.73 120.85
  C 25.11 127.89 25.58 136.70 31.04 142.19
  Q 38.17 149.36 42.30 156.06
  C 45.76 161.67 49.80 165.65 55.75 168.16
  Q 62.51 171.01 70.56 173.81
  C 82.40 177.93 90.18 180.56 101.04 180.58"
/>
<path stroke="#fec86b" vector-effect="non-scaling-stroke" d="
  M 101.04 180.58
  Q 100.52 181.54 101.27 181.95
  Q 101.75 182.22 101.75 182.77
  L 101.73 184.09
  A 1.66 1.65 -83.3 0 0 103.01 185.72
  Q 105.31 186.24 107.32 185.61
  C 116.70 182.62 126.29 180.24 135.79 177.37
  Q 140.62 175.91 142.74 174.92
  C 143.61 174.52 144.62 174.47 145.48 174.08
  Q 151.56 171.32 156.91 167.76
  Q 157.12 167.62 157.25 167.40
  Q 157.49 167.01 157.93 166.88
  Q 159.45 166.43 160.45 165.19
  Q 162.24 162.97 164.39 161.18
  Q 166.46 159.47 168.28 157.44
  Q 170.08 155.43 172.05 153.53
  Q 177.69 148.05 183.00 142.69
  Q 186.15 139.52 189.87 135.15
  Q 190.73 134.15 191.38 133.10
  Q 192.06 132.01 192.67 130.99
  Q 193.39 129.79 193.10 128.25
  A 1.17 1.17 0.0 0 0 191.25 127.52
  C 188.62 129.46 187.65 132.30 185.28 134.61
  C 183.41 136.43 181.99 138.56 179.93 140.16
  Q 176.81 142.59 173.46 145.17
  Q 169.34 148.34 165.97 151.40
  Q 164.09 153.11 162.77 155.37
  Q 159.45 161.07 155.99 163.76
  Q 153.50 165.70 149.06 166.26"
/>
<path stroke="#dc7e43" vector-effect="non-scaling-stroke" d="
  M 149.06 166.26
  Q 155.87 159.87 161.71 151.36"
/>
<path stroke="#f9b768" vector-effect="non-scaling-stroke" d="
  M 161.71 151.36
  Q 165.01 150.28 167.14 147.89
  Q 171.60 142.90 176.53 138.38
  Q 176.68 138.25 176.63 138.05
  Q 176.60 137.94 176.52 137.82"
/>
<path stroke="#dc7e43" vector-effect="non-scaling-stroke" d="
  M 176.52 137.82
  Q 178.56 136.11 180.34 134.09
  Q 186.65 126.92 185.91 117.01
  Q 185.43 110.67 185.86 105.49
  C 186.37 99.28 188.93 93.16 189.44 86.86
  Q 189.88 81.39 187.13 72.71
  C 181.97 56.48 177.36 44.29 164.47 34.52
  Q 156.50 28.48 148.14 23.12"
/>
<path stroke="#fdb95b" vector-effect="non-scaling-stroke" d="
  M 148.14 23.12
  Q 148.43 22.27 148.92 21.72
  Q 149.27 21.32 149.74 21.57
  Q 154.69 24.25 159.88 24.36
  A 0.53 0.53 0.0 0 0 160.34 23.55
  Q 159.91 22.87 159.23 22.45
  Q 149.90 16.61 142.77 12.86
  Q 127.80 4.99 111.11 4.23
  C 108.92 4.13 106.89 4.96 104.74 5.06
  Q 95.00 5.54 86.90 8.54
  Q 82.43 10.20 78.06 11.43
  Q 72.69 12.94 67.57 15.57
  Q 66.51 16.12 65.52 16.29
  Q 64.50 16.47 63.70 17.17
  Q 63.27 17.55 62.71 17.65
  Q 60.39 18.08 58.76 20.27
  C 58.05 21.24 56.61 21.32 55.77 22.07
  C 52.94 24.58 50.04 26.90 47.49 29.73
  Q 45.30 32.16 43.19 34.44
  Q 38.53 39.48 32.42 48.64
  Q 30.55 51.45 29.01 55.04
  C 26.71 60.41 23.58 65.94 21.75 71.00
  Q 21.29 72.28 20.41 76.31
  C 20.20 77.32 19.49 78.04 19.83 79.13
  A 0.76 0.76 0.0 0 1 19.76 79.72
  Q 18.61 81.75 18.78 84.00
  Q 18.86 85.03 18.57 86.06
  Q 18.13 87.67 18.17 89.35
  Q 18.21 90.48 19.21 90.94
  Q 19.69 91.16 19.52 91.66
  Q 18.92 93.41 20.07 94.12"
/>
<path stroke="#db753f" vector-effect="non-scaling-stroke" d="
  M 148.14 23.12
  Q 143.28 20.24 138.63 17.10
  Q 135.37 14.91 129.38 13.31
  Q 125.01 12.15 119.66 12.03
  Q 104.17 11.70 92.60 12.67
  C 76.31 14.04 57.90 19.16 50.59 35.08
  C 48.21 40.26 46.24 45.61 42.34 49.81
  Q 39.47 52.90 36.43 55.91
  Q 25.80 66.40 22.50 81.32
  Q 21.11 87.59 20.07 94.12"
/>
<path stroke="#d7734b" vector-effect="non-scaling-stroke" d="
  M 176.52 137.82
  Q 176.80 138.12 176.31 137.94
  A 0.19 0.19 0.0 0 1 176.26 137.61
  Q 176.43 137.50 176.36 137.28
  A 0.42 0.40 -33.7 0 1 176.45 136.88
  Q 180.97 131.99 180.01 125.44
  C 178.40 114.35 181.15 104.21 183.73 93.28
  Q 185.23 86.95 184.15 77.60
  C 183.67 73.34 181.17 69.49 178.93 65.96
  C 177.62 63.88 176.99 61.25 176.79 58.84
  C 176.33 53.54 175.24 48.34 171.02 45.03
  Q 167.75 42.46 164.15 40.28
  C 158.31 36.75 155.07 32.28 150.91 26.86
  Q 148.55 23.79 143.66 21.68"
/>
<path stroke="#d98860" vector-effect="non-scaling-stroke" d="
  M 143.66 21.68
  Q 141.38 20.12 140.00 19.73
  Q 122.68 14.77 105.40 15.83
  C 97.38 16.32 90.03 16.18 82.38 16.69
  Q 72.03 17.39 63.32 23.86
  Q 61.78 25.01 60.96 26.89
  Q 58.36 32.92 56.10 39.55
  Q 53.63 46.79 46.43 50.41
  C 40.82 53.23 34.99 56.44 33.11 62.82
  Q 28.82 77.35 27.09 91.83
  Q 25.47 105.42 28.55 117.43
  C 30.82 126.23 35.97 133.32 41.58 140.58
  Q 47.68 148.49 51.91 159.83
  C 54.59 167.03 61.11 168.12 67.84 166.98
  Q 76.98 165.44 84.44 168.54
  Q 87.75 169.92 90.85 170.29
  Q 98.46 171.19 105.73 169.78"
/>
<path stroke="#d7734b" vector-effect="non-scaling-stroke" d="
  M 105.73 169.78
  Q 116.26 168.84 125.97 166.12
  Q 133.03 164.14 136.81 161.85
  Q 145.33 156.71 149.28 154.78
  Q 154.39 152.30 161.71 151.36"
/>
<path stroke="#dc834e" vector-effect="non-scaling-stroke" d="
  M 149.06 166.26
  Q 144.94 169.31 139.29 171.29
  C 126.23 175.89 114.24 179.78 101.04 180.58"
/>
<path stroke="#f6c285" vector-effect="non-scaling-stroke" d="
  M 143.66 21.68
  Q 144.78 22.89 146.08 25.04
  Q 147.51 27.42 150.85 31.56
  Q 153.54 34.90 156.05 36.80
  Q 159.17 39.17 162.37 41.03
  Q 163.39 41.62 166.29 43.94
  Q 169.06 46.15 170.34 48.66
  C 172.78 53.43 171.87 58.86 173.94 63.68
  Q 175.37 67.01 178.05 70.37
  Q 178.82 71.34 179.14 72.57
  C 182.15 84.18 179.04 95.50 176.46 107.02
  C 175.07 113.21 175.15 119.69 175.89 125.97
  Q 176.28 129.29 174.91 131.93
  Q 172.49 136.61 168.08 141.88
  C 163.30 147.60 158.60 149.96 151.60 151.59
  Q 146.11 152.88 141.71 155.56
  Q 133.72 160.43 126.97 163.47
  A 1.38 1.38 0.0 0 1 126.32 163.59
  Q 125.50 163.53 125.02 164.13
  A 1.35 1.33 12.8 0 1 124.24 164.61
  Q 120.05 165.55 115.61 166.94
  Q 114.51 167.29 110.62 168.06
  Q 108.11 168.57 105.73 169.78"
/>
<path stroke="#f0af89" vector-effect="non-scaling-stroke" d="
  M 101.18 24.27
  C 102.33 26.18 104.04 30.31 106.75 30.28
  Q 111.02 30.24 116.18 29.11
  C 119.88 28.30 119.59 20.77 116.86 19.14
  Q 115.19 18.14 111.77 18.31"
/>
<path stroke="#f4c09f" vector-effect="non-scaling-stroke" d="
  M 111.77 18.31
  Q 108.93 17.25 104.51 17.90
  Q 101.93 18.28 100.85 19.46
  Q 99.10 21.37 101.18 24.27"
/>
<path stroke="#ed988f" vector-effect="non-scaling-stroke" d="
  M 111.77 18.31
  Q 115.96 19.84 116.73 21.70
  C 117.73 24.10 116.63 26.69 113.93 27.30
  Q 110.95 27.97 108.41 27.75
  A 0.58 0.58 0.0 0 1 107.96 26.88
  Q 108.65 25.66 109.91 24.98
  A 0.70 0.70 0.0 0 0 110.09 23.90
  C 107.67 21.27 104.97 23.48 102.04 22.80
  Q 101.57 22.70 101.28 23.03
  Q 100.97 23.40 101.18 24.27"
/>
<path stroke="#f8dfa6" vector-effect="non-scaling-stroke" d="
  M 67.16 24.74
  C 64.62 26.58 63.23 29.85 62.36 32.77
  Q 61.63 35.22 60.67 37.59
  Q 59.40 40.72 57.49 44.55
  Q 56.35 46.83 54.90 48.00
  Q 53.04 49.51 50.84 51.04
  Q 50.05 51.60 49.80 52.46
  A 0.73 0.73 0.0 0 0 50.69 53.37
  C 53.15 52.71 55.08 51.29 57.52 50.65
  Q 60.94 49.75 63.46 48.11
  C 66.92 45.86 67.67 38.49 68.06 34.78
  Q 68.58 29.89 72.09 26.77
  C 73.23 25.76 74.69 25.31 76.01 24.59
  C 78.22 23.39 80.74 23.20 83.12 22.55
  C 85.85 21.81 88.18 22.00 90.82 21.75
  Q 92.01 21.64 92.59 20.51
  Q 92.79 20.11 92.02 19.58
  Q 91.35 19.13 90.54 19.05
  Q 84.06 18.40 76.43 19.67
  Q 74.25 20.03 72.24 21.36
  Q 70.12 22.77 67.74 23.96
  Q 67.54 24.06 67.47 24.29
  Q 67.39 24.57 67.16 24.74"
/>
<path stroke="#f5cc5e" vector-effect="non-scaling-stroke" d="
  M 139.50 36.76
  Q 139.28 31.97 136.02 31.37
  C 133.68 30.94 130.93 31.23 129.20 33.12
  Q 125.05 37.63 121.66 41.45
  A 1.67 1.67 0.0 0 0 121.87 43.86
  Q 126.86 47.88 132.54 52.34
  C 134.88 54.17 138.36 53.90 140.28 51.57"
/>
<path stroke="#fbd288" vector-effect="non-scaling-stroke" d="
  M 140.28 51.57
  C 144.36 49.00 145.49 45.52 147.25 40.80
  C 148.16 38.34 148.14 36.17 147.49 33.76
  Q 147.10 32.34 145.77 31.64
  Q 145.31 31.41 145.04 30.97
  Q 142.27 26.44 137.74 24.02
  C 136.29 23.25 134.66 23.82 133.02 23.12
  Q 129.50 21.61 126.21 20.78
  C 121.28 19.52 120.18 24.64 122.17 27.89
  A 1.89 1.88 69.3 0 0 124.10 28.76
  Q 127.13 28.22 129.67 26.81
  C 134.11 24.34 138.43 27.98 141.07 31.33
  Q 142.77 33.50 143.00 35.88
  Q 143.43 40.43 142.13 44.27
  Q 141.96 44.78 141.45 44.95
  Q 140.79 45.17 140.36 44.76
  Q 140.01 44.44 139.98 43.97
  L 139.50 36.76"
/>
<path stroke="#f9c74c" vector-effect="non-scaling-stroke" d="
  M 140.28 51.57
  C 140.02 46.51 139.25 42.22 139.50 36.76"
/>
<path stroke="#f6c285" vector-effect="non-scaling-stroke" d="
  M 77.67 25.22
  Q 76.39 25.91 75.80 27.27
  Q 75.56 27.82 76.00 28.19
  Q 76.20 28.36 76.47 28.34
  Q 77.08 28.30 77.35 27.80
  Q 77.91 26.81 78.12 25.55
  Q 78.23 24.93 77.67 25.22"
/>
<path stroke="#f5cc5e" vector-effect="non-scaling-stroke" d="
  M 93.21 36.78
  C 90.61 37.27 88.13 37.15 85.54 37.63
  Q 83.74 37.97 81.91 38.30
  Q 80.97 38.47 80.74 39.40
  Q 79.61 43.97 83.58 47.12
  Q 85.05 48.28 86.59 47.08
  Q 91.29 43.42 95.93 40.39
  C 97.84 39.14 101.08 36.60 100.29 33.96
  Q 98.69 28.63 93.50 27.90
  Q 88.49 27.19 83.96 26.33
  Q 82.66 26.08 82.49 27.40
  L 81.79 33.03
  A 1.13 1.12 86.8 0 0 83.17 34.27
  C 85.73 33.65 92.19 32.82 93.75 34.83
  Q 94.24 35.47 93.93 36.20
  A 1.00 0.99 -83.6 0 1 93.21 36.78"
/>
<path stroke="#f6c285" vector-effect="non-scaling-stroke" d="
  M 121.6200 34.5365
  A 1.94 0.64 -0.4 0 0 119.6755 33.9100
  A 1.94 0.64 -0.4 0 0 117.7400 34.5635
  A 1.94 0.64 -0.4 0 0 119.6845 35.1900
  A 1.94 0.64 -0.4 0 0 121.6200 34.5365"
/>
<path stroke="#f6c285" vector-effect="non-scaling-stroke" d="
  M 112.8213 40.4214
  A 1.83 0.65 -5.6 0 0 110.9366 39.9531
  A 1.83 0.65 -5.6 0 0 109.1787 40.7786
  A 1.83 0.65 -5.6 0 0 111.0634 41.2469
  A 1.83 0.65 -5.6 0 0 112.8213 40.4214"
/>
<path stroke="#f4c09f" vector-effect="non-scaling-stroke" d="
  M 96.96 47.49
  C 96.59 49.12 96.15 50.28 96.66 51.84
  Q 97.74 55.12 98.34 58.38
  Q 98.52 59.35 99.16 60.17
  Q 99.97 61.19 100.74 61.40"
/>
<path stroke="#f0af89" vector-effect="non-scaling-stroke" d="
  M 100.74 61.40
  Q 103.25 61.76 104.00 61.47
  Q 109.94 59.24 116.24 58.41
  A 1.46 1.46 0.0 0 0 117.45 56.51
  L 113.37 43.90
  A 2.37 2.36 78.6 0 0 110.92 42.27
  Q 102.31 43.04 96.96 47.49"
/>
<path stroke="#ed988f" vector-effect="non-scaling-stroke" d="
  M 100.74 61.40
  Q 102.99 59.25 102.50 57.49
  Q 101.85 55.12 101.48 52.63
  C 101.10 50.15 103.51 49.28 105.36 49.87
  Q 108.65 50.93 112.59 52.57
  A 1.00 1.00 0.0 0 0 113.96 51.48
  Q 113.49 48.76 111.88 45.77
  C 110.09 42.47 104.99 44.83 102.35 45.89
  Q 100.00 46.83 98.65 48.36
  A 1.09 1.02 72.3 0 0 98.39 48.91
  Q 98.30 49.48 97.84 49.77
  Q 97.19 50.18 97.12 49.41
  L 96.96 47.49"
/>
<path stroke="#f0af89" vector-effect="non-scaling-stroke" d="
  M 142.87 56.44
  Q 142.18 55.54 141.12 54.94
  Q 140.69 54.70 140.38 55.08
  Q 139.96 55.60 140.39 56.12
  Q 141.42 57.35 142.62 58.40
  Q 143.04 58.77 143.22 59.30
  C 144.15 62.13 146.10 66.01 149.56 65.97
  Q 154.46 65.92 159.65 65.63
  Q 161.56 65.53 162.40 64.03
  C 165.26 58.91 159.80 53.77 156.05 50.48
  Q 154.73 49.32 153.33 48.69
  A 2.30 2.29 31.6 0 0 150.61 49.34
  Q 147.52 53.15 143.79 56.52
  Q 143.29 56.98 142.87 56.44"
/>
<path stroke="#f6c285" vector-effect="non-scaling-stroke" d="
  M 121.94 50.58
  L 125.06 52.26
  Q 125.75 52.63 125.56 51.87
  C 125.22 50.56 123.43 49.74 122.26 49.38
  Q 121.97 49.29 121.76 49.51
  Q 121.52 49.79 121.62 50.18
  A 0.68 0.65 -84.9 0 0 121.94 50.58"
/>
<path stroke="#f5cc5e" vector-effect="non-scaling-stroke" d="
  M 61.30 53.04
  C 58.37 53.86 56.71 53.66 54.74 56.68
  C 53.74 58.22 54.93 59.29 56.24 59.85
  Q 62.21 62.40 68.25 65.34
  Q 74.92 68.58 79.17 63.72
  Q 80.79 61.88 80.63 59.44
  Q 80.34 55.10 79.44 50.79
  Q 79.31 50.20 78.72 50.21
  Q 76.94 50.22 75.19 50.58
  Q 71.84 51.28 68.15 52.01
  Q 67.04 52.23 65.84 52.32
  Q 64.65 52.41 63.53 52.96
  Q 63.07 53.18 62.57 53.04
  Q 61.93 52.86 61.30 53.04"
/>
<path stroke="#f8dfa6" vector-effect="non-scaling-stroke" d="
  M 88.68 65.67
  C 90.20 62.90 92.11 59.94 94.66 58.70
  A 1.58 1.58 0.0 0 0 95.40 57.96
  Q 96.02 56.68 94.88 55.63
  A 1.11 1.11 0.0 0 0 94.05 55.33
  Q 92.03 55.46 90.69 56.79
  Q 87.40 60.02 85.09 64.71
  C 83.74 67.45 82.44 69.76 82.89 72.90
  Q 83.10 74.37 83.98 73.17
  Q 86.31 70.00 88.68 65.67"
/>
<path stroke="#f0af89" vector-effect="non-scaling-stroke" d="
  M 39.96 61.20
  C 37.54 63.00 38.00 69.72 38.46 71.64
  Q 39.03 73.95 41.47 75.39
  A 1.21 1.21 0.0 0 0 42.94 75.22
  Q 45.80 72.47 49.10 70.15
  C 51.60 68.39 52.16 64.03 51.40 61.55
  C 49.84 56.52 42.84 59.05 39.96 61.20"
/>
<path stroke="#f8dfa6" vector-effect="non-scaling-stroke" d="
  M 130.77 61.80
  C 130.35 63.42 131.97 66.31 132.88 67.63
  Q 134.32 69.75 134.44 72.03
  Q 134.65 75.86 134.20 80.29
  Q 134.07 81.53 134.80 82.51
  Q 134.97 82.74 135.25 82.78
  Q 136.60 83.00 136.77 81.64
  Q 137.47 75.94 136.95 69.50
  C 136.67 66.01 134.92 63.05 132.01 61.29
  A 0.84 0.84 0.0 0 0 130.77 61.80"
/>
<path stroke="#f6c285" vector-effect="non-scaling-stroke" d="
  M 122.7241 65.5772
  A 1.48 0.63 110.4 0 0 123.8305 64.4096
  A 1.48 0.63 110.4 0 0 123.7559 62.8028
  A 1.48 0.63 110.4 0 0 122.6495 63.9704
  A 1.48 0.63 110.4 0 0 122.7241 65.5772"
/>
<path stroke="#f6c285" vector-effect="non-scaling-stroke" d="
  M 104.9739 63.6043
  A 3.45 0.98 -23.5 0 0 101.4192 64.0813
  A 3.45 0.98 -23.5 0 0 98.6461 66.3557
  A 3.45 0.98 -23.5 0 0 102.2008 65.8787
  A 3.45 0.98 -23.5 0 0 104.9739 63.6043"
/>
<path stroke="#f6c285" vector-effect="non-scaling-stroke" d="
  M 80.0672 66.8292
  A 1.64 0.72 123.4 0 0 81.5711 65.8563
  A 1.64 0.72 123.4 0 0 81.8728 64.0908
  A 1.64 0.72 123.4 0 0 80.3689 65.0637
  A 1.64 0.72 123.4 0 0 80.0672 66.8292"
/>
<path stroke="#f6c285" vector-effect="non-scaling-stroke" d="
  M 117.98 66.78
  Q 119.01 65.84 118.61 64.61
  A 0.71 0.71 0.0 0 0 117.25 64.62
  Q 116.98 65.50 117.16 66.50
  A 0.50 0.49 63.8 0 0 117.98 66.78"
/>
<path stroke="#f0af89" vector-effect="non-scaling-stroke" d="
  M 119.47 80.69
  Q 121.99 82.36 126.74 81.29
  C 131.69 80.17 131.65 77.06 130.88 72.90
  Q 130.44 70.50 128.73 68.54"
/>
<path stroke="#f4c09f" vector-effect="non-scaling-stroke" d="
  M 128.73 68.54
  Q 122.45 65.77 116.47 69.72
  C 113.78 71.50 114.51 73.55 116.21 75.83
  Q 117.88 78.05 119.47 80.69"
/>
<path stroke="#ed988f" vector-effect="non-scaling-stroke" d="
  M 128.73 68.54
  Q 126.32 70.94 122.37 71.72
  Q 120.05 72.17 119.18 73.70
  A 2.22 2.22 0.0 0 0 119.44 76.26
  L 121.99 79.18
  Q 122.46 79.71 121.77 79.88
  Q 120.92 80.09 120.04 79.65
  Q 119.56 79.40 119.41 79.92
  Q 119.33 80.20 119.47 80.69"
/>
<path stroke="#f6c285" vector-effect="non-scaling-stroke" d="
  M 145.3264 69.3956
  A 0.61 0.61 0.0 0 0 144.7122 68.7899
  L 144.6522 68.7903
  A 0.61 0.61 0.0 0 0 144.0465 69.4045
  L 144.0736 73.2844
  A 0.61 0.61 0.0 0 0 144.6878 73.8901
  L 144.7478 73.8897
  A 0.61 0.61 0.0 0 0 145.3535 73.2755
  L 145.3264 69.3956"
/>
<path stroke="#f0af89" vector-effect="non-scaling-stroke" d="
  M 77.85 74.67
  Q 73.29 73.55 70.50 70.59
  C 68.26 68.23 65.03 69.24 63.02 71.30
  Q 60.35 74.03 57.42 76.44
  A 2.66 2.65 -39.9 0 0 57.08 80.20
  Q 61.01 84.86 64.79 90.16
  C 67.73 94.28 72.06 90.21 74.30 88.04
  C 76.72 85.69 82.04 83.72 82.48 80.02
  Q 82.97 75.92 77.85 74.67"
/>
<path stroke="#f6c285" vector-effect="non-scaling-stroke" d="
  M 158.8061 72.0491
  A 1.83 0.81 39.3 0 0 157.9030 70.2632
  A 1.83 0.81 39.3 0 0 155.9739 69.7309
  A 1.83 0.81 39.3 0 0 156.8770 71.5168
  A 1.83 0.81 39.3 0 0 158.8061 72.0491"
/>
<path stroke="#f8dfa6" vector-effect="non-scaling-stroke" d="
  M 109.37 72.25
  Q 109.32 71.86 108.93 71.87
  C 106.01 71.93 103.42 70.88 100.52 71.06
  Q 94.90 71.41 91.83 73.34
  Q 90.56 74.13 86.68 78.06
  C 86.26 78.49 85.86 79.38 85.84 79.89
  A 0.96 0.96 0.0 0 0 87.36 80.72
  Q 97.05 73.77 108.91 74.11
  Q 109.22 74.12 109.29 73.81
  Q 109.45 73.03 109.37 72.25"
/>
<path stroke="#f5cc5e" vector-effect="non-scaling-stroke" d="
  M 160.26 73.33
  Q 155.81 73.93 151.06 73.87
  C 148.63 73.85 146.92 75.38 145.30 77.07
  Q 142.34 80.16 145.47 83.03
  Q 151.59 88.64 157.45 94.31
  C 161.00 97.75 163.18 96.85 166.70 94.18
  Q 169.27 92.23 169.27 89.02
  Q 169.27 81.73 169.39 74.55
  A 1.35 1.35 0.0 0 0 168.05 73.18
  C 165.45 73.17 162.77 72.99 160.26 73.33"
/>
<path stroke="#f6c285" vector-effect="non-scaling-stroke" d="
  M 52.5606 77.1696
  A 2.22 0.80 113.9 0 0 54.1914 75.4641
  A 2.22 0.80 113.9 0 0 54.3594 73.1104
  A 2.22 0.80 113.9 0 0 52.7286 74.8159
  A 2.22 0.80 113.9 0 0 52.5606 77.1696"
/>
<path stroke="#f6c285" vector-effect="non-scaling-stroke" d="
  M 111.0886 79.0229
  A 0.91 0.77 -15.1 0 0 110.0094 78.5166
  A 0.91 0.77 -15.1 0 0 109.3314 79.4971
  A 0.91 0.77 -15.1 0 0 110.4106 80.0034
  A 0.91 0.77 -15.1 0 0 111.0886 79.0229"
/>
<path stroke="#f6c285" vector-effect="non-scaling-stroke" d="
  M 97.5298 83.0986
  A 1.40 0.77 58.1 0 0 97.4437 81.5031
  A 1.40 0.77 58.1 0 0 96.0502 80.7214
  A 1.40 0.77 58.1 0 0 96.1363 82.3169
  A 1.40 0.77 58.1 0 0 97.5298 83.0986"
/>
<path stroke="#f6c285" vector-effect="non-scaling-stroke" d="
  M 113.8458 84.0385
  A 1.44 0.67 131.5 0 0 115.3018 83.4040
  A 1.44 0.67 131.5 0 0 115.7542 81.8815
  A 1.44 0.67 131.5 0 0 114.2982 82.5160
  A 1.44 0.67 131.5 0 0 113.8458 84.0385"
/>
<path stroke="#f5cc5e" vector-effect="non-scaling-stroke" d="
  M 96.00 91.30
  Q 96.46 90.02 96.05 88.74
  A 0.38 0.37 -34.1 0 0 95.41 88.62
  Q 94.65 89.50 94.90 90.77
  Q 95.23 92.49 95.02 94.05
  Q 94.86 95.28 95.80 96.08
  Q 99.36 99.13 103.33 101.66
  Q 104.74 102.56 105.94 103.73
  C 107.69 105.45 110.93 105.72 113.31 104.53
  A 1.19 1.18 -12.8 0 0 113.96 103.51
  C 114.01 101.42 113.44 99.41 113.47 97.35
  Q 113.54 91.72 113.01 87.22
  C 112.55 83.26 109.77 83.38 106.69 83.08
  Q 105.47 82.97 104.63 83.73
  Q 101.28 86.77 97.02 92.06
  Q 96.92 92.18 96.78 92.28
  Q 96.46 92.49 96.19 92.21
  Q 95.81 91.82 96.00 91.30"
/>
<path stroke="#f5cc5e" vector-effect="non-scaling-stroke" d="
  M 37.93 98.21
  Q 35.47 104.65 40.00 108.82
  Q 41.84 110.52 43.95 109.10
  Q 52.31 103.48 59.28 97.76
  C 62.84 94.84 60.79 91.13 58.57 88.36
  Q 57.25 86.71 54.32 86.08
  Q 46.68 84.44 39.52 83.37
  A 0.29 0.28 8.0 0 0 39.19 83.61
  Q 38.04 90.55 37.32 97.23
  Q 37.29 97.50 37.46 97.73
  Q 37.51 97.80 37.59 97.78
  Q 38.13 97.66 37.93 98.21"
/>
<path stroke="#f6c285" vector-effect="non-scaling-stroke" d="
  M 100.0509 85.7727
  A 1.14 0.98 96.5 0 0 101.1537 84.7509
  A 1.14 0.98 96.5 0 0 100.3091 83.5073
  A 1.14 0.98 96.5 0 0 99.2063 84.5291
  A 1.14 0.98 96.5 0 0 100.0509 85.7727"
/>
<path stroke="#f6c285" vector-effect="non-scaling-stroke" d="
  M 96.2318 84.5001
  A 2.44 0.79 -4.7 0 0 93.7353 83.9127
  A 2.44 0.79 -4.7 0 0 91.3682 84.8999
  A 2.44 0.79 -4.7 0 0 93.8647 85.4873
  A 2.44 0.79 -4.7 0 0 96.2318 84.5001"
/>
<path stroke="#f6c285" vector-effect="non-scaling-stroke" d="
  M 121.8015 86.3704
  A 1.38 0.52 55.0 0 0 121.4360 84.9417
  A 1.38 0.52 55.0 0 0 120.2185 84.1096
  A 1.38 0.52 55.0 0 0 120.5840 85.5383
  A 1.38 0.52 55.0 0 0 121.8015 86.3704"
/>
<path stroke="#f6c285" vector-effect="non-scaling-stroke" d="
  M 85.3420 93.3764
  A 1.63 0.47 93.8 0 0 85.9190 91.7811
  A 1.63 0.47 93.8 0 0 85.5580 90.1236
  A 1.63 0.47 93.8 0 0 84.9810 91.7189
  A 1.63 0.47 93.8 0 0 85.3420 93.3764"
/>
<path stroke="#f6c285" vector-effect="non-scaling-stroke" d="
  M 126.7692 91.4821
  A 0.89 0.89 0.0 0 0 125.8715 90.5999
  L 123.5516 90.6202
  A 0.89 0.89 0.0 0 0 122.6694 91.5179
  L 122.6708 91.6779
  A 0.89 0.89 0.0 0 0 123.5685 92.5601
  L 125.8884 92.5398
  A 0.89 0.89 0.0 0 0 126.7706 91.6421
  L 126.7692 91.4821"
/>
<path stroke="#f6c285" vector-effect="non-scaling-stroke" d="
  M 177.6100 91.6471
  A 1.69 0.73 -0.1 0 0 175.9187 90.9200
  A 1.69 0.73 -0.1 0 0 174.2300 91.6529
  A 1.69 0.73 -0.1 0 0 175.9213 92.3800
  A 1.69 0.73 -0.1 0 0 177.6100 91.6471"
/>
<path stroke="#f0af89" vector-effect="non-scaling-stroke" d="
  M 126.10 106.94
  Q 128.44 108.83 131.29 109.69
  Q 136.35 111.24 141.71 112.55
  A 1.87 1.87 0.0 0 0 143.67 111.83
  Q 147.29 106.82 148.38 100.52
  Q 148.77 98.29 146.87 96.46"
/>
<path stroke="#f4c09f" vector-effect="non-scaling-stroke" d="
  M 146.87 96.46
  Q 140.41 94.26 133.48 93.52
  Q 130.92 93.25 129.69 95.71
  Q 127.13 100.84 126.26 105.26
  Q 126.00 106.58 126.10 106.94"
/>
<path stroke="#ed988f" vector-effect="non-scaling-stroke" d="
  M 146.87 96.46
  Q 144.80 98.30 142.24 98.74
  C 139.12 99.29 133.77 99.70 131.33 101.82
  Q 130.08 102.91 126.10 106.94"
/>
<path stroke="#f6c285" vector-effect="non-scaling-stroke" d="
  M 76.0961 96.0802
  A 1.37 0.66 74.5 0 0 76.3660 94.5836
  A 1.37 0.66 74.5 0 0 75.3639 93.4398
  A 1.37 0.66 74.5 0 0 75.0940 94.9364
  A 1.37 0.66 74.5 0 0 76.0961 96.0802"
/>
<path stroke="#f6c285" vector-effect="non-scaling-stroke" d="
  M 153.18 97.55
  A 0.29 0.28 -49.1 0 0 153.71 97.51
  Q 154.37 95.43 153.20 94.62
  Q 152.32 94.00 152.45 95.07
  Q 152.60 96.27 153.18 97.55"
/>
<path stroke="#f0af89" vector-effect="non-scaling-stroke" d="
  M 80.31 95.90
  Q 79.86 96.54 80.60 96.99
  A 0.52 0.52 0.0 0 0 81.38 96.65
  Q 81.46 96.20 81.13 95.85
  A 0.53 0.53 0.0 0 0 80.31 95.90"
/>
<path stroke="#f0af89" vector-effect="non-scaling-stroke" d="
  M 88.37 108.08
  A 4.18 4.18 0.0 0 0 91.71 103.55
  L 91.35 99.93
  A 4.18 4.18 0.0 0 0 85.74 96.43
  L 80.30 98.44
  A 4.18 4.18 0.0 0 0 77.64 103.17
  L 78.17 105.83
  A 4.18 4.18 0.0 0 0 83.08 109.12
  L 88.37 108.08"
/>
<path stroke="#f6c285" vector-effect="non-scaling-stroke" d="
  M 95.3748 101.1062
  A 2.04 0.70 53.8 0 0 94.7349 99.0466
  A 2.04 0.70 53.8 0 0 92.9652 97.8138
  A 2.04 0.70 53.8 0 0 93.6051 99.8734
  A 2.04 0.70 53.8 0 0 95.3748 101.1062"
/>
<path stroke="#f0af89" vector-effect="non-scaling-stroke" d="
  M 169.55 119.19
  C 169.66 112.73 170.46 107.04 172.34 100.85
  A 1.88 1.88 0.0 0 0 170.48 98.42
  C 167.02 98.53 158.24 100.67 157.65 105.36
  Q 156.82 111.86 159.11 117.98
  C 160.38 121.37 165.10 120.93 168.08 120.73
  A 1.57 1.56 -1.4 0 0 169.55 119.19"
/>
<path stroke="#f6c285" vector-effect="non-scaling-stroke" d="
  M 103.3015 105.5535
  A 2.40 0.88 21.6 0 0 101.3939 103.8518
  A 2.40 0.88 21.6 0 0 98.8385 103.7865
  A 2.40 0.88 21.6 0 0 100.7461 105.4882
  A 2.40 0.88 21.6 0 0 103.3015 105.5535"
/>
<path stroke="#f6c285" vector-effect="non-scaling-stroke" d="
  M 97.8761 107.2832
  A 1.71 1.06 67.8 0 0 98.2114 105.2995
  A 1.71 1.06 67.8 0 0 96.5839 104.1168
  A 1.71 1.06 67.8 0 0 96.2486 106.1005
  A 1.71 1.06 67.8 0 0 97.8761 107.2832"
/>
<path stroke="#f6c285" vector-effect="non-scaling-stroke" d="
  M 123.9524 109.5064
  A 1.51 0.59 57.0 0 0 123.6248 107.9187
  A 1.51 0.59 57.0 0 0 122.3076 106.9736
  A 1.51 0.59 57.0 0 0 122.6352 108.5613
  A 1.51 0.59 57.0 0 0 123.9524 109.5064"
/>
<path stroke="#f8dfa6" vector-effect="non-scaling-stroke" d="
  M 116.13 109.33
  Q 113.64 108.16 110.92 109.16
  A 1.72 1.71 -22.0 0 0 109.94 111.47
  Q 110.92 113.65 113.26 114.29
  Q 117.91 115.57 122.09 117.37
  Q 123.55 118.00 125.03 119.39
  A 0.82 0.81 -67.0 0 0 126.40 118.83
  Q 126.43 118.28 126.15 117.82
  Q 123.04 112.59 116.13 109.33"
/>
<path stroke="#f6c285" vector-effect="non-scaling-stroke" d="
  M 81.0735 111.5818
  A 1.58 0.74 37.5 0 0 80.2705 110.0329
  A 1.58 0.74 37.5 0 0 78.5665 109.6582
  A 1.58 0.74 37.5 0 0 79.3695 111.2071
  A 1.58 0.74 37.5 0 0 81.0735 111.5818"
/>
<path stroke="#f6c285" vector-effect="non-scaling-stroke" d="
  M 100.52 112.24
  Q 101.82 113.53 103.58 113.04
  A 0.36 0.35 51.6 0 0 103.65 112.39
  L 100.53 110.64
  A 0.68 0.67 5.1 0 0 99.56 111.45
  Q 99.71 111.86 100.12 112.00
  Q 100.35 112.07 100.52 112.24"
/>
<path stroke="#f6c285" vector-effect="non-scaling-stroke" d="
  M 134.63 114.12
  Q 135.03 114.49 135.51 114.33
  A 0.55 0.55 0.0 0 0 135.52 113.29
  Q 134.65 112.97 133.79 113.21
  Q 133.06 113.41 133.68 113.83
  Q 134.13 114.14 134.63 114.12"
/>
<path stroke="#fbd288" vector-effect="non-scaling-stroke" d="
  M 84.54 140.71
  Q 83.34 143.61 83.89 146.95
  Q 84.00 147.62 84.64 147.41
  Q 87.46 146.46 90.51 147.19
  A 0.68 0.68 0.0 0 1 90.80 148.36
  C 88.61 150.29 86.04 150.95 83.63 152.78
  Q 82.21 153.86 80.35 154.98
  Q 76.60 157.22 73.35 159.72
  Q 70.27 162.09 74.09 161.34
  C 75.03 161.16 76.04 161.12 76.98 161.40
  C 81.00 162.62 84.88 164.17 89.13 164.65
  Q 96.49 165.49 102.75 165.49
  Q 105.11 165.49 107.49 164.73
  Q 109.99 163.94 112.02 162.69
  Q 112.83 162.20 113.29 161.35
  Q 114.45 159.20 112.21 160.16
  Q 108.00 161.94 103.98 162.50
  Q 99.63 163.11 96.13 161.29
  C 92.49 159.40 93.91 154.17 95.91 151.80
  Q 97.43 149.99 99.31 148.23
  Q 99.93 147.64 99.88 146.78
  Q 99.76 144.66 98.05 144.33
  Q 97.50 144.23 97.03 144.52
  Q 94.50 146.08 92.09 146.13
  Q 91.54 146.14 91.25 145.68
  Q 89.93 143.56 88.61 141.66
  Q 87.15 139.55 85.08 140.21"
/>
<path stroke="#f8dfa6" vector-effect="non-scaling-stroke" d="
  M 85.08 140.21
  Q 85.08 137.73 85.09 135.26
  Q 85.10 132.56 85.71 130.21
  Q 87.04 125.05 89.40 122.03
  Q 92.20 118.43 96.27 115.32
  Q 96.67 115.01 96.66 114.51
  Q 96.66 114.25 96.56 114.01
  Q 96.35 113.46 95.77 113.57
  C 89.96 114.62 85.00 119.57 82.53 124.66
  Q 78.72 132.52 82.87 140.23
  Q 83.39 141.21 84.54 140.71"
/>
<path stroke="#fbda95" vector-effect="non-scaling-stroke" d="
  M 85.08 140.21
  Q 84.44 140.50 84.54 140.71"
/>
<path stroke="#f0af89" vector-effect="non-scaling-stroke" d="
  M 46.18 132.89
  Q 47.22 134.71 49.37 134.64
  C 52.93 134.51 59.27 134.23 59.80 129.59
  Q 60.36 124.73 59.44 118.74
  Q 58.93 115.37 55.71 115.25
  Q 50.37 115.04 44.26 114.94
  C 42.87 114.92 41.30 115.08 40.92 116.72
  C 39.76 121.67 43.85 128.79 46.18 132.89"
/>
<path stroke="#f6c285" vector-effect="non-scaling-stroke" d="
  M 111.8398 116.3115
  A 1.89 0.79 -23.0 0 0 109.7913 116.3228
  A 1.89 0.79 -23.0 0 0 108.3602 117.7885
  A 1.89 0.79 -23.0 0 0 110.4087 117.7772
  A 1.89 0.79 -23.0 0 0 111.8398 116.3115"
/>
<path stroke="#f6c285" vector-effect="non-scaling-stroke" d="
  M 130.27 121.11
  L 133.91 118.26
  A 0.19 0.19 0.0 0 0 133.94 118.00
  L 133.90 117.94
  A 2.25 1.26 -38.1 0 0 131.35 118.34
  L 130.95 118.65
  A 2.25 1.26 -38.1 0 0 129.96 121.03
  L 130.00 121.08
  A 0.19 0.19 0.0 0 0 130.27 121.11"
/>
<path stroke="#f8dfa6" vector-effect="non-scaling-stroke" d="
  M 154.34 138.01
  Q 152.68 140.34 151.56 142.84
  Q 151.28 143.46 151.38 143.93
  Q 151.55 144.76 152.41 144.88
  A 0.92 0.92 0.0 0 0 153.21 144.58
  L 158.44 138.59"
/>
<path stroke="#f6c285" vector-effect="non-scaling-stroke" d="
  M 158.44 138.59
  Q 163.58 139.55 163.11 135.24"
/>
<path stroke="#f8dfa6" vector-effect="non-scaling-stroke" d="
  M 163.11 135.24
  Q 164.29 134.10 165.24 133.79
  C 167.05 133.21 171.60 131.84 172.73 130.41
  Q 173.42 129.54 173.29 128.36
  A 1.33 1.33 0.0 0 0 171.76 127.20
  Q 166.29 128.10 160.16 132.44"
/>
<path stroke="#f5cc5e" vector-effect="non-scaling-stroke" d="
  M 160.16 132.44
  Q 160.94 131.18 161.23 130.36
  Q 161.56 129.45 160.96 128.75
  Q 157.10 124.23 153.51 120.39
  A 1.77 1.76 -41.5 0 0 151.08 120.25
  Q 146.67 124.00 142.42 128.93
  C 140.40 131.27 140.77 135.98 143.76 137.43
  C 146.95 138.97 150.88 138.76 154.34 138.01"
/>
<path stroke="#f6d46b" vector-effect="non-scaling-stroke" d="
  M 160.16 132.44
  Q 157.28 134.28 154.34 138.01"
/>
<path stroke="#f6ca92" vector-effect="non-scaling-stroke" d="
  M 163.11 135.24
  Q 160.40 136.05 158.44 138.59"
/>
<path stroke="#f4c09f" vector-effect="non-scaling-stroke" d="
  M 105.43 121.29
  Q 104.05 120.35 100.98 120.22"
/>
<path stroke="#f0af89" vector-effect="non-scaling-stroke" d="
  M 100.98 120.22
  L 94.57 120.28
  A 1.76 1.75 10.3 0 0 92.97 121.38
  Q 89.97 128.84 88.00 136.43
  Q 87.78 137.27 88.63 137.15
  Q 89.30 137.06 89.92 136.75
  Q 90.43 136.49 90.89 136.83
  L 94.75 139.61
  A 1.82 1.81 42.8 0 0 96.96 139.53
  C 100.54 136.53 104.22 133.77 107.68 130.59
  C 111.43 127.14 110.06 123.02 105.43 121.29"
/>
<path stroke="#ed988f" vector-effect="non-scaling-stroke" d="
  M 100.98 120.22
  Q 100.89 120.70 101.54 120.62
  Q 101.62 120.61 101.64 120.69
  Q 101.68 120.84 101.60 120.93
  Q 101.52 121.02 101.40 121.04
  Q 99.24 121.47 97.08 121.67
  Q 94.79 121.88 93.66 123.23
  Q 92.55 124.56 92.16 126.54
  Q 91.83 128.17 91.24 129.71
  Q 90.36 132.03 90.42 134.70
  A 0.67 0.67 0.0 0 0 91.38 135.29
  C 92.69 134.66 93.31 132.91 93.83 131.61
  C 94.62 129.64 96.28 128.22 98.34 127.81
  Q 101.77 127.12 104.48 125.43
  Q 106.26 124.32 105.43 121.29"
/>
<path stroke="#f6c285" vector-effect="non-scaling-stroke" d="
  M 112.8790 126.8781
  A 1.88 0.74 125.1 0 0 114.5654 125.7655
  A 1.88 0.74 125.1 0 0 115.0410 123.8019
  A 1.88 0.74 125.1 0 0 113.3546 124.9145
  A 1.88 0.74 125.1 0 0 112.8790 126.8781"
/>
<path stroke="#f6c285" vector-effect="non-scaling-stroke" d="
  M 123.20 133.36
  Q 122.78 133.39 122.47 133.58
  Q 121.93 133.90 122.39 134.33
  Q 123.91 135.76 126.20 135.79
  A 1.11 1.10 -70.8 0 0 127.10 135.35
  Q 127.62 134.63 126.87 133.96"
/>
<path stroke="#f8dfa6" vector-effect="non-scaling-stroke" d="
  M 126.87 133.96
  L 138.77 124.78
  A 0.50 0.50 0.0 0 0 138.53 123.89
  Q 131.58 123.05 128.13 127.96
  C 126.98 129.60 125.54 130.35 123.92 131.41
  Q 122.79 132.14 123.20 133.36"
/>
<path stroke="#f6ca92" vector-effect="non-scaling-stroke" d="
  M 126.87 133.96
  Q 125.93 134.52 123.20 133.36"
/>
<path stroke="#f6c285" vector-effect="non-scaling-stroke" d="
  M 127.64 126.08
  Q 128.00 126.10 128.23 125.82
  A 0.50 0.50 0.0 0 0 128.13 125.10
  Q 126.73 124.06 125.43 124.98
  Q 124.43 125.69 125.44 126.38
  Q 126.34 127.00 127.12 126.27
  Q 127.34 126.06 127.64 126.08"
/>
<path stroke="#f6c285" vector-effect="non-scaling-stroke" d="
  M 119.9403 127.4169
  A 1.05 0.74 108.3 0 0 120.9726 126.6524
  A 1.05 0.74 108.3 0 0 120.5997 125.4231
  A 1.05 0.74 108.3 0 0 119.5674 126.1876
  A 1.05 0.74 108.3 0 0 119.9403 127.4169"
/>
<path stroke="#f5cc5e" vector-effect="non-scaling-stroke" d="
  M 79.28 137.90
  C 78.56 134.44 79.11 131.81 75.77 129.39
  C 74.37 128.38 72.66 127.24 71.04 128.69
  C 68.86 130.64 67.37 133.15 65.30 135.16
  Q 61.14 139.18 57.95 143.85
  C 55.45 147.50 58.61 150.97 61.50 152.96
  C 63.84 154.57 67.03 153.84 69.74 153.73
  Q 70.03 153.71 70.27 153.87
  A 0.68 0.67 -43.0 0 0 71.01 153.89
  L 80.01 148.37
  Q 80.39 148.13 80.38 147.69
  Q 80.37 143.05 79.28 137.90"
/>
<path stroke="#f6c285" vector-effect="non-scaling-stroke" d="
  M 113.9014 133.3336
  A 1.96 0.88 9.8 0 0 112.1198 132.1328
  A 1.96 0.88 9.8 0 0 110.0386 132.6664
  A 1.96 0.88 9.8 0 0 111.8202 133.8672
  A 1.96 0.88 9.8 0 0 113.9014 133.3336"
/>
<path stroke="#f0af89" vector-effect="non-scaling-stroke" d="
  M 143.86 150.39
  C 147.13 148.26 144.97 144.63 142.97 142.69
  C 140.78 140.56 136.59 135.86 133.58 135.14
  A 2.26 2.26 0.0 0 0 130.92 136.55
  Q 130.03 138.93 130.34 141.51
  Q 131.02 147.17 132.01 152.71
  Q 132.36 154.67 134.30 154.24
  C 137.48 153.54 141.06 152.22 143.86 150.39"
/>
<path stroke="#f5cc5e" vector-effect="non-scaling-stroke" d="
  M 115.92 138.59
  Q 108.17 144.80 102.50 150.12
  C 101.07 151.47 97.83 155.93 99.68 157.91
  Q 100.23 158.50 101.06 158.42
  Q 110.09 157.58 117.37 156.51
  Q 121.78 155.87 123.38 151.60
  C 124.16 149.52 124.53 147.32 123.03 145.44
  Q 120.43 142.19 117.45 138.73
  Q 116.75 137.93 115.92 138.59"
/>
<path stroke="#f6c285" vector-effect="non-scaling-stroke" d="
  M 55.2270 139.2542
  A 2.38 0.61 -25.0 0 0 52.8122 139.7072
  A 2.38 0.61 -25.0 0 0 50.9130 141.2658
  A 2.38 0.61 -25.0 0 0 53.3278 140.8128
  A 2.38 0.61 -25.0 0 0 55.2270 139.2542"
/>
<path stroke="#f6c285" vector-effect="non-scaling-stroke" d="
  M 106.3109 141.4191
  A 2.18 0.79 -18.2 0 0 103.9933 141.3495
  A 2.18 0.79 -18.2 0 0 102.1691 142.7809
  A 2.18 0.79 -18.2 0 0 104.4867 142.8505
  A 2.18 0.79 -18.2 0 0 106.3109 141.4191"
/>
<path stroke="#f6c285" vector-effect="non-scaling-stroke" d="
  M 116.3676 163.2682
  A 1.33 0.61 63.3 0 0 116.3150 161.8059
  A 1.33 0.61 63.3 0 0 115.1724 160.8918
  A 1.33 0.61 63.3 0 0 115.2250 162.3541
  A 1.33 0.61 63.3 0 0 116.3676 163.2682"
/>
<path stroke="#f6ca92" vector-effect="non-scaling-stroke" d="
  M 63.3597 43.7493
  A 1.61 0.64 -17.0 0 0 61.6329 43.6080
  A 1.61 0.64 -17.0 0 0 60.2803 44.6907
  A 1.61 0.64 -17.0 0 0 62.0071 44.8320
  A 1.61 0.64 -17.0 0 0 63.3597 43.7493"
/>
<path stroke="#ed988f" vector-effect="non-scaling-stroke" d="
  M 144.92 59.11
  Q 145.27 61.09 146.51 62.60
  C 148.20 64.66 151.24 62.60 150.18 60.16
  C 149.17 57.83 150.53 55.59 152.92 54.96
  A 1.35 1.35 0.0 0 1 154.50 55.74
  L 155.95 59.16
  A 2.88 2.84 89.9 0 0 157.44 60.66
  Q 158.15 60.97 158.87 60.97
  Q 160.22 60.97 159.63 59.75
  C 158.22 56.83 153.89 49.90 149.97 53.36
  Q 147.50 55.54 145.41 57.58
  Q 144.76 58.22 144.92 59.11"
/>
<path stroke="#ed988f" vector-effect="non-scaling-stroke" d="
  M 40.80 64.08
  Q 39.72 67.97 40.26 72.07
  Q 40.57 74.48 42.74 73.38
  Q 42.99 73.25 43.21 73.08
  Q 45.03 71.60 44.47 69.32
  Q 43.93 67.13 44.57 65.36
  Q 44.97 64.28 46.03 64.79
  Q 46.43 64.98 46.44 65.42
  Q 46.45 66.05 46.78 66.61
  Q 47.45 67.78 48.16 66.63
  Q 49.39 64.64 49.27 62.36
  A 1.85 1.84 85.1 0 0 47.21 60.62
  Q 44.36 60.97 42.17 62.29
  A 3.01 2.99 -7.8 0 0 40.80 64.08"
/>
<path stroke="#ed988f" vector-effect="non-scaling-stroke" d="
  M 59.49 78.83
  Q 62.44 83.41 66.00 87.10
  Q 67.49 88.63 67.44 86.50
  Q 67.36 82.86 69.11 78.30
  Q 69.96 76.10 69.42 73.74
  A 2.37 2.36 -15.7 0 0 66.36 72.03
  Q 62.34 73.38 59.50 77.74
  Q 59.14 78.28 59.49 78.83"
/>
<path stroke="#ed988f" vector-effect="non-scaling-stroke" d="
  M 42.22 118.93
  L 47.42 131.76
  Q 47.70 132.44 48.33 132.82
  Q 49.24 133.36 49.64 132.97
  Q 50.52 132.13 49.97 131.05
  Q 47.93 126.95 48.06 122.30
  A 1.08 1.08 0.0 0 1 49.57 121.35
  C 51.57 122.23 57.09 122.90 56.97 119.45
  A 1.12 1.11 -2.1 0 0 55.81 118.38
  C 53.01 118.48 50.15 118.44 47.45 117.63
  Q 45.55 117.06 43.65 116.94
  A 1.45 1.44 80.8 0 0 42.22 118.93"
/>
</g>
<path fill="#fec25f" d="
  M 83.14 0.00
  L 129.52 0.00
  Q 148.01 6.64 167.13 17.62
  Q 177.36 23.51 181.39 30.86
  Q 185.07 47.78 192.32 62.54
  Q 192.32 62.54 192.87 63.33
  Q 193.16 63.76 193.14 64.34
  A 1.46 1.44 27.2 0 0 193.45 65.29
  Q 195.33 67.64 195.86 70.51
  Q 196.37 73.23 196.66 76.15
  C 197.44 83.82 196.21 91.73 196.58 99.50
  Q 196.93 106.87 197.07 114.90
  Q 197.29 127.38 190.36 137.03
  Q 190.03 137.47 189.90 138.03
  C 189.74 138.68 188.87 139.20 188.44 139.82
  Q 185.76 143.64 182.40 147.21
  C 180.82 148.88 179.68 150.88 177.92 152.37
  Q 170.24 158.86 163.76 164.90
  Q 162.82 165.78 162.13 166.76
  Q 161.39 167.81 160.40 168.47
  Q 158.89 169.48 157.63 170.67
  Q 155.39 172.81 152.98 174.23
  Q 147.94 177.18 141.45 179.86
  C 139.07 180.84 136.54 181.32 134.13 182.21
  C 131.72 183.10 129.15 183.27 126.87 184.44
  Q 126.36 184.70 126.20 185.28
  A 0.76 0.75 6.5 0 1 125.48 185.85
  L 122.68 185.89
  Q 122.17 185.90 121.79 186.23
  Q 121.57 186.43 121.26 186.41
  Q 115.88 186.18 115.93 189.91
  C 104.91 191.41 94.39 190.10 83.13 187.74
  Q 70.05 185.00 60.40 180.37
  C 48.68 174.75 40.93 164.37 30.83 156.40
  C 19.55 147.51 9.58 136.35 8.37 121.46
  Q 7.72 113.57 8.16 107.75
  Q 8.83 98.97 8.91 95.52
  Q 9.06 99.67 9.11 103.79
  Q 9.13 105.31 9.58 106.72
  Q 10.08 108.25 10.06 109.73
  Q 10.05 111.99 10.51 114.34
  Q 10.72 115.41 10.94 116.49
  Q 12.97 126.52 17.49 133.82
  Q 17.89 134.47 18.71 134.44
  A 1.04 1.04 0.0 0 0 19.68 133.23
  Q 19.35 131.29 19.13 129.57
  Q 18.90 127.75 18.21 125.69
  Q 14.64 114.99 13.62 106.78
  C 13.06 102.19 12.96 95.90 14.57 91.27
  Q 15.31 89.14 15.73 87.16
  Q 16.35 84.18 17.46 81.47
  C 18.19 79.70 18.27 77.98 18.77 76.19
  Q 19.25 74.47 19.41 72.72
  Q 20.01 66.19 21.39 60.13
  Q 23.90 49.16 31.69 41.48
  Q 34.41 38.81 36.52 35.83
  Q 40.36 30.42 45.30 25.59
  Q 50.16 20.84 56.79 18.45
  Q 64.36 15.71 70.10 11.44
  Q 71.48 10.41 71.11 8.74
  Q 71.00 8.25 70.59 7.98
  L 67.33 5.77
  L 83.14 0.00
  Z
  M 20.07 94.12
  Q 18.22 100.97 18.93 107.91
  C 19.37 112.22 21.31 116.66 22.73 120.85
  C 25.11 127.89 25.58 136.70 31.04 142.19
  Q 38.17 149.36 42.30 156.06
  C 45.76 161.67 49.80 165.65 55.75 168.16
  Q 62.51 171.01 70.56 173.81
  C 82.40 177.93 90.18 180.56 101.04 180.58
  Q 100.52 181.54 101.27 181.95
  Q 101.75 182.22 101.75 182.77
  L 101.73 184.09
  A 1.66 1.65 -83.3 0 0 103.01 185.72
  Q 105.31 186.24 107.32 185.61
  C 116.70 182.62 126.29 180.24 135.79 177.37
  Q 140.62 175.91 142.74 174.92
  C 143.61 174.52 144.62 174.47 145.48 174.08
  Q 151.56 171.32 156.91 167.76
  Q 157.12 167.62 157.25 167.40
  Q 157.49 167.01 157.93 166.88
  Q 159.45 166.43 160.45 165.19
  Q 162.24 162.97 164.39 161.18
  Q 166.46 159.47 168.28 157.44
  Q 170.08 155.43 172.05 153.53
  Q 177.69 148.05 183.00 142.69
  Q 186.15 139.52 189.87 135.15
  Q 190.73 134.15 191.38 133.10
  Q 192.06 132.01 192.67 130.99
  Q 193.39 129.79 193.10 128.25
  A 1.17 1.17 0.0 0 0 191.25 127.52
  C 188.62 129.46 187.65 132.30 185.28 134.61
  C 183.41 136.43 181.99 138.56 179.93 140.16
  Q 176.81 142.59 173.46 145.17
  Q 169.34 148.34 165.97 151.40
  Q 164.09 153.11 162.77 155.37
  Q 159.45 161.07 155.99 163.76
  Q 153.50 165.70 149.06 166.26
  Q 155.87 159.87 161.71 151.36
  Q 165.01 150.28 167.14 147.89
  Q 171.60 142.90 176.53 138.38
  Q 176.68 138.25 176.63 138.05
  Q 176.60 137.94 176.52 137.82
  Q 178.56 136.11 180.34 134.09
  Q 186.65 126.92 185.91 117.01
  Q 185.43 110.67 185.86 105.49
  C 186.37 99.28 188.93 93.16 189.44 86.86
  Q 189.88 81.39 187.13 72.71
  C 181.97 56.48 177.36 44.29 164.47 34.52
  Q 156.50 28.48 148.14 23.12
  Q 148.43 22.27 148.92 21.72
  Q 149.27 21.32 149.74 21.57
  Q 154.69 24.25 159.88 24.36
  A 0.53 0.53 0.0 0 0 160.34 23.55
  Q 159.91 22.87 159.23 22.45
  Q 149.90 16.61 142.77 12.86
  Q 127.80 4.99 111.11 4.23
  C 108.92 4.13 106.89 4.96 104.74 5.06
  Q 95.00 5.54 86.90 8.54
  Q 82.43 10.20 78.06 11.43
  Q 72.69 12.94 67.57 15.57
  Q 66.51 16.12 65.52 16.29
  Q 64.50 16.47 63.70 17.17
  Q 63.27 17.55 62.71 17.65
  Q 60.39 18.08 58.76 20.27
  C 58.05 21.24 56.61 21.32 55.77 22.07
  C 52.94 24.58 50.04 26.90 47.49 29.73
  Q 45.30 32.16 43.19 34.44
  Q 38.53 39.48 32.42 48.64
  Q 30.55 51.45 29.01 55.04
  C 26.71 60.41 23.58 65.94 21.75 71.00
  Q 21.29 72.28 20.41 76.31
  C 20.20 77.32 19.49 78.04 19.83 79.13
  A 0.76 0.76 0.0 0 1 19.76 79.72
  Q 18.61 81.75 18.78 84.00
  Q 18.86 85.03 18.57 86.06
  Q 18.13 87.67 18.17 89.35
  Q 18.21 90.48 19.21 90.94
  Q 19.69 91.16 19.52 91.66
  Q 18.92 93.41 20.07 94.12
  Z"
/>
<path fill="#fcb057" d="
  M 148.14 23.12
  Q 143.28 20.24 138.63 17.10
  Q 135.37 14.91 129.38 13.31
  Q 125.01 12.15 119.66 12.03
  Q 104.17 11.70 92.60 12.67
  C 76.31 14.04 57.90 19.16 50.59 35.08
  C 48.21 40.26 46.24 45.61 42.34 49.81
  Q 39.47 52.90 36.43 55.91
  Q 25.80 66.40 22.50 81.32
  Q 21.11 87.59 20.07 94.12
  Q 18.92 93.41 19.52 91.66
  Q 19.69 91.16 19.21 90.94
  Q 18.21 90.48 18.17 89.35
  Q 18.13 87.67 18.57 86.06
  Q 18.86 85.03 18.78 84.00
  Q 18.61 81.75 19.76 79.72
  A 0.76 0.76 0.0 0 0 19.83 79.13
  C 19.49 78.04 20.20 77.32 20.41 76.31
  Q 21.29 72.28 21.75 71.00
  C 23.58 65.94 26.71 60.41 29.01 55.04
  Q 30.55 51.45 32.42 48.64
  Q 38.53 39.48 43.19 34.44
  Q 45.30 32.16 47.49 29.73
  C 50.04 26.90 52.94 24.58 55.77 22.07
  C 56.61 21.32 58.05 21.24 58.76 20.27
  Q 60.39 18.08 62.71 17.65
  Q 63.27 17.55 63.70 17.17
  Q 64.50 16.47 65.52 16.29
  Q 66.51 16.12 67.57 15.57
  Q 72.69 12.94 78.06 11.43
  Q 82.43 10.20 86.90 8.54
  Q 95.00 5.54 104.74 5.06
  C 106.89 4.96 108.92 4.13 111.11 4.23
  Q 127.80 4.99 142.77 12.86
  Q 149.90 16.61 159.23 22.45
  Q 159.91 22.87 160.34 23.55
  A 0.53 0.53 0.0 0 1 159.88 24.36
  Q 154.69 24.25 149.74 21.57
  Q 149.27 21.32 148.92 21.72
  Q 148.43 22.27 148.14 23.12
  Z"
/>
<path fill="#fecd76" d="
  M 67.33 5.77
  L 70.59 7.98
  Q 71.00 8.25 71.11 8.74
  Q 71.48 10.41 70.10 11.44
  Q 64.36 15.71 56.79 18.45
  Q 50.16 20.84 45.30 25.59
  Q 40.36 30.42 36.52 35.83
  Q 34.41 38.81 31.69 41.48
  Q 23.90 49.16 21.39 60.13
  Q 20.01 66.19 19.41 72.72
  Q 19.25 74.47 18.77 76.19
  C 18.27 77.98 18.19 79.70 17.46 81.47
  Q 16.35 84.18 15.73 87.16
  Q 15.31 89.14 14.57 91.27
  C 12.96 95.90 13.06 102.19 13.62 106.78
  Q 14.64 114.99 18.21 125.69
  Q 18.90 127.75 19.13 129.57
  Q 19.35 131.29 19.68 133.23
  A 1.04 1.04 0.0 0 1 18.71 134.44
  Q 17.89 134.47 17.49 133.82
  Q 12.97 126.52 10.94 116.49
  Q 10.72 115.41 10.51 114.34
  Q 10.05 111.99 10.06 109.73
  Q 10.08 108.25 9.58 106.72
  Q 9.13 105.31 9.11 103.79
  Q 9.06 99.67 8.91 95.52
  Q 9.70 82.76 11.17 69.98
  C 13.17 52.65 22.57 40.72 34.12 28.11
  Q 47.87 13.11 67.33 5.77
  Z"
/>
<path fill="#ba3926" d="
  M 148.14 23.12
  Q 156.50 28.48 164.47 34.52
  C 177.36 44.29 181.97 56.48 187.13 72.71
  Q 189.88 81.39 189.44 86.86
  C 188.93 93.16 186.37 99.28 185.86 105.49
  Q 185.43 110.67 185.91 117.01
  Q 186.65 126.92 180.34 134.09
  Q 178.56 136.11 176.52 137.82
  Q 176.80 138.12 176.31 137.94
  A 0.19 0.19 0.0 0 1 176.26 137.61
  Q 176.43 137.50 176.36 137.28
  A 0.42 0.40 -33.7 0 1 176.45 136.88
  Q 180.97 131.99 180.01 125.44
  C 178.40 114.35 181.15 104.21 183.73 93.28
  Q 185.23 86.95 184.15 77.60
  C 183.67 73.34 181.17 69.49 178.93 65.96
  C 177.62 63.88 176.99 61.25 176.79 58.84
  C 176.33 53.54 175.24 48.34 171.02 45.03
  Q 167.75 42.46 164.15 40.28
  C 158.31 36.75 155.07 32.28 150.91 26.86
  Q 148.55 23.79 143.66 21.68
  Q 141.38 20.12 140.00 19.73
  Q 122.68 14.77 105.40 15.83
  C 97.38 16.32 90.03 16.18 82.38 16.69
  Q 72.03 17.39 63.32 23.86
  Q 61.78 25.01 60.96 26.89
  Q 58.36 32.92 56.10 39.55
  Q 53.63 46.79 46.43 50.41
  C 40.82 53.23 34.99 56.44 33.11 62.82
  Q 28.82 77.35 27.09 91.83
  Q 25.47 105.42 28.55 117.43
  C 30.82 126.23 35.97 133.32 41.58 140.58
  Q 47.68 148.49 51.91 159.83
  C 54.59 167.03 61.11 168.12 67.84 166.98
  Q 76.98 165.44 84.44 168.54
  Q 87.75 169.92 90.85 170.29
  Q 98.46 171.19 105.73 169.78
  Q 116.26 168.84 125.97 166.12
  Q 133.03 164.14 136.81 161.85
  Q 145.33 156.71 149.28 154.78
  Q 154.39 152.30 161.71 151.36
  Q 155.87 159.87 149.06 166.26
  Q 144.94 169.31 139.29 171.29
  C 126.23 175.89 114.24 179.78 101.04 180.58
  C 90.18 180.56 82.40 177.93 70.56 173.81
  Q 62.51 171.01 55.75 168.16
  C 49.80 165.65 45.76 161.67 42.30 156.06
  Q 38.17 149.36 31.04 142.19
  C 25.58 136.70 25.11 127.89 22.73 120.85
  C 21.31 116.66 19.37 112.22 18.93 107.91
  Q 18.22 100.97 20.07 94.12
  Q 21.11 87.59 22.50 81.32
  Q 25.80 66.40 36.43 55.91
  Q 39.47 52.90 42.34 49.81
  C 46.24 45.61 48.21 40.26 50.59 35.08
  C 57.90 19.16 76.31 14.04 92.60 12.67
  Q 104.17 11.70 119.66 12.03
  Q 125.01 12.15 129.38 13.31
  Q 135.37 14.91 138.63 17.10
  Q 143.28 20.24 148.14 23.12
  Z"
/>
<path fill="#f7d799" d="
  M 143.66 21.68
  Q 144.78 22.89 146.08 25.04
  Q 147.51 27.42 150.85 31.56
  Q 153.54 34.90 156.05 36.80
  Q 159.17 39.17 162.37 41.03
  Q 163.39 41.62 166.29 43.94
  Q 169.06 46.15 170.34 48.66
  C 172.78 53.43 171.87 58.86 173.94 63.68
  Q 175.37 67.01 178.05 70.37
  Q 178.82 71.34 179.14 72.57
  C 182.15 84.18 179.04 95.50 176.46 107.02
  C 175.07 113.21 175.15 119.69 175.89 125.97
  Q 176.28 129.29 174.91 131.93
  Q 172.49 136.61 168.08 141.88
  C 163.30 147.60 158.60 149.96 151.60 151.59
  Q 146.11 152.88 141.71 155.56
  Q 133.72 160.43 126.97 163.47
  A 1.38 1.38 0.0 0 1 126.32 163.59
  Q 125.50 163.53 125.02 164.13
  A 1.35 1.33 12.8 0 1 124.24 164.61
  Q 120.05 165.55 115.61 166.94
  Q 114.51 167.29 110.62 168.06
  Q 108.11 168.57 105.73 169.78
  Q 98.46 171.19 90.85 170.29
  Q 87.75 169.92 84.44 168.54
  Q 76.98 165.44 67.84 166.98
  C 61.11 168.12 54.59 167.03 51.91 159.83
  Q 47.68 148.49 41.58 140.58
  C 35.97 133.32 30.82 126.23 28.55 117.43
  Q 25.47 105.42 27.09 91.83
  Q 28.82 77.35 33.11 62.82
  C 34.99 56.44 40.82 53.23 46.43 50.41
  Q 53.63 46.79 56.10 39.55
  Q 58.36 32.92 60.96 26.89
  Q 61.78 25.01 63.32 23.86
  Q 72.03 17.39 82.38 16.69
  C 90.03 16.18 97.38 16.32 105.40 15.83
  Q 122.68 14.77 140.00 19.73
  Q 141.38 20.12 143.66 21.68
  Z
  M 101.18 24.27
  C 102.33 26.18 104.04 30.31 106.75 30.28
  Q 111.02 30.24 116.18 29.11
  C 119.88 28.30 119.59 20.77 116.86 19.14
  Q 115.19 18.14 111.77 18.31
  Q 108.93 17.25 104.51 17.90
  Q 101.93 18.28 100.85 19.46
  Q 99.10 21.37 101.18 24.27
  Z
  M 67.16 24.74
  C 64.62 26.58 63.23 29.85 62.36 32.77
  Q 61.63 35.22 60.67 37.59
  Q 59.40 40.72 57.49 44.55
  Q 56.35 46.83 54.90 48.00
  Q 53.04 49.51 50.84 51.04
  Q 50.05 51.60 49.80 52.46
  A 0.73 0.73 0.0 0 0 50.69 53.37
  C 53.15 52.71 55.08 51.29 57.52 50.65
  Q 60.94 49.75 63.46 48.11
  C 66.92 45.86 67.67 38.49 68.06 34.78
  Q 68.58 29.89 72.09 26.77
  C 73.23 25.76 74.69 25.31 76.01 24.59
  C 78.22 23.39 80.74 23.20 83.12 22.55
  C 85.85 21.81 88.18 22.00 90.82 21.75
  Q 92.01 21.64 92.59 20.51
  Q 92.79 20.11 92.02 19.58
  Q 91.35 19.13 90.54 19.05
  Q 84.06 18.40 76.43 19.67
  Q 74.25 20.03 72.24 21.36
  Q 70.12 22.77 67.74 23.96
  Q 67.54 24.06 67.47 24.29
  Q 67.39 24.57 67.16 24.74
  Z
  M 139.50 36.76
  Q 139.28 31.97 136.02 31.37
  C 133.68 30.94 130.93 31.23 129.20 33.12
  Q 125.05 37.63 121.66 41.45
  A 1.67 1.67 0.0 0 0 121.87 43.86
  Q 126.86 47.88 132.54 52.34
  C 134.88 54.17 138.36 53.90 140.28 51.57
  C 144.36 49.00 145.49 45.52 147.25 40.80
  C 148.16 38.34 148.14 36.17 147.49 33.76
  Q 147.10 32.34 145.77 31.64
  Q 145.31 31.41 145.04 30.97
  Q 142.27 26.44 137.74 24.02
  C 136.29 23.25 134.66 23.82 133.02 23.12
  Q 129.50 21.61 126.21 20.78
  C 121.28 19.52 120.18 24.64 122.17 27.89
  A 1.89 1.88 69.3 0 0 124.10 28.76
  Q 127.13 28.22 129.67 26.81
  C 134.11 24.34 138.43 27.98 141.07 31.33
  Q 142.77 33.50 143.00 35.88
  Q 143.43 40.43 142.13 44.27
  Q 141.96 44.78 141.45 44.95
  Q 140.79 45.17 140.36 44.76
  Q 140.01 44.44 139.98 43.97
  L 139.50 36.76
  Z
  M 77.67 25.22
  Q 76.39 25.91 75.80 27.27
  Q 75.56 27.82 76.00 28.19
  Q 76.20 28.36 76.47 28.34
  Q 77.08 28.30 77.35 27.80
  Q 77.91 26.81 78.12 25.55
  Q 78.23 24.93 77.67 25.22
  Z
  M 93.21 36.78
  C 90.61 37.27 88.13 37.15 85.54 37.63
  Q 83.74 37.97 81.91 38.30
  Q 80.97 38.47 80.74 39.40
  Q 79.61 43.97 83.58 47.12
  Q 85.05 48.28 86.59 47.08
  Q 91.29 43.42 95.93 40.39
  C 97.84 39.14 101.08 36.60 100.29 33.96
  Q 98.69 28.63 93.50 27.90
  Q 88.49 27.19 83.96 26.33
  Q 82.66 26.08 82.49 27.40
  L 81.79 33.03
  A 1.13 1.12 86.8 0 0 83.17 34.27
  C 85.73 33.65 92.19 32.82 93.75 34.83
  Q 94.24 35.47 93.93 36.20
  A 1.00 0.99 -83.6 0 1 93.21 36.78
  Z
  M 121.6200 34.5365
  A 1.94 0.64 -0.4 0 0 119.6755 33.9100
  A 1.94 0.64 -0.4 0 0 117.7400 34.5635
  A 1.94 0.64 -0.4 0 0 119.6845 35.1900
  A 1.94 0.64 -0.4 0 0 121.6200 34.5365
  Z
  M 112.8213 40.4214
  A 1.83 0.65 -5.6 0 0 110.9366 39.9531
  A 1.83 0.65 -5.6 0 0 109.1787 40.7786
  A 1.83 0.65 -5.6 0 0 111.0634 41.2469
  A 1.83 0.65 -5.6 0 0 112.8213 40.4214
  Z
  M 96.96 47.49
  C 96.59 49.12 96.15 50.28 96.66 51.84
  Q 97.74 55.12 98.34 58.38
  Q 98.52 59.35 99.16 60.17
  Q 99.97 61.19 100.74 61.40
  Q 103.25 61.76 104.00 61.47
  Q 109.94 59.24 116.24 58.41
  A 1.46 1.46 0.0 0 0 117.45 56.51
  L 113.37 43.90
  A 2.37 2.36 78.6 0 0 110.92 42.27
  Q 102.31 43.04 96.96 47.49
  Z
  M 142.87 56.44
  Q 142.18 55.54 141.12 54.94
  Q 140.69 54.70 140.38 55.08
  Q 139.96 55.60 140.39 56.12
  Q 141.42 57.35 142.62 58.40
  Q 143.04 58.77 143.22 59.30
  C 144.15 62.13 146.10 66.01 149.56 65.97
  Q 154.46 65.92 159.65 65.63
  Q 161.56 65.53 162.40 64.03
  C 165.26 58.91 159.80 53.77 156.05 50.48
  Q 154.73 49.32 153.33 48.69
  A 2.30 2.29 31.6 0 0 150.61 49.34
  Q 147.52 53.15 143.79 56.52
  Q 143.29 56.98 142.87 56.44
  Z
  M 121.94 50.58
  L 125.06 52.26
  Q 125.75 52.63 125.56 51.87
  C 125.22 50.56 123.43 49.74 122.26 49.38
  Q 121.97 49.29 121.76 49.51
  Q 121.52 49.79 121.62 50.18
  A 0.68 0.65 -84.9 0 0 121.94 50.58
  Z
  M 61.30 53.04
  C 58.37 53.86 56.71 53.66 54.74 56.68
  C 53.74 58.22 54.93 59.29 56.24 59.85
  Q 62.21 62.40 68.25 65.34
  Q 74.92 68.58 79.17 63.72
  Q 80.79 61.88 80.63 59.44
  Q 80.34 55.10 79.44 50.79
  Q 79.31 50.20 78.72 50.21
  Q 76.94 50.22 75.19 50.58
  Q 71.84 51.28 68.15 52.01
  Q 67.04 52.23 65.84 52.32
  Q 64.65 52.41 63.53 52.96
  Q 63.07 53.18 62.57 53.04
  Q 61.93 52.86 61.30 53.04
  Z
  M 88.68 65.67
  C 90.20 62.90 92.11 59.94 94.66 58.70
  A 1.58 1.58 0.0 0 0 95.40 57.96
  Q 96.02 56.68 94.88 55.63
  A 1.11 1.11 0.0 0 0 94.05 55.33
  Q 92.03 55.46 90.69 56.79
  Q 87.40 60.02 85.09 64.71
  C 83.74 67.45 82.44 69.76 82.89 72.90
  Q 83.10 74.37 83.98 73.17
  Q 86.31 70.00 88.68 65.67
  Z
  M 39.96 61.20
  C 37.54 63.00 38.00 69.72 38.46 71.64
  Q 39.03 73.95 41.47 75.39
  A 1.21 1.21 0.0 0 0 42.94 75.22
  Q 45.80 72.47 49.10 70.15
  C 51.60 68.39 52.16 64.03 51.40 61.55
  C 49.84 56.52 42.84 59.05 39.96 61.20
  Z
  M 130.77 61.80
  C 130.35 63.42 131.97 66.31 132.88 67.63
  Q 134.32 69.75 134.44 72.03
  Q 134.65 75.86 134.20 80.29
  Q 134.07 81.53 134.80 82.51
  Q 134.97 82.74 135.25 82.78
  Q 136.60 83.00 136.77 81.64
  Q 137.47 75.94 136.95 69.50
  C 136.67 66.01 134.92 63.05 132.01 61.29
  A 0.84 0.84 0.0 0 0 130.77 61.80
  Z
  M 122.7241 65.5772
  A 1.48 0.63 110.4 0 0 123.8305 64.4096
  A 1.48 0.63 110.4 0 0 123.7559 62.8028
  A 1.48 0.63 110.4 0 0 122.6495 63.9704
  A 1.48 0.63 110.4 0 0 122.7241 65.5772
  Z
  M 104.9739 63.6043
  A 3.45 0.98 -23.5 0 0 101.4192 64.0813
  A 3.45 0.98 -23.5 0 0 98.6461 66.3557
  A 3.45 0.98 -23.5 0 0 102.2008 65.8787
  A 3.45 0.98 -23.5 0 0 104.9739 63.6043
  Z
  M 80.0672 66.8292
  A 1.64 0.72 123.4 0 0 81.5711 65.8563
  A 1.64 0.72 123.4 0 0 81.8728 64.0908
  A 1.64 0.72 123.4 0 0 80.3689 65.0637
  A 1.64 0.72 123.4 0 0 80.0672 66.8292
  Z
  M 117.98 66.78
  Q 119.01 65.84 118.61 64.61
  A 0.71 0.71 0.0 0 0 117.25 64.62
  Q 116.98 65.50 117.16 66.50
  A 0.50 0.49 63.8 0 0 117.98 66.78
  Z
  M 119.47 80.69
  Q 121.99 82.36 126.74 81.29
  C 131.69 80.17 131.65 77.06 130.88 72.90
  Q 130.44 70.50 128.73 68.54
  Q 122.45 65.77 116.47 69.72
  C 113.78 71.50 114.51 73.55 116.21 75.83
  Q 117.88 78.05 119.47 80.69
  Z
  M 145.3264 69.3956
  A 0.61 0.61 0.0 0 0 144.7122 68.7899
  L 144.6522 68.7903
  A 0.61 0.61 0.0 0 0 144.0465 69.4045
  L 144.0736 73.2844
  A 0.61 0.61 0.0 0 0 144.6878 73.8901
  L 144.7478 73.8897
  A 0.61 0.61 0.0 0 0 145.3535 73.2755
  L 145.3264 69.3956
  Z
  M 77.85 74.67
  Q 73.29 73.55 70.50 70.59
  C 68.26 68.23 65.03 69.24 63.02 71.30
  Q 60.35 74.03 57.42 76.44
  A 2.66 2.65 -39.9 0 0 57.08 80.20
  Q 61.01 84.86 64.79 90.16
  C 67.73 94.28 72.06 90.21 74.30 88.04
  C 76.72 85.69 82.04 83.72 82.48 80.02
  Q 82.97 75.92 77.85 74.67
  Z
  M 158.8061 72.0491
  A 1.83 0.81 39.3 0 0 157.9030 70.2632
  A 1.83 0.81 39.3 0 0 155.9739 69.7309
  A 1.83 0.81 39.3 0 0 156.8770 71.5168
  A 1.83 0.81 39.3 0 0 158.8061 72.0491
  Z
  M 109.37 72.25
  Q 109.32 71.86 108.93 71.87
  C 106.01 71.93 103.42 70.88 100.52 71.06
  Q 94.90 71.41 91.83 73.34
  Q 90.56 74.13 86.68 78.06
  C 86.26 78.49 85.86 79.38 85.84 79.89
  A 0.96 0.96 0.0 0 0 87.36 80.72
  Q 97.05 73.77 108.91 74.11
  Q 109.22 74.12 109.29 73.81
  Q 109.45 73.03 109.37 72.25
  Z
  M 160.26 73.33
  Q 155.81 73.93 151.06 73.87
  C 148.63 73.85 146.92 75.38 145.30 77.07
  Q 142.34 80.16 145.47 83.03
  Q 151.59 88.64 157.45 94.31
  C 161.00 97.75 163.18 96.85 166.70 94.18
  Q 169.27 92.23 169.27 89.02
  Q 169.27 81.73 169.39 74.55
  A 1.35 1.35 0.0 0 0 168.05 73.18
  C 165.45 73.17 162.77 72.99 160.26 73.33
  Z
  M 52.5606 77.1696
  A 2.22 0.80 113.9 0 0 54.1914 75.4641
  A 2.22 0.80 113.9 0 0 54.3594 73.1104
  A 2.22 0.80 113.9 0 0 52.7286 74.8159
  A 2.22 0.80 113.9 0 0 52.5606 77.1696
  Z
  M 111.0886 79.0229
  A 0.91 0.77 -15.1 0 0 110.0094 78.5166
  A 0.91 0.77 -15.1 0 0 109.3314 79.4971
  A 0.91 0.77 -15.1 0 0 110.4106 80.0034
  A 0.91 0.77 -15.1 0 0 111.0886 79.0229
  Z
  M 97.5298 83.0986
  A 1.40 0.77 58.1 0 0 97.4437 81.5031
  A 1.40 0.77 58.1 0 0 96.0502 80.7214
  A 1.40 0.77 58.1 0 0 96.1363 82.3169
  A 1.40 0.77 58.1 0 0 97.5298 83.0986
  Z
  M 113.8458 84.0385
  A 1.44 0.67 131.5 0 0 115.3018 83.4040
  A 1.44 0.67 131.5 0 0 115.7542 81.8815
  A 1.44 0.67 131.5 0 0 114.2982 82.5160
  A 1.44 0.67 131.5 0 0 113.8458 84.0385
  Z
  M 96.00 91.30
  Q 96.46 90.02 96.05 88.74
  A 0.38 0.37 -34.1 0 0 95.41 88.62
  Q 94.65 89.50 94.90 90.77
  Q 95.23 92.49 95.02 94.05
  Q 94.86 95.28 95.80 96.08
  Q 99.36 99.13 103.33 101.66
  Q 104.74 102.56 105.94 103.73
  C 107.69 105.45 110.93 105.72 113.31 104.53
  A 1.19 1.18 -12.8 0 0 113.96 103.51
  C 114.01 101.42 113.44 99.41 113.47 97.35
  Q 113.54 91.72 113.01 87.22
  C 112.55 83.26 109.77 83.38 106.69 83.08
  Q 105.47 82.97 104.63 83.73
  Q 101.28 86.77 97.02 92.06
  Q 96.92 92.18 96.78 92.28
  Q 96.46 92.49 96.19 92.21
  Q 95.81 91.82 96.00 91.30
  Z
  M 37.93 98.21
  Q 35.47 104.65 40.00 108.82
  Q 41.84 110.52 43.95 109.10
  Q 52.31 103.48 59.28 97.76
  C 62.84 94.84 60.79 91.13 58.57 88.36
  Q 57.25 86.71 54.32 86.08
  Q 46.68 84.44 39.52 83.37
  A 0.29 0.28 8.0 0 0 39.19 83.61
  Q 38.04 90.55 37.32 97.23
  Q 37.29 97.50 37.46 97.73
  Q 37.51 97.80 37.59 97.78
  Q 38.13 97.66 37.93 98.21
  Z
  M 100.0509 85.7727
  A 1.14 0.98 96.5 0 0 101.1537 84.7509
  A 1.14 0.98 96.5 0 0 100.3091 83.5073
  A 1.14 0.98 96.5 0 0 99.2063 84.5291
  A 1.14 0.98 96.5 0 0 100.0509 85.7727
  Z
  M 96.2318 84.5001
  A 2.44 0.79 -4.7 0 0 93.7353 83.9127
  A 2.44 0.79 -4.7 0 0 91.3682 84.8999
  A 2.44 0.79 -4.7 0 0 93.8647 85.4873
  A 2.44 0.79 -4.7 0 0 96.2318 84.5001
  Z
  M 121.8015 86.3704
  A 1.38 0.52 55.0 0 0 121.4360 84.9417
  A 1.38 0.52 55.0 0 0 120.2185 84.1096
  A 1.38 0.52 55.0 0 0 120.5840 85.5383
  A 1.38 0.52 55.0 0 0 121.8015 86.3704
  Z
  M 85.3420 93.3764
  A 1.63 0.47 93.8 0 0 85.9190 91.7811
  A 1.63 0.47 93.8 0 0 85.5580 90.1236
  A 1.63 0.47 93.8 0 0 84.9810 91.7189
  A 1.63 0.47 93.8 0 0 85.3420 93.3764
  Z
  M 126.7692 91.4821
  A 0.89 0.89 0.0 0 0 125.8715 90.5999
  L 123.5516 90.6202
  A 0.89 0.89 0.0 0 0 122.6694 91.5179
  L 122.6708 91.6779
  A 0.89 0.89 0.0 0 0 123.5685 92.5601
  L 125.8884 92.5398
  A 0.89 0.89 0.0 0 0 126.7706 91.6421
  L 126.7692 91.4821
  Z
  M 177.6100 91.6471
  A 1.69 0.73 -0.1 0 0 175.9187 90.9200
  A 1.69 0.73 -0.1 0 0 174.2300 91.6529
  A 1.69 0.73 -0.1 0 0 175.9213 92.3800
  A 1.69 0.73 -0.1 0 0 177.6100 91.6471
  Z
  M 126.10 106.94
  Q 128.44 108.83 131.29 109.69
  Q 136.35 111.24 141.71 112.55
  A 1.87 1.87 0.0 0 0 143.67 111.83
  Q 147.29 106.82 148.38 100.52
  Q 148.77 98.29 146.87 96.46
  Q 140.41 94.26 133.48 93.52
  Q 130.92 93.25 129.69 95.71
  Q 127.13 100.84 126.26 105.26
  Q 126.00 106.58 126.10 106.94
  Z
  M 76.0961 96.0802
  A 1.37 0.66 74.5 0 0 76.3660 94.5836
  A 1.37 0.66 74.5 0 0 75.3639 93.4398
  A 1.37 0.66 74.5 0 0 75.0940 94.9364
  A 1.37 0.66 74.5 0 0 76.0961 96.0802
  Z
  M 153.18 97.55
  A 0.29 0.28 -49.1 0 0 153.71 97.51
  Q 154.37 95.43 153.20 94.62
  Q 152.32 94.00 152.45 95.07
  Q 152.60 96.27 153.18 97.55
  Z
  M 80.31 95.90
  Q 79.86 96.54 80.60 96.99
  A 0.52 0.52 0.0 0 0 81.38 96.65
  Q 81.46 96.20 81.13 95.85
  A 0.53 0.53 0.0 0 0 80.31 95.90
  Z
  M 88.37 108.08
  A 4.18 4.18 0.0 0 0 91.71 103.55
  L 91.35 99.93
  A 4.18 4.18 0.0 0 0 85.74 96.43
  L 80.30 98.44
  A 4.18 4.18 0.0 0 0 77.64 103.17
  L 78.17 105.83
  A 4.18 4.18 0.0 0 0 83.08 109.12
  L 88.37 108.08
  Z
  M 95.3748 101.1062
  A 2.04 0.70 53.8 0 0 94.7349 99.0466
  A 2.04 0.70 53.8 0 0 92.9652 97.8138
  A 2.04 0.70 53.8 0 0 93.6051 99.8734
  A 2.04 0.70 53.8 0 0 95.3748 101.1062
  Z
  M 169.55 119.19
  C 169.66 112.73 170.46 107.04 172.34 100.85
  A 1.88 1.88 0.0 0 0 170.48 98.42
  C 167.02 98.53 158.24 100.67 157.65 105.36
  Q 156.82 111.86 159.11 117.98
  C 160.38 121.37 165.10 120.93 168.08 120.73
  A 1.57 1.56 -1.4 0 0 169.55 119.19
  Z
  M 103.3015 105.5535
  A 2.40 0.88 21.6 0 0 101.3939 103.8518
  A 2.40 0.88 21.6 0 0 98.8385 103.7865
  A 2.40 0.88 21.6 0 0 100.7461 105.4882
  A 2.40 0.88 21.6 0 0 103.3015 105.5535
  Z
  M 97.8761 107.2832
  A 1.71 1.06 67.8 0 0 98.2114 105.2995
  A 1.71 1.06 67.8 0 0 96.5839 104.1168
  A 1.71 1.06 67.8 0 0 96.2486 106.1005
  A 1.71 1.06 67.8 0 0 97.8761 107.2832
  Z
  M 123.9524 109.5064
  A 1.51 0.59 57.0 0 0 123.6248 107.9187
  A 1.51 0.59 57.0 0 0 122.3076 106.9736
  A 1.51 0.59 57.0 0 0 122.6352 108.5613
  A 1.51 0.59 57.0 0 0 123.9524 109.5064
  Z
  M 116.13 109.33
  Q 113.64 108.16 110.92 109.16
  A 1.72 1.71 -22.0 0 0 109.94 111.47
  Q 110.92 113.65 113.26 114.29
  Q 117.91 115.57 122.09 117.37
  Q 123.55 118.00 125.03 119.39
  A 0.82 0.81 -67.0 0 0 126.40 118.83
  Q 126.43 118.28 126.15 117.82
  Q 123.04 112.59 116.13 109.33
  Z
  M 81.0735 111.5818
  A 1.58 0.74 37.5 0 0 80.2705 110.0329
  A 1.58 0.74 37.5 0 0 78.5665 109.6582
  A 1.58 0.74 37.5 0 0 79.3695 111.2071
  A 1.58 0.74 37.5 0 0 81.0735 111.5818
  Z
  M 100.52 112.24
  Q 101.82 113.53 103.58 113.04
  A 0.36 0.35 51.6 0 0 103.65 112.39
  L 100.53 110.64
  A 0.68 0.67 5.1 0 0 99.56 111.45
  Q 99.71 111.86 100.12 112.00
  Q 100.35 112.07 100.52 112.24
  Z
  M 134.63 114.12
  Q 135.03 114.49 135.51 114.33
  A 0.55 0.55 0.0 0 0 135.52 113.29
  Q 134.65 112.97 133.79 113.21
  Q 133.06 113.41 133.68 113.83
  Q 134.13 114.14 134.63 114.12
  Z
  M 84.54 140.71
  Q 83.34 143.61 83.89 146.95
  Q 84.00 147.62 84.64 147.41
  Q 87.46 146.46 90.51 147.19
  A 0.68 0.68 0.0 0 1 90.80 148.36
  C 88.61 150.29 86.04 150.95 83.63 152.78
  Q 82.21 153.86 80.35 154.98
  Q 76.60 157.22 73.35 159.72
  Q 70.27 162.09 74.09 161.34
  C 75.03 161.16 76.04 161.12 76.98 161.40
  C 81.00 162.62 84.88 164.17 89.13 164.65
  Q 96.49 165.49 102.75 165.49
  Q 105.11 165.49 107.49 164.73
  Q 109.99 163.94 112.02 162.69
  Q 112.83 162.20 113.29 161.35
  Q 114.45 159.20 112.21 160.16
  Q 108.00 161.94 103.98 162.50
  Q 99.63 163.11 96.13 161.29
  C 92.49 159.40 93.91 154.17 95.91 151.80
  Q 97.43 149.99 99.31 148.23
  Q 99.93 147.64 99.88 146.78
  Q 99.76 144.66 98.05 144.33
  Q 97.50 144.23 97.03 144.52
  Q 94.50 146.08 92.09 146.13
  Q 91.54 146.14 91.25 145.68
  Q 89.93 143.56 88.61 141.66
  Q 87.15 139.55 85.08 140.21
  Q 85.08 137.73 85.09 135.26
  Q 85.10 132.56 85.71 130.21
  Q 87.04 125.05 89.40 122.03
  Q 92.20 118.43 96.27 115.32
  Q 96.67 115.01 96.66 114.51
  Q 96.66 114.25 96.56 114.01
  Q 96.35 113.46 95.77 113.57
  C 89.96 114.62 85.00 119.57 82.53 124.66
  Q 78.72 132.52 82.87 140.23
  Q 83.39 141.21 84.54 140.71
  Z
  M 46.18 132.89
  Q 47.22 134.71 49.37 134.64
  C 52.93 134.51 59.27 134.23 59.80 129.59
  Q 60.36 124.73 59.44 118.74
  Q 58.93 115.37 55.71 115.25
  Q 50.37 115.04 44.26 114.94
  C 42.87 114.92 41.30 115.08 40.92 116.72
  C 39.76 121.67 43.85 128.79 46.18 132.89
  Z
  M 111.8398 116.3115
  A 1.89 0.79 -23.0 0 0 109.7913 116.3228
  A 1.89 0.79 -23.0 0 0 108.3602 117.7885
  A 1.89 0.79 -23.0 0 0 110.4087 117.7772
  A 1.89 0.79 -23.0 0 0 111.8398 116.3115
  Z
  M 130.27 121.11
  L 133.91 118.26
  A 0.19 0.19 0.0 0 0 133.94 118.00
  L 133.90 117.94
  A 2.25 1.26 -38.1 0 0 131.35 118.34
  L 130.95 118.65
  A 2.25 1.26 -38.1 0 0 129.96 121.03
  L 130.00 121.08
  A 0.19 0.19 0.0 0 0 130.27 121.11
  Z
  M 154.34 138.01
  Q 152.68 140.34 151.56 142.84
  Q 151.28 143.46 151.38 143.93
  Q 151.55 144.76 152.41 144.88
  A 0.92 0.92 0.0 0 0 153.21 144.58
  L 158.44 138.59
  Q 163.58 139.55 163.11 135.24
  Q 164.29 134.10 165.24 133.79
  C 167.05 133.21 171.60 131.84 172.73 130.41
  Q 173.42 129.54 173.29 128.36
  A 1.33 1.33 0.0 0 0 171.76 127.20
  Q 166.29 128.10 160.16 132.44
  Q 160.94 131.18 161.23 130.36
  Q 161.56 129.45 160.96 128.75
  Q 157.10 124.23 153.51 120.39
  A 1.77 1.76 -41.5 0 0 151.08 120.25
  Q 146.67 124.00 142.42 128.93
  C 140.40 131.27 140.77 135.98 143.76 137.43
  C 146.95 138.97 150.88 138.76 154.34 138.01
  Z
  M 105.43 121.29
  Q 104.05 120.35 100.98 120.22
  L 94.57 120.28
  A 1.76 1.75 10.3 0 0 92.97 121.38
  Q 89.97 128.84 88.00 136.43
  Q 87.78 137.27 88.63 137.15
  Q 89.30 137.06 89.92 136.75
  Q 90.43 136.49 90.89 136.83
  L 94.75 139.61
  A 1.82 1.81 42.8 0 0 96.96 139.53
  C 100.54 136.53 104.22 133.77 107.68 130.59
  C 111.43 127.14 110.06 123.02 105.43 121.29
  Z
  M 112.8790 126.8781
  A 1.88 0.74 125.1 0 0 114.5654 125.7655
  A 1.88 0.74 125.1 0 0 115.0410 123.8019
  A 1.88 0.74 125.1 0 0 113.3546 124.9145
  A 1.88 0.74 125.1 0 0 112.8790 126.8781
  Z
  M 123.20 133.36
  Q 122.78 133.39 122.47 133.58
  Q 121.93 133.90 122.39 134.33
  Q 123.91 135.76 126.20 135.79
  A 1.11 1.10 -70.8 0 0 127.10 135.35
  Q 127.62 134.63 126.87 133.96
  L 138.77 124.78
  A 0.50 0.50 0.0 0 0 138.53 123.89
  Q 131.58 123.05 128.13 127.96
  C 126.98 129.60 125.54 130.35 123.92 131.41
  Q 122.79 132.14 123.20 133.36
  Z
  M 127.64 126.08
  Q 128.00 126.10 128.23 125.82
  A 0.50 0.50 0.0 0 0 128.13 125.10
  Q 126.73 124.06 125.43 124.98
  Q 124.43 125.69 125.44 126.38
  Q 126.34 127.00 127.12 126.27
  Q 127.34 126.06 127.64 126.08
  Z
  M 119.9403 127.4169
  A 1.05 0.74 108.3 0 0 120.9726 126.6524
  A 1.05 0.74 108.3 0 0 120.5997 125.4231
  A 1.05 0.74 108.3 0 0 119.5674 126.1876
  A 1.05 0.74 108.3 0 0 119.9403 127.4169
  Z
  M 79.28 137.90
  C 78.56 134.44 79.11 131.81 75.77 129.39
  C 74.37 128.38 72.66 127.24 71.04 128.69
  C 68.86 130.64 67.37 133.15 65.30 135.16
  Q 61.14 139.18 57.95 143.85
  C 55.45 147.50 58.61 150.97 61.50 152.96
  C 63.84 154.57 67.03 153.84 69.74 153.73
  Q 70.03 153.71 70.27 153.87
  A 0.68 0.67 -43.0 0 0 71.01 153.89
  L 80.01 148.37
  Q 80.39 148.13 80.38 147.69
  Q 80.37 143.05 79.28 137.90
  Z
  M 113.9014 133.3336
  A 1.96 0.88 9.8 0 0 112.1198 132.1328
  A 1.96 0.88 9.8 0 0 110.0386 132.6664
  A 1.96 0.88 9.8 0 0 111.8202 133.8672
  A 1.96 0.88 9.8 0 0 113.9014 133.3336
  Z
  M 143.86 150.39
  C 147.13 148.26 144.97 144.63 142.97 142.69
  C 140.78 140.56 136.59 135.86 133.58 135.14
  A 2.26 2.26 0.0 0 0 130.92 136.55
  Q 130.03 138.93 130.34 141.51
  Q 131.02 147.17 132.01 152.71
  Q 132.36 154.67 134.30 154.24
  C 137.48 153.54 141.06 152.22 143.86 150.39
  Z
  M 115.92 138.59
  Q 108.17 144.80 102.50 150.12
  C 101.07 151.47 97.83 155.93 99.68 157.91
  Q 100.23 158.50 101.06 158.42
  Q 110.09 157.58 117.37 156.51
  Q 121.78 155.87 123.38 151.60
  C 124.16 149.52 124.53 147.32 123.03 145.44
  Q 120.43 142.19 117.45 138.73
  Q 116.75 137.93 115.92 138.59
  Z
  M 55.2270 139.2542
  A 2.38 0.61 -25.0 0 0 52.8122 139.7072
  A 2.38 0.61 -25.0 0 0 50.9130 141.2658
  A 2.38 0.61 -25.0 0 0 53.3278 140.8128
  A 2.38 0.61 -25.0 0 0 55.2270 139.2542
  Z
  M 106.3109 141.4191
  A 2.18 0.79 -18.2 0 0 103.9933 141.3495
  A 2.18 0.79 -18.2 0 0 102.1691 142.7809
  A 2.18 0.79 -18.2 0 0 104.4867 142.8505
  A 2.18 0.79 -18.2 0 0 106.3109 141.4191
  Z
  M 116.3676 163.2682
  A 1.33 0.61 63.3 0 0 116.3150 161.8059
  A 1.33 0.61 63.3 0 0 115.1724 160.8918
  A 1.33 0.61 63.3 0 0 115.2250 162.3541
  A 1.33 0.61 63.3 0 0 116.3676 163.2682
  Z"
/>
<path fill="#f1a9a5" d="
  M 111.77 18.31
  Q 115.96 19.84 116.73 21.70
  C 117.73 24.10 116.63 26.69 113.93 27.30
  Q 110.95 27.97 108.41 27.75
  A 0.58 0.58 0.0 0 1 107.96 26.88
  Q 108.65 25.66 109.91 24.98
  A 0.70 0.70 0.0 0 0 110.09 23.90
  C 107.67 21.27 104.97 23.48 102.04 22.80
  Q 101.57 22.70 101.28 23.03
  Q 100.97 23.40 101.18 24.27
  Q 99.10 21.37 100.85 19.46
  Q 101.93 18.28 104.51 17.90
  Q 108.93 17.25 111.77 18.31
  Z"
/>
<path fill="#e88678" d="
  M 111.77 18.31
  Q 115.19 18.14 116.86 19.14
  C 119.59 20.77 119.88 28.30 116.18 29.11
  Q 111.02 30.24 106.75 30.28
  C 104.04 30.31 102.33 26.18 101.18 24.27
  Q 100.97 23.40 101.28 23.03
  Q 101.57 22.70 102.04 22.80
  C 104.97 23.48 107.67 21.27 110.09 23.90
  A 0.70 0.70 0.0 0 1 109.91 24.98
  Q 108.65 25.66 107.96 26.88
  A 0.58 0.58 0.0 0 0 108.41 27.75
  Q 110.95 27.97 113.93 27.30
  C 116.63 26.69 117.73 24.10 116.73 21.70
  Q 115.96 19.84 111.77 18.31
  Z"
/>
<path fill="#f8e7b3" d="
  M 67.47 24.29
  Q 67.54 24.06 67.74 23.96
  Q 70.12 22.77 72.24 21.36
  Q 74.25 20.03 76.43 19.67
  Q 84.06 18.40 90.54 19.05
  Q 91.35 19.13 92.02 19.58
  Q 92.79 20.11 92.59 20.51
  Q 92.01 21.64 90.82 21.75
  C 88.18 22.00 85.85 21.81 83.12 22.55
  C 80.74 23.20 78.22 23.39 76.01 24.59
  C 74.69 25.31 73.23 25.76 72.09 26.77
  Q 68.58 29.89 68.06 34.78
  C 67.67 38.49 66.92 45.86 63.46 48.11
  Q 60.94 49.75 57.52 50.65
  C 55.08 51.29 53.15 52.71 50.69 53.37
  A 0.73 0.73 0.0 0 1 49.80 52.46
  Q 50.05 51.60 50.84 51.04
  Q 53.04 49.51 54.90 48.00
  Q 56.35 46.83 57.49 44.55
  Q 59.40 40.72 60.67 37.59
  Q 61.63 35.22 62.36 32.77
  C 63.23 29.85 64.62 26.58 67.16 24.74
  Q 67.39 24.57 67.47 24.29
  Z
  M 63.3597 43.7493
  A 1.61 0.64 -17.0 0 0 61.6329 43.6080
  A 1.61 0.64 -17.0 0 0 60.2803 44.6907
  A 1.61 0.64 -17.0 0 0 62.0071 44.8320
  A 1.61 0.64 -17.0 0 0 63.3597 43.7493
  Z"
/>
<path fill="#fecd76" d="
  M 140.28 51.57
  C 140.02 46.51 139.25 42.22 139.50 36.76
  L 139.98 43.97
  Q 140.01 44.44 140.36 44.76
  Q 140.79 45.17 141.45 44.95
  Q 141.96 44.78 142.13 44.27
  Q 143.43 40.43 143.00 35.88
  Q 142.77 33.50 141.07 31.33
  C 138.43 27.98 134.11 24.34 129.67 26.81
  Q 127.13 28.22 124.10 28.76
  A 1.89 1.88 69.3 0 1 122.17 27.89
  C 120.18 24.64 121.28 19.52 126.21 20.78
  Q 129.50 21.61 133.02 23.12
  C 134.66 23.82 136.29 23.25 137.74 24.02
  Q 142.27 26.44 145.04 30.97
  Q 145.31 31.41 145.77 31.64
  Q 147.10 32.34 147.49 33.76
  C 148.14 36.17 148.16 38.34 147.25 40.80
  C 145.49 45.52 144.36 49.00 140.28 51.57
  Z"
/>
<path fill="#f4ac70" d="
  M 143.66 21.68
  Q 148.55 23.79 150.91 26.86
  C 155.07 32.28 158.31 36.75 164.15 40.28
  Q 167.75 42.46 171.02 45.03
  C 175.24 48.34 176.33 53.54 176.79 58.84
  C 176.99 61.25 177.62 63.88 178.93 65.96
  C 181.17 69.49 183.67 73.34 184.15 77.60
  Q 185.23 86.95 183.73 93.28
  C 181.15 104.21 178.40 114.35 180.01 125.44
  Q 180.97 131.99 176.45 136.88
  A 0.42 0.40 -33.7 0 0 176.36 137.28
  Q 176.43 137.50 176.26 137.61
  A 0.19 0.19 0.0 0 0 176.31 137.94
  Q 176.80 138.12 176.52 137.82
  Q 176.60 137.94 176.63 138.05
  Q 176.68 138.25 176.53 138.38
  Q 171.60 142.90 167.14 147.89
  Q 165.01 150.28 161.71 151.36
  Q 154.39 152.30 149.28 154.78
  Q 145.33 156.71 136.81 161.85
  Q 133.03 164.14 125.97 166.12
  Q 116.26 168.84 105.73 169.78
  Q 108.11 168.57 110.62 168.06
  Q 114.51 167.29 115.61 166.94
  Q 120.05 165.55 124.24 164.61
  A 1.35 1.33 12.8 0 0 125.02 164.13
  Q 125.50 163.53 126.32 163.59
  A 1.38 1.38 0.0 0 0 126.97 163.47
  Q 133.72 160.43 141.71 155.56
  Q 146.11 152.88 151.60 151.59
  C 158.60 149.96 163.30 147.60 168.08 141.88
  Q 172.49 136.61 174.91 131.93
  Q 176.28 129.29 175.89 125.97
  C 175.15 119.69 175.07 113.21 176.46 107.02
  C 179.04 95.50 182.15 84.18 179.14 72.57
  Q 178.82 71.34 178.05 70.37
  Q 175.37 67.01 173.94 63.68
  C 171.87 58.86 172.78 53.43 170.34 48.66
  Q 169.06 46.15 166.29 43.94
  Q 163.39 41.62 162.37 41.03
  Q 159.17 39.17 156.05 36.80
  Q 153.54 34.90 150.85 31.56
  Q 147.51 27.42 146.08 25.04
  Q 144.78 22.89 143.66 21.68
  Z"
/>
<path fill="#f4ac70" d="
  M 77.67 25.22
  Q 78.23 24.93 78.12 25.55
  Q 77.91 26.81 77.35 27.80
  Q 77.08 28.30 76.47 28.34
  Q 76.20 28.36 76.00 28.19
  Q 75.56 27.82 75.80 27.27
  Q 76.39 25.91 77.67 25.22
  Z"
/>
<path fill="#f3c122" d="
  M 93.93 36.20
  Q 94.24 35.47 93.75 34.83
  C 92.19 32.82 85.73 33.65 83.17 34.27
  A 1.13 1.12 86.8 0 1 81.79 33.03
  L 82.49 27.40
  Q 82.66 26.08 83.96 26.33
  Q 88.49 27.19 93.50 27.90
  Q 98.69 28.63 100.29 33.96
  C 101.08 36.60 97.84 39.14 95.93 40.39
  Q 91.29 43.42 86.59 47.08
  Q 85.05 48.28 83.58 47.12
  Q 79.61 43.97 80.74 39.40
  Q 80.97 38.47 81.91 38.30
  Q 83.74 37.97 85.54 37.63
  C 88.13 37.15 90.61 37.27 93.21 36.78
  A 1.00 0.99 -83.6 0 0 93.93 36.20
  Z"
/>
<path fill="#f3c122" d="
  M 139.50 36.76
  C 139.25 42.22 140.02 46.51 140.28 51.57
  C 138.36 53.90 134.88 54.17 132.54 52.34
  Q 126.86 47.88 121.87 43.86
  A 1.67 1.67 0.0 0 1 121.66 41.45
  Q 125.05 37.63 129.20 33.12
  C 130.93 31.23 133.68 30.94 136.02 31.37
  Q 139.28 31.97 139.50 36.76
  Z"
/>
<path fill="#fcb057" d="
  M 181.39 30.86
  Q 184.92 35.74 186.51 40.23
  Q 188.75 46.55 190.92 52.98
  C 193.77 61.42 199.22 68.45 200.48 77.45
  Q 201.07 81.69 201.06 85.99
  Q 200.99 102.07 200.99 119.09
  Q 200.98 128.49 196.94 135.52
  Q 193.03 142.33 187.07 148.87
  Q 174.32 162.87 160.94 173.26
  Q 156.32 176.84 148.81 180.22
  Q 133.08 187.30 115.93 189.91
  Q 115.88 186.18 121.26 186.41
  Q 121.57 186.43 121.79 186.23
  Q 122.17 185.90 122.68 185.89
  L 125.48 185.85
  A 0.76 0.75 6.5 0 0 126.20 185.28
  Q 126.36 184.70 126.87 184.44
  C 129.15 183.27 131.72 183.10 134.13 182.21
  C 136.54 181.32 139.07 180.84 141.45 179.86
  Q 147.94 177.18 152.98 174.23
  Q 155.39 172.81 157.63 170.67
  Q 158.89 169.48 160.40 168.47
  Q 161.39 167.81 162.13 166.76
  Q 162.82 165.78 163.76 164.90
  Q 170.24 158.86 177.92 152.37
  C 179.68 150.88 180.82 148.88 182.40 147.21
  Q 185.76 143.64 188.44 139.82
  C 188.87 139.20 189.74 138.68 189.90 138.03
  Q 190.03 137.47 190.36 137.03
  Q 197.29 127.38 197.07 114.90
  Q 196.93 106.87 196.58 99.50
  C 196.21 91.73 197.44 83.82 196.66 76.15
  Q 196.37 73.23 195.86 70.51
  Q 195.33 67.64 193.45 65.29
  A 1.46 1.44 27.2 0 1 193.14 64.34
  Q 193.16 63.76 192.87 63.33
  Q 192.32 62.54 192.32 62.54
  Q 185.07 47.78 181.39 30.86
  Z"
/>
<ellipse fill="#f4ac70" cx="0.00" cy="0.00" transform="translate(119.68,34.55) rotate(-0.4)" rx="1.94" ry="0.64"/>
<ellipse fill="#f4ac70" cx="0.00" cy="0.00" transform="translate(111.00,40.60) rotate(-5.6)" rx="1.83" ry="0.65"/>
<path fill="#e88678" d="
  M 100.74 61.40
  Q 102.99 59.25 102.50 57.49
  Q 101.85 55.12 101.48 52.63
  C 101.10 50.15 103.51 49.28 105.36 49.87
  Q 108.65 50.93 112.59 52.57
  A 1.00 1.00 0.0 0 0 113.96 51.48
  Q 113.49 48.76 111.88 45.77
  C 110.09 42.47 104.99 44.83 102.35 45.89
  Q 100.00 46.83 98.65 48.36
  A 1.09 1.02 72.3 0 0 98.39 48.91
  Q 98.30 49.48 97.84 49.77
  Q 97.19 50.18 97.12 49.41
  L 96.96 47.49
  Q 102.31 43.04 110.92 42.27
  A 2.37 2.36 78.6 0 1 113.37 43.90
  L 117.45 56.51
  A 1.46 1.46 0.0 0 1 116.24 58.41
  Q 109.94 59.24 104.00 61.47
  Q 103.25 61.76 100.74 61.40
  Z"
/>
<ellipse fill="#f4ac70" cx="0.00" cy="0.00" transform="translate(61.82,44.22) rotate(-17.0)" rx="1.61" ry="0.64"/>
<path fill="#f1a9a5" d="
  M 100.74 61.40
  Q 99.97 61.19 99.16 60.17
  Q 98.52 59.35 98.34 58.38
  Q 97.74 55.12 96.66 51.84
  C 96.15 50.28 96.59 49.12 96.96 47.49
  L 97.12 49.41
  Q 97.19 50.18 97.84 49.77
  Q 98.30 49.48 98.39 48.91
  A 1.09 1.02 72.3 0 1 98.65 48.36
  Q 100.00 46.83 102.35 45.89
  C 104.99 44.83 110.09 42.47 111.88 45.77
  Q 113.49 48.76 113.96 51.48
  A 1.00 1.00 0.0 0 1 112.59 52.57
  Q 108.65 50.93 105.36 49.87
  C 103.51 49.28 101.10 50.15 101.48 52.63
  Q 101.85 55.12 102.50 57.49
  Q 102.99 59.25 100.74 61.40
  Z"
/>
<path fill="#e88678" d="
  M 143.79 56.52
  Q 147.52 53.15 150.61 49.34
  A 2.30 2.29 31.6 0 1 153.33 48.69
  Q 154.73 49.32 156.05 50.48
  C 159.80 53.77 165.26 58.91 162.40 64.03
  Q 161.56 65.53 159.65 65.63
  Q 154.46 65.92 149.56 65.97
  C 146.10 66.01 144.15 62.13 143.22 59.30
  Q 143.04 58.77 142.62 58.40
  Q 141.42 57.35 140.39 56.12
  Q 139.96 55.60 140.38 55.08
  Q 140.69 54.70 141.12 54.94
  Q 142.18 55.54 142.87 56.44
  Q 143.29 56.98 143.79 56.52
  Z
  M 144.92 59.11
  Q 145.27 61.09 146.51 62.60
  C 148.20 64.66 151.24 62.60 150.18 60.16
  C 149.17 57.83 150.53 55.59 152.92 54.96
  A 1.35 1.35 0.0 0 1 154.50 55.74
  L 155.95 59.16
  A 2.88 2.84 89.9 0 0 157.44 60.66
  Q 158.15 60.97 158.87 60.97
  Q 160.22 60.97 159.63 59.75
  C 158.22 56.83 153.89 49.90 149.97 53.36
  Q 147.50 55.54 145.41 57.58
  Q 144.76 58.22 144.92 59.11
  Z"
/>
<path fill="#f4ac70" d="
  M 121.94 50.58
  A 0.68 0.65 -84.9 0 1 121.62 50.18
  Q 121.52 49.79 121.76 49.51
  Q 121.97 49.29 122.26 49.38
  C 123.43 49.74 125.22 50.56 125.56 51.87
  Q 125.75 52.63 125.06 52.26
  L 121.94 50.58
  Z"
/>
<path fill="#f3c122" d="
  M 61.30 53.04
  Q 61.93 52.86 62.57 53.04
  Q 63.07 53.18 63.53 52.96
  Q 64.65 52.41 65.84 52.32
  Q 67.04 52.23 68.15 52.01
  Q 71.84 51.28 75.19 50.58
  Q 76.94 50.22 78.72 50.21
  Q 79.31 50.20 79.44 50.79
  Q 80.34 55.10 80.63 59.44
  Q 80.79 61.88 79.17 63.72
  Q 74.92 68.58 68.25 65.34
  Q 62.21 62.40 56.24 59.85
  C 54.93 59.29 53.74 58.22 54.74 56.68
  C 56.71 53.66 58.37 53.86 61.30 53.04
  Z"
/>
<path fill="#f1a9a5" d="
  M 145.41 57.58
  Q 147.50 55.54 149.97 53.36
  C 153.89 49.90 158.22 56.83 159.63 59.75
  Q 160.22 60.97 158.87 60.97
  Q 158.15 60.97 157.44 60.66
  A 2.88 2.84 89.9 0 1 155.95 59.16
  L 154.50 55.74
  A 1.35 1.35 0.0 0 0 152.92 54.96
  C 150.53 55.59 149.17 57.83 150.18 60.16
  C 151.24 62.60 148.20 64.66 146.51 62.60
  Q 145.27 61.09 144.92 59.11
  Q 144.76 58.22 145.41 57.58
  Z"
/>
<path fill="#f8e7b3" d="
  M 88.68 65.67
  Q 86.31 70.00 83.98 73.17
  Q 83.10 74.37 82.89 72.90
  C 82.44 69.76 83.74 67.45 85.09 64.71
  Q 87.40 60.02 90.69 56.79
  Q 92.03 55.46 94.05 55.33
  A 1.11 1.11 0.0 0 1 94.88 55.63
  Q 96.02 56.68 95.40 57.96
  A 1.58 1.58 0.0 0 1 94.66 58.70
  C 92.11 59.94 90.20 62.90 88.68 65.67
  Z"
/>
<path fill="#e88678" d="
  M 39.96 61.20
  C 42.84 59.05 49.84 56.52 51.40 61.55
  C 52.16 64.03 51.60 68.39 49.10 70.15
  Q 45.80 72.47 42.94 75.22
  A 1.21 1.21 0.0 0 1 41.47 75.39
  Q 39.03 73.95 38.46 71.64
  C 38.00 69.72 37.54 63.00 39.96 61.20
  Z
  M 40.80 64.08
  Q 39.72 67.97 40.26 72.07
  Q 40.57 74.48 42.74 73.38
  Q 42.99 73.25 43.21 73.08
  Q 45.03 71.60 44.47 69.32
  Q 43.93 67.13 44.57 65.36
  Q 44.97 64.28 46.03 64.79
  Q 46.43 64.98 46.44 65.42
  Q 46.45 66.05 46.78 66.61
  Q 47.45 67.78 48.16 66.63
  Q 49.39 64.64 49.27 62.36
  A 1.85 1.84 85.1 0 0 47.21 60.62
  Q 44.36 60.97 42.17 62.29
  A 3.01 2.99 -7.8 0 0 40.80 64.08
  Z"
/>
<path fill="#f1a9a5" d="
  M 40.80 64.08
  A 3.01 2.99 -7.8 0 1 42.17 62.29
  Q 44.36 60.97 47.21 60.62
  A 1.85 1.84 85.1 0 1 49.27 62.36
  Q 49.39 64.64 48.16 66.63
  Q 47.45 67.78 46.78 66.61
  Q 46.45 66.05 46.44 65.42
  Q 46.43 64.98 46.03 64.79
  Q 44.97 64.28 44.57 65.36
  Q 43.93 67.13 44.47 69.32
  Q 45.03 71.60 43.21 73.08
  Q 42.99 73.25 42.74 73.38
  Q 40.57 74.48 40.26 72.07
  Q 39.72 67.97 40.80 64.08
  Z"
/>
<path fill="#f8e7b3" d="
  M 132.88 67.63
  C 131.97 66.31 130.35 63.42 130.77 61.80
  A 0.84 0.84 0.0 0 1 132.01 61.29
  C 134.92 63.05 136.67 66.01 136.95 69.50
  Q 137.47 75.94 136.77 81.64
  Q 136.60 83.00 135.25 82.78
  Q 134.97 82.74 134.80 82.51
  Q 134.07 81.53 134.20 80.29
  Q 134.65 75.86 134.44 72.03
  Q 134.32 69.75 132.88 67.63
  Z"
/>
<ellipse fill="#f4ac70" cx="0.00" cy="0.00" transform="translate(123.24,64.19) rotate(110.4)" rx="1.48" ry="0.63"/>
<ellipse fill="#f4ac70" cx="0.00" cy="0.00" transform="translate(101.81,64.98) rotate(-23.5)" rx="3.45" ry="0.98"/>
<ellipse fill="#f4ac70" cx="0.00" cy="0.00" transform="translate(80.97,65.46) rotate(123.4)" rx="1.64" ry="0.72"/>
<path fill="#f4ac70" d="
  M 117.98 66.78
  A 0.50 0.49 63.8 0 1 117.16 66.50
  Q 116.98 65.50 117.25 64.62
  A 0.71 0.71 0.0 0 1 118.61 64.61
  Q 119.01 65.84 117.98 66.78
  Z"
/>
<path fill="#f1a9a5" d="
  M 128.73 68.54
  Q 126.32 70.94 122.37 71.72
  Q 120.05 72.17 119.18 73.70
  A 2.22 2.22 0.0 0 0 119.44 76.26
  L 121.99 79.18
  Q 122.46 79.71 121.77 79.88
  Q 120.92 80.09 120.04 79.65
  Q 119.56 79.40 119.41 79.92
  Q 119.33 80.20 119.47 80.69
  Q 117.88 78.05 116.21 75.83
  C 114.51 73.55 113.78 71.50 116.47 69.72
  Q 122.45 65.77 128.73 68.54
  Z"
/>
<path fill="#e88678" d="
  M 128.73 68.54
  Q 130.44 70.50 130.88 72.90
  C 131.65 77.06 131.69 80.17 126.74 81.29
  Q 121.99 82.36 119.47 80.69
  Q 119.33 80.20 119.41 79.92
  Q 119.56 79.40 120.04 79.65
  Q 120.92 80.09 121.77 79.88
  Q 122.46 79.71 121.99 79.18
  L 119.44 76.26
  A 2.22 2.22 0.0 0 1 119.18 73.70
  Q 120.05 72.17 122.37 71.72
  Q 126.32 70.94 128.73 68.54
  Z"
/>
<rect fill="#f4ac70" x="-0.64" y="-2.55" transform="translate(144.70,71.34) rotate(-0.4)" width="1.28" height="5.10" rx="0.61"/>
<path fill="#e88678" d="
  M 77.85 74.67
  Q 82.97 75.92 82.48 80.02
  C 82.04 83.72 76.72 85.69 74.30 88.04
  C 72.06 90.21 67.73 94.28 64.79 90.16
  Q 61.01 84.86 57.08 80.20
  A 2.66 2.65 -39.9 0 1 57.42 76.44
  Q 60.35 74.03 63.02 71.30
  C 65.03 69.24 68.26 68.23 70.50 70.59
  Q 73.29 73.55 77.85 74.67
  Z
  M 59.49 78.83
  Q 62.44 83.41 66.00 87.10
  Q 67.49 88.63 67.44 86.50
  Q 67.36 82.86 69.11 78.30
  Q 69.96 76.10 69.42 73.74
  A 2.37 2.36 -15.7 0 0 66.36 72.03
  Q 62.34 73.38 59.50 77.74
  Q 59.14 78.28 59.49 78.83
  Z"
/>
<ellipse fill="#f4ac70" cx="0.00" cy="0.00" transform="translate(157.39,70.89) rotate(39.3)" rx="1.83" ry="0.81"/>
<path fill="#f8e7b3" d="
  M 108.91 74.11
  Q 97.05 73.77 87.36 80.72
  A 0.96 0.96 0.0 0 1 85.84 79.89
  C 85.86 79.38 86.26 78.49 86.68 78.06
  Q 90.56 74.13 91.83 73.34
  Q 94.90 71.41 100.52 71.06
  C 103.42 70.88 106.01 71.93 108.93 71.87
  Q 109.32 71.86 109.37 72.25
  Q 109.45 73.03 109.29 73.81
  Q 109.22 74.12 108.91 74.11
  Z"
/>
<path fill="#f1a9a5" d="
  M 59.49 78.83
  Q 59.14 78.28 59.50 77.74
  Q 62.34 73.38 66.36 72.03
  A 2.37 2.36 -15.7 0 1 69.42 73.74
  Q 69.96 76.10 69.11 78.30
  Q 67.36 82.86 67.44 86.50
  Q 67.49 88.63 66.00 87.10
  Q 62.44 83.41 59.49 78.83
  Z"
/>
<path fill="#f3c122" d="
  M 160.26 73.33
  C 162.77 72.99 165.45 73.17 168.05 73.18
  A 1.35 1.35 0.0 0 1 169.39 74.55
  Q 169.27 81.73 169.27 89.02
  Q 169.27 92.23 166.70 94.18
  C 163.18 96.85 161.00 97.75 157.45 94.31
  Q 151.59 88.64 145.47 83.03
  Q 142.34 80.16 145.30 77.07
  C 146.92 75.38 148.63 73.85 151.06 73.87
  Q 155.81 73.93 160.26 73.33
  Z"
/>
<ellipse fill="#f4ac70" cx="0.00" cy="0.00" transform="translate(53.46,75.14) rotate(113.9)" rx="2.22" ry="0.80"/>
<ellipse fill="#f4ac70" cx="0.00" cy="0.00" transform="translate(110.21,79.26) rotate(-15.1)" rx="0.91" ry="0.77"/>
<ellipse fill="#f4ac70" cx="0.00" cy="0.00" transform="translate(96.79,81.91) rotate(58.1)" rx="1.40" ry="0.77"/>
<ellipse fill="#f4ac70" cx="0.00" cy="0.00" transform="translate(114.80,82.96) rotate(131.5)" rx="1.44" ry="0.67"/>
<path fill="#f3c122" d="
  M 96.19 92.21
  Q 96.46 92.49 96.78 92.28
  Q 96.92 92.18 97.02 92.06
  Q 101.28 86.77 104.63 83.73
  Q 105.47 82.97 106.69 83.08
  C 109.77 83.38 112.55 83.26 113.01 87.22
  Q 113.54 91.72 113.47 97.35
  C 113.44 99.41 114.01 101.42 113.96 103.51
  A 1.19 1.18 -12.8 0 1 113.31 104.53
  C 110.93 105.72 107.69 105.45 105.94 103.73
  Q 104.74 102.56 103.33 101.66
  Q 99.36 99.13 95.80 96.08
  Q 94.86 95.28 95.02 94.05
  Q 95.23 92.49 94.90 90.77
  Q 94.65 89.50 95.41 88.62
  A 0.38 0.37 -34.1 0 1 96.05 88.74
  Q 96.46 90.02 96.00 91.30
  Q 95.81 91.82 96.19 92.21
  Z"
/>
<path fill="#f3c122" d="
  M 37.59 97.78
  Q 37.51 97.80 37.46 97.73
  Q 37.29 97.50 37.32 97.23
  Q 38.04 90.55 39.19 83.61
  A 0.29 0.28 8.0 0 1 39.52 83.37
  Q 46.68 84.44 54.32 86.08
  Q 57.25 86.71 58.57 88.36
  C 60.79 91.13 62.84 94.84 59.28 97.76
  Q 52.31 103.48 43.95 109.10
  Q 41.84 110.52 40.00 108.82
  Q 35.47 104.65 37.93 98.21
  Q 38.13 97.66 37.59 97.78
  Z"
/>
<ellipse fill="#f4ac70" cx="0.00" cy="0.00" transform="translate(100.18,84.64) rotate(96.5)" rx="1.14" ry="0.98"/>
<ellipse fill="#f4ac70" cx="0.00" cy="0.00" transform="translate(93.80,84.70) rotate(-4.7)" rx="2.44" ry="0.79"/>
<ellipse fill="#f4ac70" cx="0.00" cy="0.00" transform="translate(121.01,85.24) rotate(55.0)" rx="1.38" ry="0.52"/>
<ellipse fill="#f4ac70" cx="0.00" cy="0.00" transform="translate(85.45,91.75) rotate(93.8)" rx="1.63" ry="0.47"/>
<rect fill="#f4ac70" x="-2.05" y="-0.97" transform="translate(124.72,91.58) rotate(-0.5)" width="4.10" height="1.94" rx="0.89"/>
<ellipse fill="#f4ac70" cx="0.00" cy="0.00" transform="translate(175.92,91.65) rotate(-0.1)" rx="1.69" ry="0.73"/>
<path fill="#f1a9a5" d="
  M 146.87 96.46
  Q 144.80 98.30 142.24 98.74
  C 139.12 99.29 133.77 99.70 131.33 101.82
  Q 130.08 102.91 126.10 106.94
  Q 126.00 106.58 126.26 105.26
  Q 127.13 100.84 129.69 95.71
  Q 130.92 93.25 133.48 93.52
  Q 140.41 94.26 146.87 96.46
  Z"
/>
<ellipse fill="#f4ac70" cx="0.00" cy="0.00" transform="translate(75.73,94.76) rotate(74.5)" rx="1.37" ry="0.66"/>
<path fill="#f4ac70" d="
  M 153.18 97.55
  Q 152.60 96.27 152.45 95.07
  Q 152.32 94.00 153.20 94.62
  Q 154.37 95.43 153.71 97.51
  A 0.29 0.28 -49.1 0 1 153.18 97.55
  Z"
/>
<path fill="#e88678" d="
  M 80.31 95.90
  A 0.53 0.53 0.0 0 1 81.13 95.85
  Q 81.46 96.20 81.38 96.65
  A 0.52 0.52 0.0 0 1 80.60 96.99
  Q 79.86 96.54 80.31 95.90
  Z"
/>
<path fill="#e88678" d="
  M 88.37 108.08
  L 83.08 109.12
  A 4.18 4.18 0.0 0 1 78.17 105.83
  L 77.64 103.17
  A 4.18 4.18 0.0 0 1 80.30 98.44
  L 85.74 96.43
  A 4.18 4.18 0.0 0 1 91.35 99.93
  L 91.71 103.55
  A 4.18 4.18 0.0 0 1 88.37 108.08
  Z"
/>
<path fill="#e88678" d="
  M 146.87 96.46
  Q 148.77 98.29 148.38 100.52
  Q 147.29 106.82 143.67 111.83
  A 1.87 1.87 0.0 0 1 141.71 112.55
  Q 136.35 111.24 131.29 109.69
  Q 128.44 108.83 126.10 106.94
  Q 130.08 102.91 131.33 101.82
  C 133.77 99.70 139.12 99.29 142.24 98.74
  Q 144.80 98.30 146.87 96.46
  Z"
/>
<ellipse fill="#f4ac70" cx="0.00" cy="0.00" transform="translate(94.17,99.46) rotate(53.8)" rx="2.04" ry="0.70"/>
<path fill="#e88678" d="
  M 172.34 100.85
  C 170.46 107.04 169.66 112.73 169.55 119.19
  A 1.57 1.56 -1.4 0 1 168.08 120.73
  C 165.10 120.93 160.38 121.37 159.11 117.98
  Q 156.82 111.86 157.65 105.36
  C 158.24 100.67 167.02 98.53 170.48 98.42
  A 1.88 1.88 0.0 0 1 172.34 100.85
  Z"
/>
<ellipse fill="#f4ac70" cx="0.00" cy="0.00" transform="translate(101.07,104.67) rotate(21.6)" rx="2.40" ry="0.88"/>
<ellipse fill="#f4ac70" cx="0.00" cy="0.00" transform="translate(97.23,105.70) rotate(67.8)" rx="1.71" ry="1.06"/>
<ellipse fill="#f4ac70" cx="0.00" cy="0.00" transform="translate(123.13,108.24) rotate(57.0)" rx="1.51" ry="0.59"/>
<path fill="#f8e7b3" d="
  M 116.13 109.33
  Q 123.04 112.59 126.15 117.82
  Q 126.43 118.28 126.40 118.83
  A 0.82 0.81 -67.0 0 1 125.03 119.39
  Q 123.55 118.00 122.09 117.37
  Q 117.91 115.57 113.26 114.29
  Q 110.92 113.65 109.94 111.47
  A 1.72 1.71 -22.0 0 1 110.92 109.16
  Q 113.64 108.16 116.13 109.33
  Z"
/>
<ellipse fill="#f4ac70" cx="0.00" cy="0.00" transform="translate(79.82,110.62) rotate(37.5)" rx="1.58" ry="0.74"/>
<path fill="#f4ac70" d="
  M 100.12 112.00
  Q 99.71 111.86 99.56 111.45
  A 0.68 0.67 5.1 0 1 100.53 110.64
  L 103.65 112.39
  A 0.36 0.35 51.6 0 1 103.58 113.04
  Q 101.82 113.53 100.52 112.24
  Q 100.35 112.07 100.12 112.00
  Z"
/>
<path fill="#f4ac70" d="
  M 134.63 114.12
  Q 134.13 114.14 133.68 113.83
  Q 133.06 113.41 133.79 113.21
  Q 134.65 112.97 135.52 113.29
  A 0.55 0.55 0.0 0 1 135.51 114.33
  Q 135.03 114.49 134.63 114.12
  Z"
/>
<path fill="#f8e7b3" d="
  M 85.08 140.21
  Q 84.44 140.50 84.54 140.71
  Q 83.39 141.21 82.87 140.23
  Q 78.72 132.52 82.53 124.66
  C 85.00 119.57 89.96 114.62 95.77 113.57
  Q 96.35 113.46 96.56 114.01
  Q 96.66 114.25 96.66 114.51
  Q 96.67 115.01 96.27 115.32
  Q 92.20 118.43 89.40 122.03
  Q 87.04 125.05 85.71 130.21
  Q 85.10 132.56 85.09 135.26
  Q 85.08 137.73 85.08 140.21
  Z"
/>
<path fill="#e88678" d="
  M 46.18 132.89
  C 43.85 128.79 39.76 121.67 40.92 116.72
  C 41.30 115.08 42.87 114.92 44.26 114.94
  Q 50.37 115.04 55.71 115.25
  Q 58.93 115.37 59.44 118.74
  Q 60.36 124.73 59.80 129.59
  C 59.27 134.23 52.93 134.51 49.37 134.64
  Q 47.22 134.71 46.18 132.89
  Z
  M 42.22 118.93
  L 47.42 131.76
  Q 47.70 132.44 48.33 132.82
  Q 49.24 133.36 49.64 132.97
  Q 50.52 132.13 49.97 131.05
  Q 47.93 126.95 48.06 122.30
  A 1.08 1.08 0.0 0 1 49.57 121.35
  C 51.57 122.23 57.09 122.90 56.97 119.45
  A 1.12 1.11 -2.1 0 0 55.81 118.38
  C 53.01 118.48 50.15 118.44 47.45 117.63
  Q 45.55 117.06 43.65 116.94
  A 1.45 1.44 80.8 0 0 42.22 118.93
  Z"
/>
<ellipse fill="#f4ac70" cx="0.00" cy="0.00" transform="translate(110.10,117.05) rotate(-23.0)" rx="1.89" ry="0.79"/>
<path fill="#f1a9a5" d="
  M 47.42 131.76
  L 42.22 118.93
  A 1.45 1.44 80.8 0 1 43.65 116.94
  Q 45.55 117.06 47.45 117.63
  C 50.15 118.44 53.01 118.48 55.81 118.38
  A 1.12 1.11 -2.1 0 1 56.97 119.45
  C 57.09 122.90 51.57 122.23 49.57 121.35
  A 1.08 1.08 0.0 0 0 48.06 122.30
  Q 47.93 126.95 49.97 131.05
  Q 50.52 132.13 49.64 132.97
  Q 49.24 133.36 48.33 132.82
  Q 47.70 132.44 47.42 131.76
  Z"
/>
<path fill="#f4ac70" d="
  M 130.27 121.11
  A 0.19 0.19 0.0 0 1 130.00 121.08
  L 129.96 121.03
  A 2.25 1.26 -38.1 0 1 130.95 118.65
  L 131.35 118.34
  A 2.25 1.26 -38.1 0 1 133.90 117.94
  L 133.94 118.00
  A 0.19 0.19 0.0 0 1 133.91 118.26
  L 130.27 121.11
  Z"
/>
<path fill="#f3c122" d="
  M 160.16 132.44
  Q 157.28 134.28 154.34 138.01
  C 150.88 138.76 146.95 138.97 143.76 137.43
  C 140.77 135.98 140.40 131.27 142.42 128.93
  Q 146.67 124.00 151.08 120.25
  A 1.77 1.76 -41.5 0 1 153.51 120.39
  Q 157.10 124.23 160.96 128.75
  Q 161.56 129.45 161.23 130.36
  Q 160.94 131.18 160.16 132.44
  Z"
/>
<path fill="#e88678" d="
  M 100.98 120.22
  Q 100.89 120.70 101.54 120.62
  Q 101.62 120.61 101.64 120.69
  Q 101.68 120.84 101.60 120.93
  Q 101.52 121.02 101.40 121.04
  Q 99.24 121.47 97.08 121.67
  Q 94.79 121.88 93.66 123.23
  Q 92.55 124.56 92.16 126.54
  Q 91.83 128.17 91.24 129.71
  Q 90.36 132.03 90.42 134.70
  A 0.67 0.67 0.0 0 0 91.38 135.29
  C 92.69 134.66 93.31 132.91 93.83 131.61
  C 94.62 129.64 96.28 128.22 98.34 127.81
  Q 101.77 127.12 104.48 125.43
  Q 106.26 124.32 105.43 121.29
  C 110.06 123.02 111.43 127.14 107.68 130.59
  C 104.22 133.77 100.54 136.53 96.96 139.53
  A 1.82 1.81 42.8 0 1 94.75 139.61
  L 90.89 136.83
  Q 90.43 136.49 89.92 136.75
  Q 89.30 137.06 88.63 137.15
  Q 87.78 137.27 88.00 136.43
  Q 89.97 128.84 92.97 121.38
  A 1.76 1.75 10.3 0 1 94.57 120.28
  L 100.98 120.22
  Z"
/>
<path fill="#f1a9a5" d="
  M 100.98 120.22
  Q 104.05 120.35 105.43 121.29
  Q 106.26 124.32 104.48 125.43
  Q 101.77 127.12 98.34 127.81
  C 96.28 128.22 94.62 129.64 93.83 131.61
  C 93.31 132.91 92.69 134.66 91.38 135.29
  A 0.67 0.67 0.0 0 1 90.42 134.70
  Q 90.36 132.03 91.24 129.71
  Q 91.83 128.17 92.16 126.54
  Q 92.55 124.56 93.66 123.23
  Q 94.79 121.88 97.08 121.67
  Q 99.24 121.47 101.40 121.04
  Q 101.52 121.02 101.60 120.93
  Q 101.68 120.84 101.64 120.69
  Q 101.62 120.61 101.54 120.62
  Q 100.89 120.70 100.98 120.22
  Z"
/>
<ellipse fill="#f4ac70" cx="0.00" cy="0.00" transform="translate(113.96,125.34) rotate(125.1)" rx="1.88" ry="0.74"/>
<path fill="#f8e7b3" d="
  M 126.87 133.96
  Q 125.93 134.52 123.20 133.36
  Q 122.79 132.14 123.92 131.41
  C 125.54 130.35 126.98 129.60 128.13 127.96
  Q 131.58 123.05 138.53 123.89
  A 0.50 0.50 0.0 0 1 138.77 124.78
  L 126.87 133.96
  Z"
/>
<path fill="#f4ac70" d="
  M 127.12 126.27
  Q 126.34 127.00 125.44 126.38
  Q 124.43 125.69 125.43 124.98
  Q 126.73 124.06 128.13 125.10
  A 0.50 0.50 0.0 0 1 128.23 125.82
  Q 128.00 126.10 127.64 126.08
  Q 127.34 126.06 127.12 126.27
  Z"
/>
<ellipse fill="#f4ac70" cx="0.00" cy="0.00" transform="translate(120.27,126.42) rotate(108.3)" rx="1.05" ry="0.74"/>
<path fill="#f8e7b3" d="
  M 163.11 135.24
  Q 160.40 136.05 158.44 138.59
  L 153.21 144.58
  A 0.92 0.92 0.0 0 1 152.41 144.88
  Q 151.55 144.76 151.38 143.93
  Q 151.28 143.46 151.56 142.84
  Q 152.68 140.34 154.34 138.01
  Q 157.28 134.28 160.16 132.44
  Q 166.29 128.10 171.76 127.20
  A 1.33 1.33 0.0 0 1 173.29 128.36
  Q 173.42 129.54 172.73 130.41
  C 171.60 131.84 167.05 133.21 165.24 133.79
  Q 164.29 134.10 163.11 135.24
  Z"
/>
<path fill="#fecd76" d="
  M 101.04 180.58
  C 114.24 179.78 126.23 175.89 139.29 171.29
  Q 144.94 169.31 149.06 166.26
  Q 153.50 165.70 155.99 163.76
  Q 159.45 161.07 162.77 155.37
  Q 164.09 153.11 165.97 151.40
  Q 169.34 148.34 173.46 145.17
  Q 176.81 142.59 179.93 140.16
  C 181.99 138.56 183.41 136.43 185.28 134.61
  C 187.65 132.30 188.62 129.46 191.25 127.52
  A 1.17 1.17 0.0 0 1 193.10 128.25
  Q 193.39 129.79 192.67 130.99
  Q 192.06 132.01 191.38 133.10
  Q 190.73 134.15 189.87 135.15
  Q 186.15 139.52 183.00 142.69
  Q 177.69 148.05 172.05 153.53
  Q 170.08 155.43 168.28 157.44
  Q 166.46 159.47 164.39 161.18
  Q 162.24 162.97 160.45 165.19
  Q 159.45 166.43 157.93 166.88
  Q 157.49 167.01 157.25 167.40
  Q 157.12 167.62 156.91 167.76
  Q 151.56 171.32 145.48 174.08
  C 144.62 174.47 143.61 174.52 142.74 174.92
  Q 140.62 175.91 135.79 177.37
  C 126.29 180.24 116.70 182.62 107.32 185.61
  Q 105.31 186.24 103.01 185.72
  A 1.66 1.65 -83.3 0 1 101.73 184.09
  L 101.75 182.77
  Q 101.75 182.22 101.27 181.95
  Q 100.52 181.54 101.04 180.58
  Z"
/>
<path fill="#f3c122" d="
  M 79.28 137.90
  Q 80.37 143.05 80.38 147.69
  Q 80.39 148.13 80.01 148.37
  L 71.01 153.89
  A 0.68 0.67 -43.0 0 1 70.27 153.87
  Q 70.03 153.71 69.74 153.73
  C 67.03 153.84 63.84 154.57 61.50 152.96
  C 58.61 150.97 55.45 147.50 57.95 143.85
  Q 61.14 139.18 65.30 135.16
  C 67.37 133.15 68.86 130.64 71.04 128.69
  C 72.66 127.24 74.37 128.38 75.77 129.39
  C 79.11 131.81 78.56 134.44 79.28 137.90
  Z"
/>
<ellipse fill="#f4ac70" cx="0.00" cy="0.00" transform="translate(111.97,133.00) rotate(9.8)" rx="1.96" ry="0.88"/>
<path fill="#f4ac70" d="
  M 123.20 133.36
  Q 125.93 134.52 126.87 133.96
  Q 127.62 134.63 127.10 135.35
  A 1.11 1.10 -70.8 0 1 126.20 135.79
  Q 123.91 135.76 122.39 134.33
  Q 121.93 133.90 122.47 133.58
  Q 122.78 133.39 123.20 133.36
  Z"
/>
<path fill="#e88678" d="
  M 143.86 150.39
  C 141.06 152.22 137.48 153.54 134.30 154.24
  Q 132.36 154.67 132.01 152.71
  Q 131.02 147.17 130.34 141.51
  Q 130.03 138.93 130.92 136.55
  A 2.26 2.26 0.0 0 1 133.58 135.14
  C 136.59 135.86 140.78 140.56 142.97 142.69
  C 144.97 144.63 147.13 148.26 143.86 150.39
  Z"
/>
<path fill="#f4ac70" d="
  M 163.11 135.24
  Q 163.58 139.55 158.44 138.59
  Q 160.40 136.05 163.11 135.24
  Z"
/>
<path fill="#f3c122" d="
  M 115.92 138.59
  Q 116.75 137.93 117.45 138.73
  Q 120.43 142.19 123.03 145.44
  C 124.53 147.32 124.16 149.52 123.38 151.60
  Q 121.78 155.87 117.37 156.51
  Q 110.09 157.58 101.06 158.42
  Q 100.23 158.50 99.68 157.91
  C 97.83 155.93 101.07 151.47 102.50 150.12
  Q 108.17 144.80 115.92 138.59
  Z"
/>
<ellipse fill="#f4ac70" cx="0.00" cy="0.00" transform="translate(53.07,140.26) rotate(-25.0)" rx="2.38" ry="0.61"/>
<path fill="#fecd76" d="
  M 84.54 140.71
  Q 84.44 140.50 85.08 140.21
  Q 87.15 139.55 88.61 141.66
  Q 89.93 143.56 91.25 145.68
  Q 91.54 146.14 92.09 146.13
  Q 94.50 146.08 97.03 144.52
  Q 97.50 144.23 98.05 144.33
  Q 99.76 144.66 99.88 146.78
  Q 99.93 147.64 99.31 148.23
  Q 97.43 149.99 95.91 151.80
  C 93.91 154.17 92.49 159.40 96.13 161.29
  Q 99.63 163.11 103.98 162.50
  Q 108.00 161.94 112.21 160.16
  Q 114.45 159.20 113.29 161.35
  Q 112.83 162.20 112.02 162.69
  Q 109.99 163.94 107.49 164.73
  Q 105.11 165.49 102.75 165.49
  Q 96.49 165.49 89.13 164.65
  C 84.88 164.17 81.00 162.62 76.98 161.40
  C 76.04 161.12 75.03 161.16 74.09 161.34
  Q 70.27 162.09 73.35 159.72
  Q 76.60 157.22 80.35 154.98
  Q 82.21 153.86 83.63 152.78
  C 86.04 150.95 88.61 150.29 90.80 148.36
  A 0.68 0.68 0.0 0 0 90.51 147.19
  Q 87.46 146.46 84.64 147.41
  Q 84.00 147.62 83.89 146.95
  Q 83.34 143.61 84.54 140.71
  Z"
/>
<ellipse fill="#f4ac70" cx="0.00" cy="0.00" transform="translate(104.24,142.10) rotate(-18.2)" rx="2.18" ry="0.79"/>
<ellipse fill="#f4ac70" cx="0.00" cy="0.00" transform="translate(115.77,162.08) rotate(63.3)" rx="1.33" ry="0.61"/>
</svg>
