<?xml version="1.0" encoding="UTF-8" standalone="no"?>
<svg xmlns="http://www.w3.org/2000/svg" version="1.2" baseProfile="tiny" viewBox="0.00 0.00 110.00 82.00">
<path fill="#68b405" d="
  M 56.43 19.65
  Q 56.29 20.46 56.44 21.31
  Q 58.83 34.65 57.87 46.10
  Q 57.61 49.14 56.66 52.32
  Q 56.20 53.83 55.60 52.37
  Q 51.01 41.19 43.22 31.09
  C 42.40 30.03 42.68 29.04 42.87 27.85
  Q 44.93 14.51 50.86 2.68
  A 0.90 0.90 0.0 0 1 52.20 2.36
  Q 62.92 10.33 68.67 21.18
  Q 73.78 30.82 71.15 41.02
  A 2.66 2.65 78.6 0 1 70.21 42.44
  Q 65.81 45.77 61.90 49.71
  Q 60.74 50.87 60.94 49.24
  Q 62.42 37.10 58.56 24.66
  Q 57.78 22.15 56.89 19.61
  Q 56.58 18.73 56.43 19.65
  Z"
/>
<path fill="#68b405" d="
  M 22.68 36.15
  Q 22.57 36.82 22.86 37.40
  C 28.82 49.13 40.09 58.80 51.87 64.19
  Q 53.52 64.95 51.73 65.23
  Q 42.17 66.76 34.08 64.60
  C 18.51 60.45 11.29 46.43 7.95 32.00
  Q 6.12 24.13 1.43 20.94
  Q -0.50 19.63 1.78 19.13
  Q 18.07 15.53 31.36 24.43
  Q 38.06 28.92 44.07 37.99
  Q 49.56 46.27 53.12 55.20
  Q 53.41 55.92 53.21 56.68
  Q 53.08 57.20 52.57 57.03
  Q 34.29 50.85 23.28 36.01
  Q 22.81 35.38 22.68 36.15
  Z"
/>
<path fill="#68b405" d="
  M 83.99 50.72
  L 83.78 50.54
  A 0.46 0.45 -42.8 0 0 83.20 50.52
  Q 71.98 59.07 58.24 60.03
  A 0.72 0.72 0.0 0 1 57.60 58.90
  Q 63.37 50.64 71.12 44.78
  Q 83.47 35.46 98.18 39.56
  C 99.70 39.99 101.01 41.02 102.55 41.42
  Q 104.99 42.07 102.70 43.11
  C 98.13 45.18 96.19 49.84 93.79 53.81
  C 85.62 67.31 72.50 73.24 57.33 66.42
  Q 55.90 65.77 57.43 65.44
  Q 74.10 61.88 84.00 50.89
  Q 84.08 50.80 83.99 50.72
  Z"
/>
</svg>
