<?xml version="1.0" encoding="UTF-8" standalone="no"?>
<svg xmlns="http://www.w3.org/2000/svg" version="1.2" baseProfile="tiny" viewBox="0.00 0.00 512.00 512.00">
<g stroke-width="2.00" fill="none" stroke-linecap="butt">
<path stroke="#bb6d37" vector-effect="non-scaling-stroke" d="
  M 368.41 120.18
  L 340.45 120.18"
/>
<path stroke="#fbb856" vector-effect="non-scaling-stroke" d="
  M 340.45 120.18
  Q 342.09 107.36 341.35 93.55
  C 340.31 74.31 334.49 55.61 321.83 41.46
  Q 309.71 27.93 293.15 20.28
  Q 292.25 19.86 291.88 20.09"
/>
<path stroke="#faae39" vector-effect="non-scaling-stroke" d="
  M 291.88 20.09
  Q 291.42 19.40 291.19 19.33
  Q 285.92 17.59 282.30 15.94"
/>
<path stroke="#fdcf57" vector-effect="non-scaling-stroke" d="
  M 291.88 20.09
  L 259.94 43.46"
/>
<path stroke="#f98540" vector-effect="non-scaling-stroke" d="
  M 259.94 43.46
  Q 257.23 39.37 253.35 37.11"
/>
<path stroke="#be8e55" vector-effect="non-scaling-stroke" d="
  M 340.45 120.18
  Q 336.74 120.00 333.47 120.12
  Q 329.37 120.26 326.80 121.66
  Q 319.95 125.40 320.62 134.49"
/>
<path stroke="#b68850" vector-effect="non-scaling-stroke" d="
  M 320.62 134.49
  L 320.58 146.76"
/>
<path stroke="#db9e4c" vector-effect="non-scaling-stroke" d="
  M 320.58 146.76
  Q 320.55 153.67 320.50 160.50
  Q 320.44 168.12 313.84 172.68"
/>
<path stroke="#fdcf57" vector-effect="non-scaling-stroke" d="
  M 313.84 172.68
  Q 311.60 170.71 311.00 170.01
  Q 307.47 165.91 307.46 160.91
  Q 307.42 147.68 307.44 133.61
  Q 307.46 125.76 302.43 122.33
  Q 295.01 117.25 287.99 122.96"
/>
<path stroke="#be8e55" vector-effect="non-scaling-stroke" d="
  M 287.99 122.96
  Q 283.55 118.95 278.00 120.32
  Q 267.69 122.87 268.56 134.51"
/>
<path stroke="#b68850" vector-effect="non-scaling-stroke" d="
  M 268.56 134.51
  L 268.52 146.79"
/>
<path stroke="#db9e4c" vector-effect="non-scaling-stroke" d="
  M 268.52 146.79
  Q 269.16 156.07 262.00 161.19"
/>
<path stroke="#fdcf57" vector-effect="non-scaling-stroke" d="
  M 262.00 161.19
  Q 255.19 156.32 255.28 148.00
  Q 255.35 141.79 255.36 135.17
  Q 255.38 128.91 253.74 126.12
  Q 250.87 121.22 245.01 120.24
  Q 239.76 119.35 233.75 121.36"
/>
<path stroke="#be8e55" vector-effect="non-scaling-stroke" d="
  M 233.75 121.36
  Q 227.42 118.87 221.50 120.44
  Q 211.68 123.03 212.48 134.36"
/>
<path stroke="#b68850" vector-effect="non-scaling-stroke" d="
  M 212.48 134.36
  L 212.47 146.83"
/>
<path stroke="#db9e4c" vector-effect="non-scaling-stroke" d="
  M 212.47 146.83
  Q 212.44 160.70 212.41 174.25
  Q 212.39 182.38 205.72 187.37"
/>
<path stroke="#fdcf57" vector-effect="non-scaling-stroke" d="
  M 205.72 187.37
  Q 199.23 181.78 199.24 174.75
  Q 199.27 154.56 199.24 136.26
  Q 199.23 129.27 197.80 126.47
  Q 195.29 121.56 189.01 120.20
  Q 185.12 119.36 176.04 120.63"
/>
<path stroke="#be8e55" vector-effect="non-scaling-stroke" d="
  M 176.04 120.63
  L 168.57 120.14"
/>
<path stroke="#fdcf57" vector-effect="non-scaling-stroke" d="
  M 168.57 120.14
  C 164.83 118.11 164.04 113.70 167.45 111.20
  Q 192.59 92.80 217.88 74.31"
/>
<path stroke="#fa8f5d" vector-effect="non-scaling-stroke" d="
  M 217.88 74.31
  Q 223.77 81.44 231.74 83.46
  C 243.67 86.49 256.71 80.75 261.91 69.65
  Q 268.18 56.27 259.94 43.46"
/>
<path stroke="#c8dd74" vector-effect="non-scaling-stroke" d="
  M 298.8265 44.4626
  A 7.26 7.26 0.0 0 0 293.6001 35.6252
  L 292.7477 35.4064
  A 7.26 7.26 0.0 0 0 283.9103 40.6328
  L 281.4135 50.3574
  A 7.26 7.26 0.0 0 0 286.6399 59.1948
  L 287.4923 59.4136
  A 7.26 7.26 0.0 0 0 296.3297 54.1872
  L 298.8265 44.4626"
/>
<path stroke="#fa8f5d" vector-effect="non-scaling-stroke" d="
  M 315.79 88.80
  A 13.38 13.38 0.0 0 0 302.41 75.42
  A 13.38 13.38 0.0 0 0 289.03 88.80
  A 13.38 13.38 0.0 0 0 302.41 102.18
  A 13.38 13.38 0.0 0 0 315.79 88.80"
/>
<path stroke="#c8dd74" vector-effect="non-scaling-stroke" d="
  M 263.0401 111.0352
  A 7.29 7.29 0.0 0 0 263.0401 100.7256
  L 262.4744 100.1599
  A 7.29 7.29 0.0 0 0 252.1648 100.1599
  L 247.2999 105.0248
  A 7.29 7.29 0.0 0 0 247.2999 115.3344
  L 247.8656 115.9001
  A 7.29 7.29 0.0 0 0 258.1752 115.9001
  L 263.0401 111.0352"
/>
<path stroke="#c8dd74" vector-effect="non-scaling-stroke" d="
  M 210.6701 111.3398
  A 7.26 7.26 0.0 0 0 206.4613 101.9749
  L 198.8144 99.0701
  A 7.26 7.26 0.0 0 0 189.4495 103.2789
  L 189.1299 104.1202
  A 7.26 7.26 0.0 0 0 193.3387 113.4851
  L 200.9856 116.3899
  A 7.26 7.26 0.0 0 0 210.3505 112.1811
  L 210.6701 111.3398"
/>
<path stroke="#f98540" vector-effect="non-scaling-stroke" d="
  M 217.88 74.31
  Q 214.81 70.70 213.85 66.02"
/>
<path stroke="#bd8438" vector-effect="non-scaling-stroke" d="
  M 168.57 120.14
  L 153.95 120.14"
/>
<path stroke="#763d31" vector-effect="non-scaling-stroke" d="
  M 120.11 120.14
  Q 120.10 129.67 127.46 133.06
  Q 130.56 134.49 137.26 134.50
  Q 160.58 134.54 183.96 134.38"
/>
<path stroke="#b57e33" vector-effect="non-scaling-stroke" d="
  M 183.96 134.38
  L 183.98 146.82"
/>
<path stroke="#924c28" vector-effect="non-scaling-stroke" d="
  M 183.98 146.82
  L 152.27 146.74"
/>
<path stroke="#874221" vector-effect="non-scaling-stroke" d="
  M 152.27 146.74
  L 112.06 146.67"
/>
<path stroke="#bd8438" vector-effect="non-scaling-stroke" d="
  M 176.04 120.63
  Q 184.89 125.22 183.96 134.38"
/>
<path stroke="#da942f" vector-effect="non-scaling-stroke" d="
  M 205.72 187.37
  Q 191.38 193.59 184.98 179.71
  Q 184.01 177.60 184.01 175.25
  Q 184.04 161.27 183.98 146.82"
/>
<path stroke="#bd8438" vector-effect="non-scaling-stroke" d="
  M 233.75 121.36
  Q 241.01 126.29 239.95 134.33"
/>
<path stroke="#763d31" vector-effect="non-scaling-stroke" d="
  M 239.95 134.33
  L 212.48 134.36"
/>
<path stroke="#da942f" vector-effect="non-scaling-stroke" d="
  M 262.00 161.19
  Q 255.89 165.22 249.41 162.60
  Q 239.70 158.66 239.97 146.84"
/>
<path stroke="#b57e33" vector-effect="non-scaling-stroke" d="
  M 239.97 146.84
  L 239.95 134.33"
/>
<path stroke="#bd8438" vector-effect="non-scaling-stroke" d="
  M 287.99 122.96
  Q 292.94 127.85 291.97 134.37"
/>
<path stroke="#763d31" vector-effect="non-scaling-stroke" d="
  M 291.97 134.37
  L 268.56 134.51"
/>
<path stroke="#763d31" vector-effect="non-scaling-stroke" d="
  M 411.84 134.51
  L 320.62 134.49"
/>
<path stroke="#da942f" vector-effect="non-scaling-stroke" d="
  M 313.84 172.68
  Q 307.81 176.74 300.97 173.81
  Q 295.25 171.35 293.15 165.92
  Q 292.06 163.11 292.04 156.42
  Q 292.02 151.61 292.02 146.78"
/>
<path stroke="#b57e33" vector-effect="non-scaling-stroke" d="
  M 292.02 146.78
  L 291.97 134.37"
/>
<path stroke="#924c28" vector-effect="non-scaling-stroke" d="
  M 239.97 146.84
  L 212.47 146.83"
/>
<path stroke="#924c28" vector-effect="non-scaling-stroke" d="
  M 292.02 146.78
  L 268.52 146.79"
/>
<path stroke="#924c28" vector-effect="non-scaling-stroke" d="
  M 400.23 146.76
  L 320.58 146.76"
/>
<path stroke="#ac581d" vector-effect="non-scaling-stroke" d="
  M 152.27 146.74
  C 158.79 172.42 179.39 191.29 205.76 194.03
  Q 208.66 194.33 225.75 194.33
  Q 312.98 194.34 400.26 194.36"
/>
<path stroke="#cb492e" vector-effect="non-scaling-stroke" d="
  M 400.38 213.39
  L 368.30 213.42"
/>
<path stroke="#c49a7e" vector-effect="non-scaling-stroke" d="
  M 368.30 213.42
  L 336.29 213.45"
/>
<path stroke="#cb492e" vector-effect="non-scaling-stroke" d="
  M 336.29 213.45
  L 304.36 213.44"
/>
<path stroke="#c49a7e" vector-effect="non-scaling-stroke" d="
  M 304.36 213.44
  L 272.31 213.46"
/>
<path stroke="#cb492e" vector-effect="non-scaling-stroke" d="
  M 272.31 213.46
  L 240.36 213.44"
/>
<path stroke="#c49a7e" vector-effect="non-scaling-stroke" d="
  M 240.36 213.44
  L 208.33 213.45"
/>
<path stroke="#cb492e" vector-effect="non-scaling-stroke" d="
  M 208.33 213.45
  L 176.38 213.43"
/>
<path stroke="#c49a7e" vector-effect="non-scaling-stroke" d="
  M 176.38 213.43
  L 144.33 213.46"
/>
<path stroke="#cb492e" vector-effect="non-scaling-stroke" d="
  M 144.33 213.46
  L 112.13 213.53"
/>
<path stroke="#ef9697" vector-effect="non-scaling-stroke" d="
  M 144.33 213.46
  L 121.79 279.36"
/>
<path stroke="#e28889" vector-effect="non-scaling-stroke" d="
  M 121.79 279.36
  Q 121.70 279.81 121.53 279.95"
/>
<path stroke="#eb313c" vector-effect="non-scaling-stroke" d="
  M 121.53 279.95
  Q 121.00 279.21 119.50 279.20
  Q 101.15 279.15 82.92 279.47"
/>
<path stroke="#ef9697" vector-effect="non-scaling-stroke" d="
  M 208.33 213.45
  L 198.76 279.28"
/>
<path stroke="#e28889" vector-effect="non-scaling-stroke" d="
  M 198.76 279.28
  Q 198.76 279.81 198.52 279.92"
/>
<path stroke="#eb313c" vector-effect="non-scaling-stroke" d="
  M 198.52 279.92
  Q 197.85 279.26 195.75 279.25
  Q 178.11 279.16 160.17 279.34"
/>
<path stroke="#e28889" vector-effect="non-scaling-stroke" d="
  M 160.17 279.34
  Q 160.13 279.32 160.09 279.31"
/>
<path stroke="#ef9697" vector-effect="non-scaling-stroke" d="
  M 160.09 279.31
  L 176.38 213.43"
/>
<path stroke="#ef9697" vector-effect="non-scaling-stroke" d="
  M 272.31 213.46
  L 275.54 278.54"
/>
<path stroke="#e28889" vector-effect="non-scaling-stroke" d="
  M 275.54 278.54
  L 275.47 279.70"
/>
<path stroke="#eb313c" vector-effect="non-scaling-stroke" d="
  M 275.47 279.70
  Q 275.19 279.60 275.04 279.46
  Q 274.77 279.23 274.42 279.23
  L 237.16 279.32"
/>
<path stroke="#e28889" vector-effect="non-scaling-stroke" d="
  M 237.16 279.32
  L 237.12 278.54"
/>
<path stroke="#ef9697" vector-effect="non-scaling-stroke" d="
  M 237.12 278.54
  L 240.36 213.44"
/>
<path stroke="#ef9697" vector-effect="non-scaling-stroke" d="
  M 336.29 213.45
  L 352.55 279.19"
/>
<path stroke="#e28889" vector-effect="non-scaling-stroke" d="
  M 352.55 279.19
  Q 352.51 279.22 352.47 279.26"
/>
<path stroke="#eb313c" vector-effect="non-scaling-stroke" d="
  M 352.47 279.26
  L 314.12 279.32"
/>
<path stroke="#e28889" vector-effect="non-scaling-stroke" d="
  M 314.12 279.32
  Q 314.11 279.34 314.10 279.36"
/>
<path stroke="#ef9697" vector-effect="non-scaling-stroke" d="
  M 314.10 279.36
  L 304.36 213.44"
/>
<path stroke="#eb313c" vector-effect="non-scaling-stroke" d="
  M 429.76 279.41
  L 391.13 279.50"
/>
<path stroke="#e28889" vector-effect="non-scaling-stroke" d="
  M 391.13 279.50
  Q 390.84 279.34 390.90 278.76"
/>
<path stroke="#ef9697" vector-effect="non-scaling-stroke" d="
  M 390.90 278.76
  L 368.30 213.42"
/>
<path stroke="#dbdada" vector-effect="non-scaling-stroke" d="
  M 160.09 279.31
  L 121.79 279.36"
/>
<path stroke="#dbdada" vector-effect="non-scaling-stroke" d="
  M 237.12 278.54
  L 237.01 278.90
  Q 236.92 279.20 236.61 279.20
  L 198.76 279.28"
/>
<path stroke="#dbdada" vector-effect="non-scaling-stroke" d="
  M 314.10 279.36
  Q 295.27 279.29 276.60 279.33
  Q 276.17 279.33 275.96 279.13
  Q 275.73 278.91 275.54 278.54"
/>
<path stroke="#dbdada" vector-effect="non-scaling-stroke" d="
  M 390.90 278.76
  Q 390.80 278.82 390.74 278.98
  Q 390.66 279.19 390.43 279.19
  L 352.55 279.19"
/>
<path stroke="#d7757f" vector-effect="non-scaling-stroke" d="
  M 237.16 279.32
  L 237.26 322.27"
/>
<path stroke="#e3b182" vector-effect="non-scaling-stroke" d="
  M 237.26 322.27
  Q 233.65 333.59 224.24 336.79
  C 212.34 340.83 200.87 333.28 198.46 321.22"
/>
<path stroke="#d7757f" vector-effect="non-scaling-stroke" d="
  M 198.46 321.22
  L 198.52 279.92"
/>
<path stroke="#d7757f" vector-effect="non-scaling-stroke" d="
  M 314.12 279.32
  L 314.24 322.24"
/>
<path stroke="#e3b182" vector-effect="non-scaling-stroke" d="
  M 314.24 322.24
  Q 311.32 331.45 303.97 335.47
  Q 297.99 338.73 292.22 337.79
  Q 279.56 335.75 275.43 322.11"
/>
<path stroke="#d7757f" vector-effect="non-scaling-stroke" d="
  M 275.43 322.11
  L 275.47 279.70"
/>
<path stroke="#d7757f" vector-effect="non-scaling-stroke" d="
  M 391.13 279.50
  L 391.30 322.64"
/>
<path stroke="#e3b182" vector-effect="non-scaling-stroke" d="
  M 391.30 322.64
  Q 390.73 323.20 390.65 323.44
  C 385.11 340.53 363.90 343.12 354.61 327.60
  Q 353.89 326.39 352.44 322.02"
/>
<path stroke="#d7757f" vector-effect="non-scaling-stroke" d="
  M 352.44 322.02
  L 352.47 279.26"
/>
<path stroke="#ec5a35" vector-effect="non-scaling-stroke" d="
  M 275.43 322.11
  Q 271.80 333.32 262.68 336.40
  Q 254.74 339.07 247.54 335.37
  Q 240.36 331.67 237.26 322.27"
/>
<path stroke="#ec5a35" vector-effect="non-scaling-stroke" d="
  M 352.44 322.02
  Q 351.77 323.28 351.34 324.59
  C 347.30 336.79 332.53 341.13 322.50 334.15
  Q 316.81 330.20 314.24 322.24"
/>
<path stroke="#d7757f" vector-effect="non-scaling-stroke" d="
  M 121.53 279.95
  L 121.46 322.07"
/>
<path stroke="#ed4e29" vector-effect="non-scaling-stroke" d="
  M 121.46 322.07
  Q 116.39 337.75 100.27 337.58"
/>
<path stroke="#d7757f" vector-effect="non-scaling-stroke" d="
  M 160.17 279.34
  L 160.25 322.27"
/>
<path stroke="#e3b182" vector-effect="non-scaling-stroke" d="
  M 160.25 322.27
  Q 156.98 333.03 147.12 336.92"
/>
<path stroke="#e4a577" vector-effect="non-scaling-stroke" d="
  M 147.12 336.92
  Q 132.80 340.68 124.54 328.84
  C 123.14 326.84 122.35 324.46 121.46 322.07"
/>
<path stroke="#ec5a35" vector-effect="non-scaling-stroke" d="
  M 198.46 321.22
  Q 196.54 329.66 190.43 333.96
  C 180.79 340.75 167.19 337.47 162.07 326.42
  Q 161.22 324.57 160.25 322.27"
/>
<path stroke="#ec5a35" vector-effect="non-scaling-stroke" d="
  M 412.03 337.70
  Q 396.58 337.61 391.30 322.64"
/>
<path stroke="#f88a2d" vector-effect="non-scaling-stroke" d="
  M 412.00 461.92
  L 382.30 461.95"
/>
<path stroke="#d77c2e" vector-effect="non-scaling-stroke" d="
  M 382.30 461.95
  Q 382.26 425.93 382.28 390.26
  Q 382.29 383.74 381.02 380.43
  Q 377.83 372.14 369.61 368.86
  Q 365.83 367.35 358.28 367.41
  Q 332.18 367.59 309.61 367.47
  C 300.12 367.42 291.80 373.57 289.69 382.63
  Q 289.14 384.99 289.14 394.91
  Q 289.17 428.44 289.14 461.46"
/>
<path stroke="#f88a2d" vector-effect="non-scaling-stroke" d="
  M 289.14 461.46
  Q 264.23 460.92 241.12 450.36"
/>
<path stroke="#d1c098" vector-effect="non-scaling-stroke" d="
  M 241.12 450.36
  Q 248.90 449.79 255.27 449.91
  Q 257.77 449.95 259.21 449.13
  C 261.41 447.87 262.61 445.42 262.62 442.91
  Q 262.64 407.92 262.60 374.36
  Q 262.60 371.03 259.91 368.92
  Q 258.12 367.52 253.76 367.49
  Q 224.06 367.33 194.68 367.55"
/>
<path stroke="#9ab396" vector-effect="non-scaling-stroke" d="
  M 194.68 367.55
  L 156.16 367.65"
/>
<path stroke="#f88a2d" vector-effect="non-scaling-stroke" d="
  M 156.16 367.65
  Q 149.79 352.56 147.12 336.92"
/>
<path stroke="#9ba68a" vector-effect="non-scaling-stroke" d="
  M 156.16 367.65
  Q 144.69 367.71 134.00 367.71
  C 130.00 367.71 126.96 369.99 126.96 374.22
  Q 126.93 411.46 126.98 443.59
  C 126.98 445.70 128.12 447.72 129.90 448.82
  Q 131.41 449.76 134.80 449.77
  Q 164.96 449.81 194.70 449.93"
/>
<path stroke="#d2b48d" vector-effect="non-scaling-stroke" d="
  M 194.70 449.93
  L 241.12 450.36"
/>
<path stroke="#d87023" vector-effect="non-scaling-stroke" d="
  M 289.14 461.46
  L 289.03 485.33"
/>
<path stroke="#bc602b" vector-effect="non-scaling-stroke" d="
  M 289.03 485.33
  L 107.08 485.31"
/>
<path stroke="#b35a27" vector-effect="non-scaling-stroke" d="
  M 107.08 485.31
  L 100.27 485.10"
/>
<path stroke="#74ddf6" vector-effect="non-scaling-stroke" d="
  M 194.68 367.55
  L 194.70 449.93"
/>
<path stroke="#d87023" vector-effect="non-scaling-stroke" d="
  M 382.30 461.95
  L 382.42 485.69"
/>
<path stroke="#9b532d" vector-effect="non-scaling-stroke" d="
  M 382.42 485.69
  Q 340.45 485.85 297.75 485.80
  Q 291.32 485.80 289.03 485.33"
/>
<path stroke="#ac581d" vector-effect="non-scaling-stroke" d="
  M 357.39 396.62
  A 4.26 4.26 0.0 0 0 353.13 392.36
  L 318.33 392.36
  A 4.26 4.26 0.0 0 0 314.07 396.62
  L 314.07 414.96
  A 4.26 4.26 0.0 0 0 318.33 419.22
  L 353.13 419.22
  A 4.26 4.26 0.0 0 0 357.39 414.96
  L 357.39 396.62"
/>
<path stroke="#ac581d" vector-effect="non-scaling-stroke" d="
  M 365.0003 454.3312
  A 7.52 7.52 0.0 0 0 357.4935 446.7981
  L 313.8935 446.7220
  A 7.52 7.52 0.0 0 0 306.3604 454.2288
  L 306.3597 454.6688
  A 7.52 7.52 0.0 0 0 313.8665 462.2019
  L 357.4665 462.2780
  A 7.52 7.52 0.0 0 0 364.9996 454.7712
  L 365.0003 454.3312"
/>
<path stroke="#bc602b" vector-effect="non-scaling-stroke" d="
  M 412.00 485.41
  L 382.42 485.69"
/>
<path stroke="#763d31" vector-effect="non-scaling-stroke" d="
  M 107.08 485.31
  Q 106.37 493.61 114.84 497.34
  Q 117.89 498.69 122.25 498.69
  Q 277.66 498.69 433.06 498.69"
/>
</g>
<path fill="#f79638" d="
  M 305.88 0.00
  L 312.91 0.00
  C 340.18 10.90 361.80 31.40 368.89 60.58
  Q 373.26 78.59 371.51 98.25
  Q 370.48 109.74 368.41 120.18
  L 340.45 120.18
  Q 342.09 107.36 341.35 93.55
  C 340.31 74.31 334.49 55.61 321.83 41.46
  Q 309.71 27.93 293.15 20.28
  Q 292.25 19.86 291.88 20.09
  Q 291.42 19.40 291.19 19.33
  Q 285.92 17.59 282.30 15.94
  Q 294.92 6.50 299.96 2.93
  Q 302.31 1.27 305.88 0.00
  Z"
/>
<path fill="#fcc53a" d="
  M 282.30 15.94
  Q 285.92 17.59 291.19 19.33
  Q 291.42 19.40 291.88 20.09
  L 259.94 43.46
  Q 257.23 39.37 253.35 37.11
  L 282.30 15.94
  Z"
/>
<path fill="#fed974" d="
  M 291.88 20.09
  Q 292.25 19.86 293.15 20.28
  Q 309.71 27.93 321.83 41.46
  C 334.49 55.61 340.31 74.31 341.35 93.55
  Q 342.09 107.36 340.45 120.18
  Q 336.74 120.00 333.47 120.12
  Q 329.37 120.26 326.80 121.66
  Q 319.95 125.40 320.62 134.49
  L 320.58 146.76
  Q 320.55 153.67 320.50 160.50
  Q 320.44 168.12 313.84 172.68
  Q 311.60 170.71 311.00 170.01
  Q 307.47 165.91 307.46 160.91
  Q 307.42 147.68 307.44 133.61
  Q 307.46 125.76 302.43 122.33
  Q 295.01 117.25 287.99 122.96
  Q 283.55 118.95 278.00 120.32
  Q 267.69 122.87 268.56 134.51
  L 268.52 146.79
  Q 269.16 156.07 262.00 161.19
  Q 255.19 156.32 255.28 148.00
  Q 255.35 141.79 255.36 135.17
  Q 255.38 128.91 253.74 126.12
  Q 250.87 121.22 245.01 120.24
  Q 239.76 119.35 233.75 121.36
  Q 227.42 118.87 221.50 120.44
  Q 211.68 123.03 212.48 134.36
  L 212.47 146.83
  Q 212.44 160.70 212.41 174.25
  Q 212.39 182.38 205.72 187.37
  Q 199.23 181.78 199.24 174.75
  Q 199.27 154.56 199.24 136.26
  Q 199.23 129.27 197.80 126.47
  Q 195.29 121.56 189.01 120.20
  Q 185.12 119.36 176.04 120.63
  L 168.57 120.14
  C 164.83 118.11 164.04 113.70 167.45 111.20
  Q 192.59 92.80 217.88 74.31
  Q 223.77 81.44 231.74 83.46
  C 243.67 86.49 256.71 80.75 261.91 69.65
  Q 268.18 56.27 259.94 43.46
  L 291.88 20.09
  Z
  M 298.8265 44.4626
  A 7.26 7.26 0.0 0 0 293.6001 35.6252
  L 292.7477 35.4064
  A 7.26 7.26 0.0 0 0 283.9103 40.6328
  L 281.4135 50.3574
  A 7.26 7.26 0.0 0 0 286.6399 59.1948
  L 287.4923 59.4136
  A 7.26 7.26 0.0 0 0 296.3297 54.1872
  L 298.8265 44.4626
  Z
  M 315.79 88.80
  A 13.38 13.38 0.0 0 0 302.41 75.42
  A 13.38 13.38 0.0 0 0 289.03 88.80
  A 13.38 13.38 0.0 0 0 302.41 102.18
  A 13.38 13.38 0.0 0 0 315.79 88.80
  Z
  M 263.0401 111.0352
  A 7.29 7.29 0.0 0 0 263.0401 100.7256
  L 262.4744 100.1599
  A 7.29 7.29 0.0 0 0 252.1648 100.1599
  L 247.2999 105.0248
  A 7.29 7.29 0.0 0 0 247.2999 115.3344
  L 247.8656 115.9001
  A 7.29 7.29 0.0 0 0 258.1752 115.9001
  L 263.0401 111.0352
  Z
  M 210.6701 111.3398
  A 7.26 7.26 0.0 0 0 206.4613 101.9749
  L 198.8144 99.0701
  A 7.26 7.26 0.0 0 0 189.4495 103.2789
  L 189.1299 104.1202
  A 7.26 7.26 0.0 0 0 193.3387 113.4851
  L 200.9856 116.3899
  A 7.26 7.26 0.0 0 0 210.3505 112.1811
  L 210.6701 111.3398
  Z"
/>
<rect fill="#92e174" x="-7.70" y="-12.28" transform="translate(290.12,47.41) rotate(14.4)" width="15.40" height="24.56" rx="7.26"/>
<path fill="#f64446" d="
  M 253.35 37.11
  Q 257.23 39.37 259.94 43.46
  Q 268.18 56.27 261.91 69.65
  C 256.71 80.75 243.67 86.49 231.74 83.46
  Q 223.77 81.44 217.88 74.31
  Q 214.81 70.70 213.85 66.02
  L 253.35 37.11
  Z"
/>
<path fill="#fcc53a" d="
  M 213.85 66.02
  Q 214.81 70.70 217.88 74.31
  Q 192.59 92.80 167.45 111.20
  C 164.04 113.70 164.83 118.11 168.57 120.14
  L 153.95 120.14
  C 149.90 119.07 148.50 114.11 152.14 111.42
  Q 183.03 88.61 213.85 66.02
  Z"
/>
<circle fill="#f64446" cx="302.41" cy="88.80" r="13.38"/>
<rect fill="#92e174" x="-7.69" y="-10.73" transform="translate(255.17,108.03) rotate(45.0)" width="15.38" height="21.46" rx="7.29"/>
<rect fill="#92e174" x="-11.35" y="-7.71" transform="translate(199.90,107.73) rotate(20.8)" width="22.70" height="15.42" rx="7.26"/>
<path fill="#6d362c" d="
  M 120.11 120.14
  Q 120.10 129.67 127.46 133.06
  Q 130.56 134.49 137.26 134.50
  Q 160.58 134.54 183.96 134.38
  L 183.98 146.82
  L 152.27 146.74
  L 112.06 146.67
  Q 104.05 144.85 101.53 138.27
  C 99.19 132.14 101.12 126.03 106.54 122.29
  Q 110.34 119.68 115.01 119.82
  Q 118.03 119.90 120.11 120.14
  Z"
/>
<path fill="#7e4335" d="
  M 120.11 120.14
  L 153.95 120.14
  L 168.57 120.14
  L 176.04 120.63
  Q 184.89 125.22 183.96 134.38
  Q 160.58 134.54 137.26 134.50
  Q 130.56 134.49 127.46 133.06
  Q 120.10 129.67 120.11 120.14
  Z"
/>
<path fill="#fcc53a" d="
  M 205.72 187.37
  Q 191.38 193.59 184.98 179.71
  Q 184.01 177.60 184.01 175.25
  Q 184.04 161.27 183.98 146.82
  L 183.96 134.38
  Q 184.89 125.22 176.04 120.63
  Q 185.12 119.36 189.01 120.20
  Q 195.29 121.56 197.80 126.47
  Q 199.23 129.27 199.24 136.26
  Q 199.27 154.56 199.24 174.75
  Q 199.23 181.78 205.72 187.37
  Z"
/>
<path fill="#7e4335" d="
  M 233.75 121.36
  Q 241.01 126.29 239.95 134.33
  L 212.48 134.36
  Q 211.68 123.03 221.50 120.44
  Q 227.42 118.87 233.75 121.36
  Z"
/>
<path fill="#fcc53a" d="
  M 262.00 161.19
  Q 255.89 165.22 249.41 162.60
  Q 239.70 158.66 239.97 146.84
  L 239.95 134.33
  Q 241.01 126.29 233.75 121.36
  Q 239.76 119.35 245.01 120.24
  Q 250.87 121.22 253.74 126.12
  Q 255.38 128.91 255.36 135.17
  Q 255.35 141.79 255.28 148.00
  Q 255.19 156.32 262.00 161.19
  Z"
/>
<path fill="#7e4335" d="
  M 287.99 122.96
  Q 292.94 127.85 291.97 134.37
  L 268.56 134.51
  Q 267.69 122.87 278.00 120.32
  Q 283.55 118.95 287.99 122.96
  Z"
/>
<path fill="#7e4335" d="
  M 340.45 120.18
  L 368.41 120.18
  Q 383.48 120.16 398.50 120.17
  Q 403.84 120.18 407.62 123.88
  Q 412.11 128.27 411.84 134.51
  L 320.62 134.49
  Q 319.95 125.40 326.80 121.66
  Q 329.37 120.26 333.47 120.12
  Q 336.74 120.00 340.45 120.18
  Z"
/>
<path fill="#fcc53a" d="
  M 313.84 172.68
  Q 307.81 176.74 300.97 173.81
  Q 295.25 171.35 293.15 165.92
  Q 292.06 163.11 292.04 156.42
  Q 292.02 151.61 292.02 146.78
  L 291.97 134.37
  Q 292.94 127.85 287.99 122.96
  Q 295.01 117.25 302.43 122.33
  Q 307.46 125.76 307.44 133.61
  Q 307.42 147.68 307.46 160.91
  Q 307.47 165.91 311.00 170.01
  Q 311.60 170.71 313.84 172.68
  Z"
/>
<path fill="#6d362c" d="
  M 212.48 134.36
  L 239.95 134.33
  L 239.97 146.84
  L 212.47 146.83
  L 212.48 134.36
  Z"
/>
<path fill="#6d362c" d="
  M 291.97 134.37
  L 292.02 146.78
  L 268.52 146.79
  L 268.56 134.51
  L 291.97 134.37
  Z"
/>
<path fill="#6d362c" d="
  M 411.84 134.51
  Q 410.97 142.29 403.90 145.58
  Q 403.27 145.87 402.07 146.16
  Q 401.05 146.41 400.23 146.76
  L 320.58 146.76
  L 320.62 134.49
  L 411.84 134.51
  Z"
/>
<path fill="#a04d15" d="
  M 152.27 146.74
  C 158.79 172.42 179.39 191.29 205.76 194.03
  Q 208.66 194.33 225.75 194.33
  Q 312.98 194.34 400.26 194.36
  L 400.38 213.39
  L 368.30 213.42
  L 336.29 213.45
  L 304.36 213.44
  L 272.31 213.46
  L 240.36 213.44
  L 208.33 213.45
  L 176.38 213.43
  L 144.33 213.46
  L 112.13 213.53
  L 112.06 146.67
  L 152.27 146.74
  Z"
/>
<path fill="#b76224" d="
  M 292.02 146.78
  Q 292.02 151.61 292.04 156.42
  Q 292.06 163.11 293.15 165.92
  Q 295.25 171.35 300.97 173.81
  Q 307.81 176.74 313.84 172.68
  Q 320.44 168.12 320.50 160.50
  Q 320.55 153.67 320.58 146.76
  L 400.23 146.76
  L 400.26 194.36
  Q 312.98 194.34 225.75 194.33
  Q 208.66 194.33 205.76 194.03
  C 179.39 191.29 158.79 172.42 152.27 146.74
  L 183.98 146.82
  Q 184.04 161.27 184.01 175.25
  Q 184.01 177.60 184.98 179.71
  Q 191.38 193.59 205.72 187.37
  Q 212.39 182.38 212.41 174.25
  Q 212.44 160.70 212.47 146.83
  L 239.97 146.84
  Q 239.70 158.66 249.41 162.60
  Q 255.89 165.22 262.00 161.19
  Q 269.16 156.07 268.52 146.79
  L 292.02 146.78
  Z"
/>
<path fill="#f64446" d="
  M 144.33 213.46
  L 121.79 279.36
  Q 121.70 279.81 121.53 279.95
  Q 121.00 279.21 119.50 279.20
  Q 101.15 279.15 82.92 279.47
  L 112.13 213.53
  L 144.33 213.46
  Z"
/>
<path fill="#f64446" d="
  M 208.33 213.45
  L 198.76 279.28
  Q 198.76 279.81 198.52 279.92
  Q 197.85 279.26 195.75 279.25
  Q 178.11 279.16 160.17 279.34
  Q 160.13 279.32 160.09 279.31
  L 176.38 213.43
  L 208.33 213.45
  Z"
/>
<path fill="#f64446" d="
  M 272.31 213.46
  L 275.54 278.54
  L 275.47 279.70
  Q 275.19 279.60 275.04 279.46
  Q 274.77 279.23 274.42 279.23
  L 237.16 279.32
  L 237.12 278.54
  L 240.36 213.44
  L 272.31 213.46
  Z"
/>
<path fill="#f64446" d="
  M 336.29 213.45
  L 352.55 279.19
  Q 352.51 279.22 352.47 279.26
  L 314.12 279.32
  Q 314.11 279.34 314.10 279.36
  L 304.36 213.44
  L 336.29 213.45
  Z"
/>
<path fill="#f64446" d="
  M 400.38 213.39
  L 429.76 279.41
  L 391.13 279.50
  Q 390.84 279.34 390.90 278.76
  L 368.30 213.42
  L 400.38 213.39
  Z"
/>
<path fill="#e7e7e7" d="
  M 144.33 213.46
  L 176.38 213.43
  L 160.09 279.31
  L 121.79 279.36
  L 144.33 213.46
  Z"
/>
<path fill="#e7e7e7" d="
  M 208.33 213.45
  L 240.36 213.44
  L 237.12 278.54
  L 237.01 278.90
  Q 236.92 279.20 236.61 279.20
  L 198.76 279.28
  L 208.33 213.45
  Z"
/>
<path fill="#e7e7e7" d="
  M 272.31 213.46
  L 304.36 213.44
  L 314.10 279.36
  Q 295.27 279.29 276.60 279.33
  Q 276.17 279.33 275.96 279.13
  Q 275.73 278.91 275.54 278.54
  L 272.31 213.46
  Z"
/>
<path fill="#e7e7e7" d="
  M 336.29 213.45
  L 368.30 213.42
  L 390.90 278.76
  Q 390.80 278.82 390.74 278.98
  Q 390.66 279.19 390.43 279.19
  L 352.55 279.19
  L 336.29 213.45
  Z"
/>
<path fill="#cecccc" d="
  M 237.12 278.54
  L 237.16 279.32
  L 237.26 322.27
  Q 233.65 333.59 224.24 336.79
  C 212.34 340.83 200.87 333.28 198.46 321.22
  L 198.52 279.92
  Q 198.76 279.81 198.76 279.28
  L 236.61 279.20
  Q 236.92 279.20 237.01 278.90
  L 237.12 278.54
  Z"
/>
<path fill="#cecccc" d="
  M 275.54 278.54
  Q 275.73 278.91 275.96 279.13
  Q 276.17 279.33 276.60 279.33
  Q 295.27 279.29 314.10 279.36
  Q 314.11 279.34 314.12 279.32
  L 314.24 322.24
  Q 311.32 331.45 303.97 335.47
  Q 297.99 338.73 292.22 337.79
  Q 279.56 335.75 275.43 322.11
  L 275.47 279.70
  L 275.54 278.54
  Z"
/>
<path fill="#cecccc" d="
  M 390.90 278.76
  Q 390.84 279.34 391.13 279.50
  L 391.30 322.64
  Q 390.73 323.20 390.65 323.44
  C 385.11 340.53 363.90 343.12 354.61 327.60
  Q 353.89 326.39 352.44 322.02
  L 352.47 279.26
  Q 352.51 279.22 352.55 279.19
  L 390.43 279.19
  Q 390.66 279.19 390.74 278.98
  Q 390.80 278.82 390.90 278.76
  Z"
/>
<path fill="#e01e31" d="
  M 275.47 279.70
  L 275.43 322.11
  Q 271.80 333.32 262.68 336.40
  Q 254.74 339.07 247.54 335.37
  Q 240.36 331.67 237.26 322.27
  L 237.16 279.32
  L 274.42 279.23
  Q 274.77 279.23 275.04 279.46
  Q 275.19 279.60 275.47 279.70
  Z"
/>
<path fill="#e01e31" d="
  M 352.47 279.26
  L 352.44 322.02
  Q 351.77 323.28 351.34 324.59
  C 347.30 336.79 332.53 341.13 322.50 334.15
  Q 316.81 330.20 314.24 322.24
  L 314.12 279.32
  L 352.47 279.26
  Z"
/>
<path fill="#e01e31" d="
  M 121.53 279.95
  L 121.46 322.07
  Q 116.39 337.75 100.27 337.58
  Q 88.51 335.80 84.47 325.67
  Q 83.13 322.33 83.09 316.38
  Q 82.96 298.16 82.92 279.47
  Q 101.15 279.15 119.50 279.20
  Q 121.00 279.21 121.53 279.95
  Z"
/>
<path fill="#cecccc" d="
  M 160.09 279.31
  Q 160.13 279.32 160.17 279.34
  L 160.25 322.27
  Q 156.98 333.03 147.12 336.92
  Q 132.80 340.68 124.54 328.84
  C 123.14 326.84 122.35 324.46 121.46 322.07
  L 121.53 279.95
  Q 121.70 279.81 121.79 279.36
  L 160.09 279.31
  Z"
/>
<path fill="#e01e31" d="
  M 198.52 279.92
  L 198.46 321.22
  Q 196.54 329.66 190.43 333.96
  C 180.79 340.75 167.19 337.47 162.07 326.42
  Q 161.22 324.57 160.25 322.27
  L 160.17 279.34
  Q 178.11 279.16 195.75 279.25
  Q 197.85 279.26 198.52 279.92
  Z"
/>
<path fill="#e01e31" d="
  M 429.76 279.41
  Q 429.79 296.83 429.73 313.70
  Q 429.70 321.82 428.24 325.61
  Q 424.35 335.70 412.03 337.70
  Q 396.58 337.61 391.30 322.64
  L 391.13 279.50
  L 429.76 279.41
  Z"
/>
<path fill="#f79638" d="
  M 198.46 321.22
  C 200.87 333.28 212.34 340.83 224.24 336.79
  Q 233.65 333.59 237.26 322.27
  Q 240.36 331.67 247.54 335.37
  Q 254.74 339.07 262.68 336.40
  Q 271.80 333.32 275.43 322.11
  Q 279.56 335.75 292.22 337.79
  Q 297.99 338.73 303.97 335.47
  Q 311.32 331.45 314.24 322.24
  Q 316.81 330.20 322.50 334.15
  C 332.53 341.13 347.30 336.79 351.34 324.59
  Q 351.77 323.28 352.44 322.02
  Q 353.89 326.39 354.61 327.60
  C 363.90 343.12 385.11 340.53 390.65 323.44
  Q 390.73 323.20 391.30 322.64
  Q 396.58 337.61 412.03 337.70
  L 412.00 461.92
  L 382.30 461.95
  Q 382.26 425.93 382.28 390.26
  Q 382.29 383.74 381.02 380.43
  Q 377.83 372.14 369.61 368.86
  Q 365.83 367.35 358.28 367.41
  Q 332.18 367.59 309.61 367.47
  C 300.12 367.42 291.80 373.57 289.69 382.63
  Q 289.14 384.99 289.14 394.91
  Q 289.17 428.44 289.14 461.46
  Q 264.23 460.92 241.12 450.36
  Q 248.90 449.79 255.27 449.91
  Q 257.77 449.95 259.21 449.13
  C 261.41 447.87 262.61 445.42 262.62 442.91
  Q 262.64 407.92 262.60 374.36
  Q 262.60 371.03 259.91 368.92
  Q 258.12 367.52 253.76 367.49
  Q 224.06 367.33 194.68 367.55
  L 156.16 367.65
  Q 149.79 352.56 147.12 336.92
  Q 156.98 333.03 160.25 322.27
  Q 161.22 324.57 162.07 326.42
  C 167.19 337.47 180.79 340.75 190.43 333.96
  Q 196.54 329.66 198.46 321.22
  Z"
/>
<path fill="#f97d21" d="
  M 121.46 322.07
  C 122.35 324.46 123.14 326.84 124.54 328.84
  Q 132.80 340.68 147.12 336.92
  Q 149.79 352.56 156.16 367.65
  Q 144.69 367.71 134.00 367.71
  C 130.00 367.71 126.96 369.99 126.96 374.22
  Q 126.93 411.46 126.98 443.59
  C 126.98 445.70 128.12 447.72 129.90 448.82
  Q 131.41 449.76 134.80 449.77
  Q 164.96 449.81 194.70 449.93
  L 241.12 450.36
  Q 264.23 460.92 289.14 461.46
  L 289.03 485.33
  L 107.08 485.31
  L 100.27 485.10
  L 100.27 337.58
  Q 116.39 337.75 121.46 322.07
  Z"
/>
<path fill="#3dcff3" d="
  M 194.68 367.55
  L 194.70 449.93
  Q 164.96 449.81 134.80 449.77
  Q 131.41 449.76 129.90 448.82
  C 128.12 447.72 126.98 445.70 126.98 443.59
  Q 126.93 411.46 126.96 374.22
  C 126.96 369.99 130.00 367.71 134.00 367.71
  Q 144.69 367.71 156.16 367.65
  L 194.68 367.55
  Z"
/>
<path fill="#abeaf8" d="
  M 194.68 367.55
  Q 224.06 367.33 253.76 367.49
  Q 258.12 367.52 259.91 368.92
  Q 262.60 371.03 262.60 374.36
  Q 262.64 407.92 262.62 442.91
  C 262.61 445.42 261.41 447.87 259.21 449.13
  Q 257.77 449.95 255.27 449.91
  Q 248.90 449.79 241.12 450.36
  L 194.70 449.93
  L 194.68 367.55
  Z"
/>
<path fill="#b76224" d="
  M 382.30 461.95
  L 382.42 485.69
  Q 340.45 485.85 297.75 485.80
  Q 291.32 485.80 289.03 485.33
  L 289.14 461.46
  Q 289.17 428.44 289.14 394.91
  Q 289.14 384.99 289.69 382.63
  C 291.80 373.57 300.12 367.42 309.61 367.47
  Q 332.18 367.59 358.28 367.41
  Q 365.83 367.35 369.61 368.86
  Q 377.83 372.14 381.02 380.43
  Q 382.29 383.74 382.28 390.26
  Q 382.26 425.93 382.30 461.95
  Z
  M 357.39 396.62
  A 4.26 4.26 0.0 0 0 353.13 392.36
  L 318.33 392.36
  A 4.26 4.26 0.0 0 0 314.07 396.62
  L 314.07 414.96
  A 4.26 4.26 0.0 0 0 318.33 419.22
  L 353.13 419.22
  A 4.26 4.26 0.0 0 0 357.39 414.96
  L 357.39 396.62
  Z
  M 365.0003 454.3312
  A 7.52 7.52 0.0 0 0 357.4935 446.7981
  L 313.8935 446.7220
  A 7.52 7.52 0.0 0 0 306.3604 454.2288
  L 306.3597 454.6688
  A 7.52 7.52 0.0 0 0 313.8665 462.2019
  L 357.4665 462.2780
  A 7.52 7.52 0.0 0 0 364.9996 454.7712
  L 365.0003 454.3312
  Z"
/>
<rect fill="#a04d15" x="314.07" y="392.36" width="43.32" height="26.86" rx="4.26"/>
<rect fill="#a04d15" x="-29.32" y="-7.74" transform="translate(335.68,454.50) rotate(0.1)" width="58.64" height="15.48" rx="7.52"/>
<path fill="#f97d21" d="
  M 382.30 461.95
  L 412.00 461.92
  L 412.00 485.41
  L 382.42 485.69
  L 382.30 461.95
  Z"
/>
<path fill="#6d362c" d="
  M 100.27 485.10
  L 107.08 485.31
  Q 106.37 493.61 114.84 497.34
  Q 117.89 498.69 122.25 498.69
  Q 277.66 498.69 433.06 498.69
  Q 432.63 508.69 422.39 512.00
  L 89.48 512.00
  Q 79.52 508.65 79.00 499.43
  C 78.65 493.34 82.05 488.20 87.68 486.05
  C 91.24 484.69 96.18 485.08 100.27 485.10
  Z"
/>
<path fill="#7e4335" d="
  M 107.08 485.31
  L 289.03 485.33
  Q 291.32 485.80 297.75 485.80
  Q 340.45 485.85 382.42 485.69
  L 412.00 485.41
  Q 419.03 485.03 421.50 485.51
  Q 431.85 487.51 433.06 498.69
  Q 277.66 498.69 122.25 498.69
  Q 117.89 498.69 114.84 497.34
  Q 106.37 493.61 107.08 485.31
  Z"
/>
</svg>
