<?xml version="1.0" encoding="UTF-8" standalone="no"?>
<svg xmlns="http://www.w3.org/2000/svg" version="1.2" baseProfile="tiny" viewBox="0.00 0.00 245.00 258.00">
<g stroke-width="2.00" fill="none" stroke-linecap="butt">
<path stroke="#fcb85b" vector-effect="non-scaling-stroke" d="
  M 190.37 77.95
  Q 192.41 86.29 195.61 93.72
  Q 196.49 95.76 198.64 101.81
  Q 200.13 106.02 201.97 109.52
  Q 203.51 112.44 204.94 115.50
  Q 206.19 118.17 206.82 121.29
  Q 207.87 126.44 208.82 131.84
  A 6.29 6.17 47.6 0 1 208.73 134.43
  C 207.89 137.76 206.97 141.11 207.17 144.54
  Q 207.57 151.19 207.31 157.96
  Q 207.29 158.50 207.56 158.96
  C 208.09 159.91 207.84 161.25 207.95 162.35
  Q 208.86 171.33 205.65 179.54
  Q 204.53 182.42 201.71 186.55
  Q 199.41 189.93 197.17 193.23
  Q 194.73 196.85 182.27 208.69
  C 181.63 209.31 180.75 209.56 180.19 210.20
  C 178.98 211.57 177.31 212.15 176.19 213.68
  Q 175.21 215.02 173.99 216.09
  C 170.26 219.37 166.68 223.19 162.62 225.44
  Q 156.33 228.94 150.67 230.53
  Q 146.30 231.75 142.27 233.34
  Q 138.26 234.92 133.50 235.94
  Q 132.16 236.22 131.12 236.73
  Q 130.00 237.27 128.80 237.40
  Q 128.26 237.46 127.83 237.80
  Q 127.27 238.25 126.66 237.96
  A 0.29 0.28 30.7 0 0 126.30 238.05
  Q 125.65 238.99 126.08 239.88
  Q 126.24 240.21 125.87 240.16
  Q 125.55 240.12 125.26 240.25
  Q 125.01 240.37 125.24 240.75"
/>
<path stroke="#fec96e" vector-effect="non-scaling-stroke" d="
  M 63.99 66.54
  Q 60.13 69.40 56.53 71.25
  Q 53.94 72.58 52.03 74.73
  Q 49.11 77.99 46.02 80.68
  Q 44.05 82.40 42.65 84.35
  Q 41.08 86.54 39.47 88.60
  Q 39.21 88.94 39.13 89.37
  Q 39.09 89.57 38.98 89.76
  Q 37.08 92.86 35.12 95.58
  C 32.44 99.31 31.33 103.73 29.85 108.01
  Q 28.82 110.99 28.24 113.94
  Q 26.40 123.30 24.45 132.12
  Q 24.01 134.08 23.96 136.06
  Q 23.92 137.71 23.25 139.29
  Q 19.32 148.41 20.14 157.31
  C 20.48 161.05 22.30 164.46 22.61 168.25
  Q 23.37 177.41 28.56 184.04
  A 0.95 0.95 0.0 0 0 30.09 183.99
  Q 30.76 182.98 30.39 181.87
  C 29.39 178.95 29.61 176.10 28.46 173.14
  Q 26.60 168.36 26.23 166.25
  Q 25.28 160.86 24.26 155.48
  Q 23.40 150.95 24.68 144.67
  Q 25.87 138.82 27.45 134.70
  Q 27.93 133.46 28.24 132.07
  Q 28.55 130.67 28.98 129.22
  Q 29.63 127.00 29.87 124.93
  Q 30.20 122.03 30.62 119.25
  Q 32.34 107.88 36.86 99.28
  C 38.79 95.60 42.11 92.64 44.63 89.35
  C 47.94 85.04 51.12 80.11 55.15 76.52
  Q 61.33 71.02 69.28 68.22
  Q 75.45 66.05 80.94 61.90
  A 2.17 2.16 -31.7 0 0 81.58 59.22
  Q 80.72 57.49 78.77 57.88
  Q 76.01 58.43 73.99 60.30
  Q 72.29 61.87 70.45 62.80
  Q 67.48 64.31 64.52 66.02
  Q 64.34 66.12 64.23 66.29
  Q 64.13 66.44 63.99 66.54"
/>
<path stroke="#fec96e" vector-effect="non-scaling-stroke" d="
  M 112.14 230.79
  Q 111.61 232.69 112.97 234.81
  Q 113.59 235.77 114.58 236.07
  Q 115.74 236.43 116.75 236.13
  Q 123.64 234.14 143.25 228.87
  Q 154.75 225.77 165.55 219.42
  Q 168.13 217.91 170.62 215.67
  C 174.61 212.07 178.51 208.62 182.24 204.75
  Q 187.76 199.03 193.30 193.18
  Q 195.05 191.34 196.89 189.65
  Q 200.77 186.11 204.34 180.47
  Q 205.47 178.68 204.26 177.19
  Q 203.98 176.85 203.61 177.07
  C 200.52 178.90 198.34 181.53 196.64 184.60
  Q 195.34 186.97 193.19 188.93
  Q 189.42 192.36 185.59 195.03
  C 181.57 197.84 178.14 201.33 174.55 204.55
  Q 173.13 205.81 172.17 207.57
  Q 170.42 210.75 167.79 213.84
  Q 167.53 214.14 167.15 214.28
  C 166.29 214.61 165.76 214.97 165.07 215.54
  Q 164.29 216.19 163.32 216.02
  Q 162.93 215.95 162.54 215.99
  L 160.30 216.22"
/>
<path stroke="#de7c45" vector-effect="non-scaling-stroke" d="
  M 160.30 216.22
  Q 163.42 213.47 165.38 211.12
  Q 169.08 206.66 173.60 200.64
  C 180.14 191.94 197.31 185.32 196.90 169.35
  Q 196.76 163.99 196.67 158.61
  C 196.57 152.66 198.69 146.93 199.81 141.12
  Q 201.19 133.89 199.06 126.41
  Q 196.62 117.84 193.07 108.81
  C 188.61 97.49 182.81 90.34 172.92 83.04
  Q 162.71 75.52 151.38 68.44
  C 145.13 64.54 138.84 62.54 131.52 62.31
  Q 118.70 61.91 106.37 62.64
  C 88.59 63.70 68.30 68.99 60.96 86.62
  C 58.87 91.63 56.74 96.45 52.99 100.51
  C 48.94 104.88 44.40 108.63 40.93 113.77
  Q 36.49 120.33 34.34 128.71
  Q 31.57 139.47 29.89 150.96
  Q 28.98 157.22 31.03 163.11
  Q 34.17 172.08 36.46 180.99
  C 37.74 185.96 39.50 190.21 43.00 193.69
  Q 49.24 199.87 54.13 207.69
  Q 59.00 215.45 68.54 219.23
  Q 80.83 224.10 91.48 227.59
  Q 101.72 230.95 112.14 230.79"
/>
<path stroke="#df8453" vector-effect="non-scaling-stroke" d="
  M 160.30 216.22
  Q 156.65 219.15 153.26 220.47
  Q 143.81 224.14 130.99 227.72
  Q 121.87 230.26 112.14 230.79"
/>
<path stroke="#836836" vector-effect="non-scaling-stroke" d="
  M 136.65 87.22
  L 139.01 90.70
  Q 139.29 91.11 139.27 91.62
  Q 139.17 93.29 139.74 95.17"
/>
<path stroke="#d78265" vector-effect="non-scaling-stroke" d="
  M 139.74 95.17
  Q 139.28 92.84 138.52 92.77
  C 134.67 92.42 128.12 92.62 125.41 95.94
  Q 122.84 99.10 122.92 103.39"
/>
<path stroke="#836836" vector-effect="non-scaling-stroke" d="
  M 122.92 103.39
  Q 120.12 102.83 116.83 103.60
  Q 115.43 103.92 114.08 104.08
  Q 112.50 104.28 111.36 104.84
  Q 109.38 105.81 107.26 107.25
  Q 104.00 109.46 102.31 113.01
  Q 102.10 113.45 102.15 113.94
  Q 102.39 116.17 100.16 116.62"
/>
<path stroke="#d57957" vector-effect="non-scaling-stroke" d="
  M 100.16 116.62
  Q 97.47 114.68 93.07 112.91
  C 84.01 109.26 90.18 95.88 79.86 95.28
  C 68.29 94.61 58.09 101.88 58.29 114.13
  C 58.36 118.54 64.56 122.42 68.01 124.30
  C 69.28 124.99 70.50 126.16 71.15 127.48
  Q 75.49 136.27 85.41 135.25
  Q 85.98 135.19 85.70 134.70
  L 85.45 134.24"
/>
<path stroke="#836836" vector-effect="non-scaling-stroke" d="
  M 85.45 134.24
  L 87.70 135.09
  Q 88.21 135.28 88.28 135.82
  Q 88.32 136.15 88.70 136.13
  A 0.69 0.68 -23.2 0 1 89.21 136.33
  C 90.53 137.59 92.78 139.32 94.62 139.56
  Q 95.31 139.65 95.79 140.14
  Q 96.20 140.54 96.76 140.68
  C 99.64 141.36 103.28 141.50 105.72 139.67
  Q 106.72 138.93 107.67 138.17
  Q 109.02 137.10 111.28 136.67
  Q 115.61 135.84 120.46 135.82
  Q 122.39 135.81 124.16 135.15
  Q 124.72 134.95 124.67 134.36
  L 124.50 132.32"
/>
<path stroke="#d57957" vector-effect="non-scaling-stroke" d="
  M 124.50 132.32
  Q 131.70 131.81 135.58 135.38
  C 138.26 137.85 141.08 141.08 144.49 142.34
  Q 144.83 142.46 145.23 142.10"
/>
<path stroke="#836836" vector-effect="non-scaling-stroke" d="
  M 145.23 142.10
  Q 145.71 142.14 145.94 142.41"
/>
<path stroke="#d57957" vector-effect="non-scaling-stroke" d="
  M 145.94 142.41
  Q 147.13 142.74 148.31 142.58"
/>
<path stroke="#836836" vector-effect="non-scaling-stroke" d="
  M 148.31 142.58
  Q 148.09 143.45 148.77 143.67
  Q 149.36 143.86 149.37 144.47
  Q 149.52 149.43 155.48 150.86
  Q 159.28 151.77 163.19 150.94
  C 164.72 150.62 166.44 151.44 167.81 152.14
  A 1.36 1.35 12.9 0 0 169.78 150.91
  Q 169.60 141.87 162.62 135.90
  Q 157.83 131.81 153.15 133.56"
/>
<path stroke="#d57957" vector-effect="non-scaling-stroke" d="
  M 153.15 133.56
  C 151.81 129.03 150.43 123.31 151.77 118.74
  C 153.36 113.30 158.76 112.85 157.28 105.51
  Q 155.89 98.61 148.57 95.24"
/>
<path stroke="#836836" vector-effect="non-scaling-stroke" d="
  M 148.57 95.24
  Q 152.13 91.23 152.12 88.99
  C 152.11 86.68 153.37 84.56 154.51 82.65
  A 1.27 1.26 -70.2 0 0 153.62 80.75
  L 150.85 80.34"
/>
<path stroke="#d57957" vector-effect="non-scaling-stroke" d="
  M 150.85 80.34
  Q 150.52 75.57 146.62 72.89
  Q 143.07 70.45 140.49 70.03
  Q 132.42 68.73 125.60 66.76
  Q 118.84 64.82 114.78 64.85
  Q 107.95 64.90 102.16 67.05
  Q 99.11 68.18 99.97 71.04
  C 101.04 74.59 106.08 73.86 108.71 73.43
  C 114.27 72.53 120.19 75.20 122.36 80.64
  C 123.73 84.09 124.40 88.82 129.50 87.97
  Q 132.85 87.41 136.65 87.22"
/>
<path stroke="#99aa63" vector-effect="non-scaling-stroke" d="
  M 150.85 80.34
  Q 150.64 81.57 148.98 81.71
  Q 145.64 81.99 142.23 82.32
  Q 137.33 82.78 136.65 87.22"
/>
<path stroke="#99aa63" vector-effect="non-scaling-stroke" d="
  M 148.57 95.24
  Q 147.07 96.26 144.50 96.95"
/>
<path stroke="#9bb371" vector-effect="non-scaling-stroke" d="
  M 144.50 96.95
  Q 141.36 97.50 139.74 95.17"
/>
<path stroke="#99aa63" vector-effect="non-scaling-stroke" d="
  M 153.15 133.56
  Q 152.05 134.30 151.37 135.29
  Q 151.09 135.70 151.09 136.21
  Q 151.08 137.27 150.71 138.24
  A 0.90 0.90 0.0 0 1 149.99 138.81
  C 148.22 139.05 145.49 140.06 145.23 142.10"
/>
<path stroke="#99aa63" vector-effect="non-scaling-stroke" d="
  M 124.50 132.32
  Q 120.74 130.01 119.16 125.80
  A 0.83 0.82 -26.6 0 1 119.49 124.82
  C 123.16 122.49 125.98 117.50 128.01 113.68
  Q 129.57 110.76 132.72 107.97
  Q 133.90 106.93 132.44 106.03"
/>
<path stroke="#ecc492" vector-effect="non-scaling-stroke" d="
  M 144.50 96.95
  Q 146.47 98.43 148.47 99.71
  Q 151.14 101.42 151.84 102.80
  C 152.84 104.77 153.58 108.70 151.28 110.23
  C 148.90 111.81 145.87 112.32 143.68 110.18
  C 141.82 108.37 144.64 103.22 139.84 103.10
  Q 138.73 103.07 136.80 104.06
  Q 134.51 105.23 132.44 106.03"
/>
<path stroke="#9bb371" vector-effect="non-scaling-stroke" d="
  M 132.44 106.03
  Q 128.28 103.42 122.92 103.39"
/>
<path stroke="#99aa63" vector-effect="non-scaling-stroke" d="
  M 148.31 142.58
  Q 149.91 142.08 149.94 140.61
  Q 149.95 140.07 149.41 140.13
  Q 147.40 140.39 145.94 142.41"
/>
<path stroke="#99aa63" vector-effect="non-scaling-stroke" d="
  M 100.16 116.62
  Q 102.08 118.52 102.66 120.69
  Q 102.81 121.29 102.20 121.21
  C 94.34 120.28 88.71 125.63 85.07 132.42
  Q 84.81 132.90 84.97 133.42
  Q 85.13 133.95 85.45 134.24"
/>
<path stroke="#d57957" vector-effect="non-scaling-stroke" d="
  M 68.88 85.80
  Q 68.34 87.53 68.75 89.04
  A 1.37 1.34 3.4 0 0 69.56 89.93
  C 74.16 91.71 83.35 92.27 82.69 84.48
  Q 82.32 80.15 84.89 76.99
  A 1.82 1.82 0.0 0 0 84.14 74.15
  Q 82.30 73.43 80.02 73.81
  C 73.17 74.93 70.74 79.91 68.88 85.80"
/>
<path stroke="#d13a30" vector-effect="non-scaling-stroke" d="
  M 166.38 104.41
  C 171.12 98.81 175.61 106.14 178.94 102.69
  Q 179.36 102.25 179.30 101.65
  C 178.85 97.50 174.34 96.10 170.92 94.91
  Q 166.41 93.34 164.49 88.44
  Q 163.23 85.22 161.20 82.31
  A 1.96 1.95 50.0 0 0 158.21 82.05
  C 156.51 83.77 153.97 89.26 155.92 91.46
  C 158.15 93.98 160.91 96.55 160.60 100.18
  C 160.40 102.58 160.66 106.10 164.04 105.68
  Q 165.45 105.51 166.38 104.41"
/>
<path stroke="#de4846" vector-effect="non-scaling-stroke" d="
  M 99.94 82.96
  C 92.77 83.76 90.67 91.33 90.94 97.31
  C 91.16 102.37 94.24 105.30 98.74 106.97"
/>
<path stroke="#d13a30" vector-effect="non-scaling-stroke" d="
  M 98.74 106.97
  Q 101.04 109.01 104.12 108.84
  A 0.98 0.97 -77.2 0 0 104.92 108.33
  L 105.33 107.58
  Q 105.54 107.19 105.94 106.99
  L 112.73 103.62"
/>
<path stroke="#de4846" vector-effect="non-scaling-stroke" d="
  M 112.73 103.62
  Q 114.03 104.00 115.20 103.56
  Q 116.21 103.19 116.86 101.96
  Q 119.03 97.85 117.66 92.45"
/>
<path stroke="#d13a30" vector-effect="non-scaling-stroke" d="
  M 117.66 92.45
  Q 118.27 90.26 116.86 87.61
  Q 116.03 86.05 115.67 85.19
  A 1.85 1.79 -84.5 0 0 115.07 84.44
  Q 111.59 81.91 107.21 81.92
  Q 106.97 81.93 106.73 81.85
  Q 106.49 81.77 106.37 81.98
  Q 106.12 82.40 105.63 82.37
  Q 102.72 82.20 99.94 82.96"
/>
<path stroke="#f04b4c" vector-effect="non-scaling-stroke" d="
  M 117.66 92.45
  Q 117.27 91.58 115.09 94.04
  Q 114.77 94.41 114.28 94.40
  Q 111.49 94.35 108.61 93.78
  Q 107.57 93.57 107.37 94.81
  A 1.13 1.12 -68.3 0 0 107.84 95.91
  Q 110.25 97.58 112.42 99.65
  A 2.19 2.03 38.0 0 1 112.84 102.27
  Q 112.67 102.53 112.73 103.62"
/>
<path stroke="#f04b4c" vector-effect="non-scaling-stroke" d="
  M 98.74 106.97
  Q 99.23 107.21 99.40 107.08
  A 0.71 0.70 48.8 0 0 99.46 106.03
  Q 98.42 104.97 99.18 103.70
  Q 100.65 101.21 102.77 99.02
  A 0.69 0.68 32.9 0 0 102.53 97.91
  Q 101.83 97.63 101.12 98.07
  Q 98.32 99.79 95.65 101.72
  A 1.29 1.29 0.0 0 1 93.82 101.39
  C 91.95 98.57 93.11 94.91 93.80 91.85
  C 94.53 88.58 98.47 83.28 101.22 89.08
  Q 102.15 91.03 103.51 92.63
  Q 104.02 93.22 104.07 92.44
  C 104.25 89.46 103.83 86.17 106.12 84.01
  A 0.52 0.52 0.0 0 0 105.77 83.11
  L 99.94 82.96"
/>
<path stroke="#de4846" vector-effect="non-scaling-stroke" d="
  M 50.55 114.50
  C 51.26 112.53 52.72 111.77 53.85 110.19
  Q 54.48 109.30 53.89 108.42
  Q 53.55 107.93 53.07 108.26
  Q 49.36 110.84 46.75 113.30
  Q 46.02 113.99 45.56 115.15
  Q 45.19 116.09 44.70 116.97
  Q 43.99 118.23 43.47 119.66
  Q 41.79 124.27 39.59 128.86
  Q 37.05 134.16 36.37 137.00
  Q 35.77 139.52 35.05 146.98
  Q 34.50 152.66 36.98 158.85
  A 1.53 1.50 89.8 0 0 37.80 159.68
  Q 39.42 160.34 40.35 158.64
  A 1.87 1.86 47.9 0 0 40.43 157.04
  Q 39.62 155.10 38.66 153.13
  Q 37.78 151.33 37.81 149.20
  Q 37.88 145.72 38.37 142.45
  Q 38.40 142.22 38.58 142.08
  Q 38.87 141.85 38.87 141.48
  Q 38.77 135.95 40.52 130.79
  C 40.97 129.45 41.77 128.54 42.48 127.35
  Q 43.05 126.39 43.95 125.59
  C 45.39 124.29 46.28 121.93 47.01 120.12
  Q 47.67 118.50 48.90 117.26
  Q 49.94 116.22 50.55 114.50"
/>
<path stroke="#de4846" vector-effect="non-scaling-stroke" d="
  M 165.57 112.82
  Q 159.16 118.02 160.52 128.24
  Q 160.81 130.41 162.14 131.80
  Q 164.63 134.40 168.85 136.17
  Q 172.67 137.78 176.51 137.33
  Q 184.40 136.43 187.47 127.92"
/>
<path stroke="#d13a30" vector-effect="non-scaling-stroke" d="
  M 187.47 127.92
  Q 188.20 123.99 187.87 122.75
  Q 187.26 120.50 187.16 118.24
  Q 187.13 117.65 186.77 117.20
  Q 185.86 116.07 185.39 114.79
  C 184.71 112.90 183.05 112.61 181.47 111.85
  Q 180.51 111.38 179.50 111.35
  Q 174.73 111.21 170.08 110.88
  Q 169.52 110.84 169.03 111.11
  L 168.55 111.37
  Q 168.15 111.59 167.70 111.56
  Q 166.71 111.49 165.57 112.82"
/>
<path stroke="#f04b4c" vector-effect="non-scaling-stroke" d="
  M 187.47 127.92
  Q 187.06 124.58 187.05 121.48
  Q 187.04 121.25 186.93 121.06
  Q 186.77 120.80 186.46 120.84
  Q 185.97 120.90 185.79 121.36
  C 185.35 122.50 184.29 123.43 182.99 123.26
  Q 180.22 122.91 177.76 122.58
  A 0.94 0.93 14.7 0 0 176.76 123.16
  Q 176.35 124.17 177.33 124.77
  C 179.38 126.02 182.65 127.66 182.30 130.48
  C 182.10 131.98 181.89 133.65 180.34 134.36
  Q 176.00 136.36 170.53 135.29
  C 168.32 134.85 167.83 132.50 169.40 131.09
  Q 171.16 129.50 171.88 127.65
  Q 172.68 125.63 170.76 126.65
  Q 168.53 127.84 166.51 129.65
  C 163.05 132.75 161.48 127.41 162.06 125.04
  C 162.82 121.93 163.27 117.48 166.36 115.80
  A 2.67 2.66 59.3 0 1 169.87 116.70
  Q 171.02 118.47 171.97 120.47
  Q 172.23 121.02 172.78 121.26
  Q 173.21 121.46 173.60 121.24
  Q 174.08 120.97 174.24 121.50
  L 174.32 121.78
  A 0.58 0.57 -15.5 0 1 173.91 122.50
  Q 172.50 122.85 171.17 122.58
  Q 170.56 122.46 170.20 121.95
  Q 169.19 120.56 167.76 119.71
  A 1.13 1.13 0.0 0 1 167.26 119.08
  L 166.84 117.71
  Q 166.61 116.99 166.00 117.44
  C 164.14 118.83 165.10 123.00 165.40 124.94
  Q 165.51 125.61 164.99 126.05
  Q 163.99 126.92 163.44 128.22
  Q 163.28 128.60 163.70 128.64
  L 164.15 128.67
  A 0.45 0.43 -72.4 0 0 164.56 128.45
  L 165.61 126.65
  Q 165.79 126.35 166.14 126.28
  Q 168.47 125.79 170.74 125.18
  C 172.54 124.69 174.49 125.52 174.06 127.71
  Q 173.75 129.29 173.44 130.67
  A 0.51 0.51 0.0 0 0 173.88 131.29
  L 178.45 131.83
  Q 179.00 131.89 179.42 131.54
  Q 179.77 131.26 180.14 131.00
  A 0.72 0.71 -44.8 0 0 180.15 129.84
  C 178.01 128.28 173.97 126.09 175.51 122.76
  Q 176.08 121.55 177.41 121.17
  Q 180.49 120.29 182.41 121.75
  A 0.54 0.53 -75.4 0 0 183.26 121.25
  Q 182.96 119.07 180.78 119.02
  A 1.03 1.03 0.0 0 1 179.98 118.61
  Q 178.99 117.31 177.58 116.36
  A 1.17 1.16 22.7 0 0 175.79 117.09
  Q 175.37 119.06 174.57 120.64
  Q 174.17 121.40 173.99 120.56
  Q 172.90 115.41 175.90 113.33
  Q 177.56 112.18 175.56 111.91
  Q 171.00 111.29 165.57 112.82"
/>
<path stroke="#de4846" vector-effect="non-scaling-stroke" d="
  M 54.93 130.84
  Q 52.50 131.14 50.35 132.11
  Q 48.09 133.13 47.12 134.89
  Q 43.81 140.86 44.69 147.04
  Q 45.09 149.87 47.30 151.85
  Q 49.85 154.13 53.17 155.22"
/>
<path stroke="#d13a30" vector-effect="non-scaling-stroke" d="
  M 53.17 155.22
  Q 55.04 154.58 56.11 153.16
  Q 56.51 152.63 56.80 153.23
  Q 56.86 153.36 56.86 153.50
  Q 56.84 154.12 57.46 154.12
  C 58.92 154.13 61.08 153.77 62.25 154.76
  Q 62.93 155.33 63.56 156.02
  Q 63.94 156.43 64.46 156.25
  Q 65.41 155.94 66.05 154.90"
/>
<path stroke="#de4846" vector-effect="non-scaling-stroke" d="
  M 66.05 154.90
  L 70.04 151.00"
/>
<path stroke="#d13a30" vector-effect="non-scaling-stroke" d="
  M 70.04 151.00
  Q 71.06 151.29 71.32 149.96
  Q 71.41 149.50 71.72 149.14
  Q 72.75 147.95 72.61 146.18
  Q 72.38 143.48 72.36 140.69
  Q 72.33 137.84 70.94 135.68
  Q 69.48 133.42 67.70 131.78
  C 66.72 130.88 64.18 130.35 62.87 130.42
  Q 58.93 130.64 54.93 130.84"
/>
<path stroke="#f04b4c" vector-effect="non-scaling-stroke" d="
  M 70.04 151.00
  Q 73.01 146.17 71.30 140.61
  Q 70.91 139.31 70.34 140.54
  C 68.96 143.52 64.89 142.37 62.35 141.95
  Q 61.44 141.80 61.16 142.79
  A 0.89 0.89 0.0 0 0 61.53 143.78
  Q 64.45 145.65 66.37 147.65
  Q 66.71 148.01 66.77 148.50
  Q 67.17 151.78 64.77 153.93
  Q 64.44 154.23 64.69 154.59
  Q 64.98 155.00 66.05 154.90"
/>
<path stroke="#f04b4c" vector-effect="non-scaling-stroke" d="
  M 53.17 155.22
  Q 53.87 154.27 52.81 152.17
  A 0.57 0.55 -40.0 0 1 52.87 151.56
  L 56.63 146.81
  A 0.58 0.58 0.0 0 0 56.23 145.87
  Q 55.32 145.77 54.55 146.41
  Q 52.05 148.48 49.53 149.86
  A 1.88 1.87 67.0 0 1 46.84 148.77
  C 45.60 144.80 46.81 141.04 48.43 137.39
  C 49.80 134.29 53.09 133.55 54.86 136.86
  Q 55.47 138.00 56.07 139.20
  Q 58.07 143.20 58.05 138.73
  C 58.04 135.78 58.13 132.39 61.76 131.72
  Q 61.85 131.70 61.89 131.61
  Q 61.94 131.47 61.92 131.33
  Q 61.87 131.08 61.61 131.07
  L 54.93 130.84"
/>
<path stroke="#d57957" vector-effect="non-scaling-stroke" d="
  M 190.54 135.53
  C 185.75 139.37 181.39 140.74 175.00 141.42
  Q 172.65 141.67 173.60 143.83
  C 173.95 144.62 175.32 145.67 176.07 146.09
  Q 180.25 148.36 182.49 152.08
  C 184.98 156.20 190.14 155.47 192.00 151.38
  C 193.79 147.43 193.36 141.82 193.16 137.56
  Q 193.11 136.51 192.50 135.75
  A 1.39 1.39 0.0 0 0 190.54 135.53"
/>
<path stroke="#d57957" vector-effect="non-scaling-stroke" d="
  M 79.69 146.72
  C 84.70 147.42 88.24 143.32 86.47 138.51
  Q 85.68 136.37 83.73 137.55
  L 82.89 138.07
  Q 82.39 138.37 81.80 138.31
  Q 80.41 138.16 78.98 137.76
  C 76.38 137.04 74.36 139.34 75.98 141.76
  Q 77.41 143.88 78.58 145.97
  A 1.51 1.51 0.0 0 0 79.69 146.72"
/>
<path stroke="#d13a30" vector-effect="non-scaling-stroke" d="
  M 128.77 141.06
  Q 128.30 140.01 126.45 139.87
  A 0.73 0.71 13.5 0 0 125.73 140.30
  L 125.18 141.52"
/>
<path stroke="#de4846" vector-effect="non-scaling-stroke" d="
  M 125.18 141.52
  L 124.67 142.26"
/>
<path stroke="#d13a30" vector-effect="non-scaling-stroke" d="
  M 124.67 142.26
  Q 124.55 142.14 124.30 142.11
  Q 123.95 142.08 123.89 141.73
  L 123.78 140.95"
/>
<path stroke="#de4846" vector-effect="non-scaling-stroke" d="
  M 123.78 140.95
  L 123.88 140.58
  Q 124.02 140.11 123.53 140.03
  C 119.03 139.36 111.05 139.04 108.60 143.65
  Q 106.12 148.31 106.15 153.97
  C 106.17 158.30 108.15 160.98 111.92 162.90
  Q 124.29 169.21 131.34 160.02
  Q 133.49 157.21 133.60 153.93
  Q 133.72 150.12 132.55 146.40
  Q 131.53 143.18 128.77 141.06"
/>
<path stroke="#f04b4c" vector-effect="non-scaling-stroke" d="
  M 123.78 140.95
  Q 123.04 141.05 123.17 142.79
  Q 123.18 142.93 123.07 142.84
  Q 122.65 142.50 122.97 142.08
  Q 123.28 141.67 122.86 141.40
  Q 122.28 141.02 121.68 141.28
  C 119.53 142.19 119.55 145.19 119.55 147.12
  Q 119.54 151.66 117.45 147.64
  C 116.73 146.26 116.16 144.58 114.79 143.78
  C 112.53 142.45 110.13 145.05 109.63 147.02
  Q 108.81 150.20 107.92 153.82
  Q 107.47 155.63 109.26 155.84
  Q 109.86 155.91 109.34 156.23
  Q 108.11 156.97 109.24 158.32
  A 1.49 1.48 -39.5 0 0 111.32 158.52
  Q 114.31 156.04 117.31 154.50
  Q 117.85 154.22 117.96 154.82
  Q 118.09 155.55 117.62 156.15
  Q 116.43 157.67 115.03 159.10
  C 113.66 160.49 114.09 162.41 115.98 162.98
  Q 117.93 163.57 119.03 162.98
  Q 120.28 162.32 118.90 162.05
  Q 117.61 161.80 116.45 161.33
  Q 116.07 161.18 116.14 160.77
  Q 116.17 160.54 116.33 160.36
  Q 116.67 159.96 117.18 160.08
  L 121.48 161.03
  Q 121.94 161.13 122.39 160.99
  Q 123.38 160.69 124.40 160.97
  Q 125.19 161.19 124.52 161.66
  Q 124.26 161.84 123.93 161.85
  A 0.51 0.51 0.0 0 0 123.43 162.41
  L 123.46 162.67
  Q 123.48 162.85 123.65 162.83
  Q 128.55 162.22 128.22 158.20
  C 128.01 155.54 125.29 154.27 123.26 153.03
  Q 122.59 152.62 122.44 151.96
  Q 122.04 150.23 123.79 150.55
  C 125.59 150.89 129.15 151.90 130.67 150.76
  Q 132.09 149.69 131.59 147.93
  Q 130.39 143.72 126.94 141.12
  Q 126.36 140.68 127.08 140.66
  Q 127.77 140.64 128.77 141.06"
/>
<path stroke="#f04b4c" vector-effect="non-scaling-stroke" d="
  M 124.67 142.26
  C 125.14 144.26 126.46 144.74 127.19 146.48
  Q 127.52 147.26 126.95 147.96
  A 0.33 0.32 57.7 0 1 126.39 147.83
  Q 125.70 145.08 122.64 143.90
  Q 122.08 143.69 121.84 144.24
  Q 120.89 146.44 120.64 148.71
  C 120.51 149.93 119.45 150.91 118.22 150.95
  Q 117.23 150.98 116.04 150.01
  Q 113.90 148.24 112.71 146.28
  Q 111.50 144.29 111.08 146.58
  Q 110.56 149.38 111.51 153.79
  A 0.72 0.72 0.0 0 0 112.49 154.31
  Q 115.37 153.15 118.22 153.12
  A 1.89 1.88 7.9 0 1 120.05 155.54
  L 119.25 158.25
  A 0.97 0.97 0.0 0 0 120.01 159.48
  Q 122.79 159.95 125.32 159.68
  Q 128.02 159.38 125.80 157.82
  C 123.62 156.28 120.71 154.37 120.79 151.40
  A 1.44 1.44 0.0 0 1 121.17 150.48
  Q 122.99 148.45 125.96 148.87
  C 127.04 149.02 127.52 149.84 128.55 150.08
  Q 129.52 150.31 129.39 149.32
  Q 129.10 147.18 128.35 145.41
  C 127.78 144.04 126.48 143.50 125.94 142.01
  Q 125.82 141.69 125.50 141.58
  Q 125.35 141.52 125.18 141.52"
/>
<path stroke="#d13a30" vector-effect="non-scaling-stroke" d="
  M 101.74 170.93
  C 97.84 169.15 96.53 165.49 98.47 161.80
  Q 100.56 157.82 99.87 153.42
  C 99.27 149.57 94.27 151.88 92.39 152.88
  A 2.32 2.31 33.8 0 1 91.07 153.14
  C 88.94 152.91 87.41 151.63 85.23 151.40
  C 82.34 151.09 78.47 153.12 76.17 154.76
  A 1.75 1.74 -36.3 0 0 75.79 157.22
  C 78.41 160.74 83.96 157.62 86.90 162.38
  Q 88.46 164.92 89.32 167.94
  C 90.23 171.13 92.71 173.91 95.82 174.91
  C 99.33 176.03 97.84 181.51 103.05 181.02
  Q 107.42 180.60 108.92 177.29
  Q 110.70 173.33 106.36 172.43
  Q 103.91 171.93 101.74 170.93"
/>
<path stroke="#de4846" vector-effect="non-scaling-stroke" d="
  M 167.22 155.29
  C 163.37 154.90 157.36 155.26 155.27 159.13
  Q 152.25 164.73 152.69 170.54
  Q 152.93 173.65 155.24 175.98
  Q 157.36 178.11 160.14 179.33"
/>
<path stroke="#d13a30" vector-effect="non-scaling-stroke" d="
  M 160.14 179.33
  Q 166.20 182.96 172.62 180.36
  Q 174.47 179.62 175.48 178.24"
/>
<path stroke="#de4846" vector-effect="non-scaling-stroke" d="
  M 175.48 178.24
  Q 181.14 173.45 179.99 166.60"
/>
<path stroke="#d13a30" vector-effect="non-scaling-stroke" d="
  M 179.99 166.60
  Q 180.53 161.64 178.34 158.49
  Q 177.64 157.47 174.75 155.24
  C 173.60 154.35 172.75 154.44 171.41 154.33
  Q 170.74 154.28 170.28 153.81
  Q 169.64 153.15 168.86 153.15
  Q 168.37 153.15 168.13 153.58
  L 167.22 155.29"
/>
<path stroke="#f04b4c" vector-effect="non-scaling-stroke" d="
  M 179.99 166.60
  L 179.35 164.29
  Q 178.90 162.65 178.52 164.31
  C 177.68 167.98 172.98 166.52 170.33 166.25
  Q 169.23 166.14 169.14 167.21
  A 0.97 0.96 -69.6 0 0 169.53 168.08
  L 174.38 171.67
  Q 174.81 171.99 174.83 172.52
  L 174.92 175.92
  Q 174.94 176.40 174.69 176.80
  Q 173.91 178.06 175.48 178.24"
/>
<path stroke="#f04b4c" vector-effect="non-scaling-stroke" d="
  M 160.14 179.33
  L 161.02 179.34
  Q 161.64 179.36 161.62 178.73
  Q 161.61 178.46 161.38 178.33
  Q 160.92 178.06 160.87 177.53
  Q 160.69 175.31 164.85 171.07
  Q 164.92 171.01 164.90 170.92
  Q 164.78 170.26 164.17 170.11
  Q 163.35 169.91 162.69 170.44
  Q 159.80 172.74 156.83 174.01
  Q 156.18 174.29 155.65 173.83
  L 155.46 173.67
  A 0.40 0.40 0.0 0 1 155.49 173.03
  L 157.74 171.47
  A 0.31 0.31 0.0 0 0 157.43 170.94
  Q 153.97 172.71 154.27 169.87
  Q 154.43 168.38 155.51 164.61
  Q 155.65 164.10 155.89 163.81
  C 156.27 163.34 156.17 162.61 156.43 161.97
  C 157.69 158.94 161.50 157.60 163.08 161.28
  Q 163.71 162.75 164.39 164.03
  Q 164.78 164.76 165.62 164.92
  Q 166.23 165.04 166.20 164.42
  C 166.07 161.83 166.02 157.60 168.77 156.31
  Q 168.85 156.27 168.88 156.18
  Q 168.93 156.04 168.91 155.89
  Q 168.88 155.60 168.59 155.61
  Q 167.73 155.62 167.22 155.29"
/>
<path stroke="#805a2c" vector-effect="non-scaling-stroke" d="
  M 42.27 167.15
  L 50.32 171.18
  Q 50.72 171.37 50.88 171.79
  Q 51.12 172.40 51.77 172.41"
/>
<path stroke="#d57957" vector-effect="non-scaling-stroke" d="
  M 51.77 172.41
  C 47.81 179.35 50.47 184.91 54.47 191.51
  Q 58.38 197.96 62.83 201.55
  C 68.32 205.96 73.71 204.36 76.90 198.72
  C 79.21 194.63 81.33 191.13 85.97 189.27
  C 89.12 188.02 90.93 185.69 89.50 182.26
  Q 86.86 175.92 86.08 169.68
  Q 85.38 164.12 80.27 163.79
  Q 73.95 163.38 67.82 161.03
  Q 67.57 160.94 67.50 161.20
  Q 67.45 161.42 67.46 161.46"
/>
<path stroke="#805a2c" vector-effect="non-scaling-stroke" d="
  M 67.46 161.46
  Q 67.10 160.55 65.94 160.33
  Q 65.53 160.26 65.79 159.95
  Q 65.83 159.90 65.81 159.84
  Q 65.71 159.40 65.23 159.18
  Q 64.04 158.66 63.34 157.86"
/>
<path stroke="#836836" vector-effect="non-scaling-stroke" d="
  M 63.34 157.86
  Q 62.09 155.68 59.90 154.85
  Q 59.00 154.51 58.09 154.72
  C 56.49 155.08 55.28 154.74 53.75 155.67
  C 52.37 156.50 50.93 156.54 49.53 157.54
  Q 44.35 161.21 42.27 167.15"
/>
<path stroke="#448b38" vector-effect="non-scaling-stroke" d="
  M 63.34 157.86
  Q 63.97 160.19 59.24 159.75
  Q 58.64 159.69 58.57 160.29
  Q 58.51 160.80 58.81 161.15
  Q 59.15 161.54 59.65 161.39
  Q 62.92 160.36 64.87 162.10
  C 68.83 165.63 64.25 170.24 60.37 170.54
  Q 58.91 170.66 55.77 169.51
  Q 49.17 167.11 42.27 167.15"
/>
<path stroke="#959c59" vector-effect="non-scaling-stroke" d="
  M 67.46 161.46
  Q 68.58 163.44 68.66 165.05"
/>
<path stroke="#97a567" vector-effect="non-scaling-stroke" d="
  M 68.66 165.05
  C 67.10 171.85 61.12 174.57 54.69 173.32"
/>
<path stroke="#959c59" vector-effect="non-scaling-stroke" d="
  M 54.69 173.32
  Q 52.60 172.00 51.77 172.41"
/>
<path stroke="#ecc492" vector-effect="non-scaling-stroke" d="
  M 54.69 173.32
  Q 53.86 173.48 54.16 174.24
  Q 54.62 175.40 54.31 176.34
  C 53.64 178.45 52.89 180.28 53.52 182.56
  Q 54.63 186.56 57.40 189.48
  Q 60.89 193.19 63.88 197.32
  Q 65.15 199.08 66.83 197.69
  L 67.20 197.38
  Q 68.74 196.11 67.63 194.45
  Q 65.68 191.51 62.93 188.73
  C 60.90 186.69 60.15 185.20 60.74 182.45
  Q 61.05 181.00 62.52 180.80
  Q 64.23 180.57 65.92 180.40
  C 69.50 180.04 69.35 174.75 68.58 172.26
  A 2.50 2.50 0.0 0 1 71.23 169.04
  C 74.39 169.37 78.94 168.30 79.21 173.19
  Q 79.32 175.02 80.87 175.59
  A 1.61 1.61 0.0 0 0 82.94 174.62
  Q 84.35 170.70 82.21 167.72
  C 81.25 166.38 79.32 166.15 77.79 166.14
  Q 76.09 166.13 74.23 165.75
  Q 71.26 165.14 68.66 165.05"
/>
<path stroke="#836836" vector-effect="non-scaling-stroke" d="
  M 117.38 177.12
  Q 116.58 178.21 116.13 180.13
  Q 115.76 181.69 116.27 182.26"
/>
<path stroke="#805a2c" vector-effect="non-scaling-stroke" d="
  M 116.27 182.26
  Q 116.25 182.45 116.05 182.65
  Q 115.62 183.09 115.88 183.64
  L 117.95 188.12
  Q 118.16 188.58 118.66 188.68
  L 119.22 188.78"
/>
<path stroke="#d57957" vector-effect="non-scaling-stroke" d="
  M 119.22 188.78
  Q 119.90 191.65 119.83 196.51
  Q 119.67 206.56 131.03 209.26"
/>
<path stroke="#836836" vector-effect="non-scaling-stroke" d="
  M 131.03 209.26
  Q 126.32 211.62 124.26 211.46
  Q 121.49 211.25 119.00 212.07
  A 1.67 1.67 0.0 0 0 118.29 214.79
  Q 122.41 219.27 125.73 222.48
  Q 127.81 224.50 131.76 224.18
  Q 136.08 223.83 136.51 220.41
  C 136.70 218.91 136.02 217.85 135.73 216.46
  C 135.39 214.79 136.51 213.21 135.75 211.64
  Q 135.55 211.23 135.15 210.99
  Q 134.28 210.48 134.18 209.73"
/>
<path stroke="#d57957" vector-effect="non-scaling-stroke" d="
  M 134.18 209.73
  Q 138.52 209.80 142.75 209.81
  C 151.73 209.84 155.76 202.71 157.25 194.98
  Q 157.88 191.66 155.50 189.21
  Q 152.19 185.81 151.45 181.86
  C 150.43 176.47 148.10 171.99 142.32 170.77
  Q 132.35 168.67 122.26 173.01
  Q 119.07 174.38 117.38 177.12"
/>
<path stroke="#99aa63" vector-effect="non-scaling-stroke" d="
  M 134.18 209.73
  L 131.03 209.26"
/>
<path stroke="#959c59" vector-effect="non-scaling-stroke" d="
  M 119.22 188.78
  Q 118.95 188.79 119.05 188.54
  A 0.16 0.16 0.0 0 1 119.32 188.51
  C 121.57 191.47 122.00 192.96 126.25 193.08"
/>
<path stroke="#ecc492" vector-effect="non-scaling-stroke" d="
  M 126.25 193.08
  Q 125.23 193.25 125.16 193.65
  Q 125.11 193.95 124.81 194.00
  C 122.37 194.44 122.89 198.40 123.55 199.77
  Q 124.40 201.53 126.62 203.26
  C 129.63 205.60 134.92 205.32 137.88 203.80
  Q 138.33 203.57 138.46 203.08
  C 138.80 201.74 137.36 201.00 136.25 200.99
  Q 131.29 200.92 130.05 195.72
  A 1.31 1.31 0.0 0 1 130.80 194.22
  Q 131.20 194.04 131.49 193.71
  Q 131.85 193.30 131.55 192.84
  Q 131.13 192.19 130.73 191.97"
/>
<path stroke="#959c59" vector-effect="non-scaling-stroke" d="
  M 130.73 191.97
  L 140.39 182.55"
/>
<path stroke="#99aa63" vector-effect="non-scaling-stroke" d="
  M 140.39 182.55
  L 143.38 180.35
  A 0.89 0.88 -44.4 0 0 143.40 178.94
  Q 133.84 171.60 122.26 174.76
  Q 121.18 175.06 117.38 177.12"
/>
<path stroke="#448b38" vector-effect="non-scaling-stroke" d="
  M 140.39 182.55
  L 139.21 182.87
  Q 138.73 183.00 138.47 183.42
  Q 138.30 183.70 137.97 183.63
  Q 137.48 183.51 137.06 183.81
  Q 133.71 186.17 130.54 189.02
  C 127.24 192.00 123.41 189.81 121.58 186.58
  Q 121.31 186.09 121.49 185.56
  Q 122.18 183.45 124.32 182.98
  A 1.50 1.48 12.0 0 0 125.19 182.42
  Q 125.92 181.41 124.18 181.29
  A 1.57 1.56 -67.2 0 0 122.94 181.80
  Q 121.61 183.26 120.04 183.65
  Q 119.53 183.78 119.05 183.55
  L 116.27 182.26"
/>
<path stroke="#97a567" vector-effect="non-scaling-stroke" d="
  M 130.73 191.97
  L 126.25 193.08"
/>
<path stroke="#de4846" vector-effect="non-scaling-stroke" d="
  M 91.80 191.39
  Q 88.05 195.79 87.34 202.78
  Q 86.66 209.49 92.50 212.69
  C 97.28 215.30 103.28 217.48 108.28 214.17
  C 111.89 211.79 114.68 208.15 114.77 203.76
  Q 114.84 200.04 113.60 195.84"
/>
<path stroke="#d13a30" vector-effect="non-scaling-stroke" d="
  M 113.60 195.84
  Q 112.62 191.11 108.99 190.18
  Q 100.27 187.92 91.80 191.39"
/>
<path stroke="#f04b4c" vector-effect="non-scaling-stroke" d="
  M 113.60 195.84
  L 112.62 194.66
  Q 111.89 193.78 112.08 194.91
  Q 112.24 195.81 112.68 196.60
  C 113.74 198.49 113.08 200.94 110.69 201.21
  Q 108.78 201.42 105.90 200.93
  Q 102.19 200.31 104.66 203.14
  Q 105.41 203.99 106.54 204.56
  C 109.00 205.78 110.12 208.03 109.09 210.76
  C 108.63 211.99 107.30 212.39 106.20 212.82
  Q 105.64 213.03 105.40 212.49
  Q 105.30 212.25 105.38 212.02
  Q 105.73 211.09 104.79 211.39
  Q 102.13 212.23 99.10 210.47
  A 1.02 1.02 0.0 0 0 97.87 210.63
  L 97.64 210.86
  A 0.67 0.67 0.0 0 0 97.97 211.99
  L 101.76 212.77
  Q 102.07 212.84 102.16 213.14
  L 102.25 213.43
  A 0.31 0.31 0.0 0 1 101.97 213.83
  Q 99.25 213.97 96.82 213.17
  A 1.94 1.93 -61.0 0 1 95.94 210.09
  Q 97.54 208.16 99.05 206.06
  Q 100.35 204.24 98.21 204.86
  Q 97.39 205.10 96.67 205.65
  Q 94.02 207.70 91.23 208.72
  A 1.00 1.00 0.0 0 1 90.66 208.75
  Q 89.92 208.56 89.74 208.06
  Q 89.48 207.28 90.29 207.16
  Q 92.21 206.87 92.01 204.58
  Q 91.96 204.01 91.39 204.00
  L 91.00 203.99
  Q 89.98 203.97 90.43 204.88
  Q 90.86 205.78 89.95 206.26
  Q 89.24 206.62 89.07 205.85
  Q 88.69 204.22 89.69 202.68
  Q 89.92 202.32 89.90 201.89
  Q 89.69 197.66 92.34 194.62
  C 95.41 191.11 98.11 196.88 99.17 198.78
  Q 100.27 200.76 100.51 198.51
  C 100.73 196.50 100.54 192.67 102.53 191.40
  Q 104.10 190.40 102.25 190.19
  Q 96.99 189.57 91.80 191.39"
/>
<path stroke="#f04b4c" vector-effect="non-scaling-stroke" d="
  M 96.20 91.41
  A 0.76 0.75 24.4 0 1 96.61 92.49
  Q 95.63 94.27 96.02 96.47
  Q 96.14 97.15 95.45 97.09
  L 95.03 97.05
  Q 94.12 96.97 94.33 97.86
  Q 94.48 98.51 94.17 99.07
  Q 93.86 99.63 94.47 99.86
  Q 94.72 99.95 94.97 99.88
  Q 95.57 99.71 95.48 99.10
  Q 95.40 98.49 95.70 97.96
  Q 95.90 97.62 96.29 97.59
  Q 98.70 97.44 101.28 96.40
  Q 102.76 95.80 104.11 96.79
  A 1.98 1.98 0.0 0 1 104.83 99.01
  L 104.02 101.47
  Q 103.83 102.03 104.37 102.27
  C 106.35 103.18 108.35 102.75 110.46 102.84
  Q 114.21 102.99 110.99 101.07
  C 108.37 99.51 105.79 97.90 105.50 94.59
  Q 105.45 94.04 105.87 93.67
  Q 108.99 90.97 113.06 92.98
  Q 113.64 93.26 113.74 92.63
  Q 114.02 90.98 112.66 90.18
  Q 112.27 89.95 111.99 90.30
  Q 111.54 90.83 110.97 90.43
  C 109.80 89.60 109.78 88.24 108.34 87.57
  A 1.51 1.50 15.0 0 0 106.21 88.79
  Q 105.92 91.77 104.15 93.83
  Q 103.29 94.83 102.19 94.09
  Q 98.28 91.47 97.16 88.88
  Q 96.92 88.32 96.46 88.72
  Q 95.43 89.60 95.68 91.04
  Q 95.71 91.24 95.91 91.31
  Q 96.06 91.36 96.20 91.41"
/>
<path stroke="#ecc492" vector-effect="non-scaling-stroke" d="
  M 62.75 106.47
  Q 60.79 108.41 61.61 110.80
  C 62.23 112.61 64.58 114.14 66.25 114.82
  C 73.40 117.74 71.43 129.00 80.10 129.85
  Q 81.86 130.02 83.33 129.12
  C 84.85 128.19 84.66 125.85 83.45 124.78
  Q 81.10 122.71 78.23 120.70
  C 76.00 119.14 73.18 116.21 73.64 113.25
  C 73.96 111.22 76.31 111.20 77.72 112.04
  Q 78.88 112.74 80.15 113.05
  A 2.61 2.61 0.0 0 0 83.36 110.83
  Q 83.63 108.61 80.86 106.89
  A 2.38 2.37 -62.1 0 1 79.95 103.90
  L 81.15 101.21
  A 1.99 1.99 0.0 0 0 80.28 98.65
  Q 77.12 96.96 74.07 97.95
  Q 70.17 99.20 66.84 101.51
  Q 65.71 102.30 64.85 103.76
  Q 63.97 105.26 62.75 106.47"
/>
<path stroke="#f04b4c" vector-effect="non-scaling-stroke" d="
  M 58.94 140.67
  A 2.26 2.26 0.0 0 1 55.13 141.75
  L 52.99 139.59
  A 1.08 1.04 61.7 0 0 52.05 139.29
  C 49.03 139.83 49.95 142.66 49.89 144.67
  A 0.77 0.77 0.0 0 0 50.79 145.44
  C 53.09 145.02 57.22 143.17 58.50 145.93
  Q 58.75 146.48 58.56 147.05
  L 57.75 149.50
  A 0.91 0.91 0.0 0 0 58.68 150.70
  Q 60.27 150.59 61.65 151.27
  A 2.04 2.02 -45.2 0 0 63.45 151.26
  L 65.10 150.42
  Q 66.02 149.95 65.14 149.41
  Q 62.43 147.76 60.55 145.91
  C 59.00 144.39 58.84 141.52 61.23 140.64
  Q 64.45 139.47 66.84 141.10
  A 0.56 0.56 0.0 0 0 67.71 140.59
  Q 67.33 136.21 64.85 133.53
  Q 64.30 132.93 63.57 133.29
  L 63.21 133.47
  Q 62.31 133.92 63.07 134.57
  L 65.90 137.00
  Q 66.35 137.39 66.10 137.93
  Q 65.97 138.21 65.72 138.40
  A 0.83 0.83 0.0 0 1 64.45 138.01
  Q 63.50 135.36 60.82 135.18
  A 0.71 0.71 0.0 0 0 60.08 135.74
  L 58.94 140.67"
/>
<path stroke="#f04b4c" vector-effect="non-scaling-stroke" d="
  M 173.83 163.58
  Q 173.77 163.81 173.43 163.65
  A 0.41 0.41 0.0 0 1 173.22 163.40
  C 172.77 161.63 171.35 161.28 170.42 159.86
  A 1.10 1.09 39.6 0 0 168.49 160.04
  Q 167.76 161.80 167.49 163.69
  C 167.12 166.25 164.43 167.38 162.65 165.22
  Q 161.68 164.04 160.27 163.43
  A 0.91 0.89 11.1 0 1 159.73 162.64
  Q 159.70 162.13 159.52 161.66
  Q 158.84 159.89 157.93 161.55
  L 157.21 162.85
  A 2.59 2.58 -46.4 0 0 157.27 165.47
  Q 158.18 166.95 157.88 168.80
  Q 157.78 169.43 157.22 169.14
  Q 156.49 168.76 155.73 168.96
  Q 155.01 169.15 155.46 169.73
  Q 155.82 170.21 156.45 170.20
  Q 159.57 170.14 162.03 169.10
  C 165.86 167.48 167.73 170.27 166.12 173.71
  Q 165.58 174.87 166.82 175.20
  Q 169.61 175.93 171.82 174.77
  A 1.16 1.15 46.4 0 0 171.86 172.75
  Q 169.85 171.57 168.41 169.77
  C 166.71 167.63 167.49 164.88 170.29 164.59
  Q 172.82 164.32 174.99 165.24
  A 0.62 0.62 0.0 0 0 175.82 164.48
  L 174.16 159.46
  A 1.97 1.95 -76.1 0 0 173.70 158.69
  Q 171.66 156.58 171.41 158.00
  Q 171.31 158.55 171.70 158.96
  Q 172.70 160.05 173.45 161.13
  Q 174.18 162.17 173.83 163.58"
/>
<path stroke="#f04b4c" vector-effect="non-scaling-stroke" d="
  M 94.40 197.59
  Q 94.25 196.75 93.83 196.06
  A 0.53 0.52 50.1 0 0 93.00 195.98
  Q 92.14 196.92 91.92 198.39
  Q 91.86 198.73 92.21 198.71
  L 92.94 198.66
  A 0.57 0.55 -76.9 0 0 93.39 198.37
  Q 93.57 198.03 93.87 198.13
  A 0.37 0.37 0.0 0 1 93.94 198.79
  L 93.10 199.30
  Q 92.61 199.61 92.57 200.18
  L 92.38 203.19
  A 1.29 1.28 83.4 0 0 94.03 204.50
  Q 96.47 203.77 98.76 203.52
  Q 101.56 203.21 101.16 205.95
  Q 101.00 207.11 100.46 208.25
  Q 99.95 209.33 101.10 209.66
  Q 104.94 210.75 107.76 209.47
  A 0.75 0.75 0.0 0 0 107.80 208.13
  C 105.17 206.72 101.92 204.78 101.99 201.40
  A 1.23 1.20 -17.3 0 1 102.52 200.42
  Q 104.53 199.04 107.28 198.80
  Q 107.69 198.76 107.96 199.09
  Q 108.53 199.80 109.39 199.87
  Q 110.45 199.96 110.24 198.92
  Q 109.61 195.76 108.29 193.14
  A 1.67 1.66 74.6 0 0 106.70 192.23
  Q 105.40 192.30 106.13 193.76
  A 0.59 0.59 0.0 0 1 105.31 194.53
  C 103.64 193.54 102.61 195.31 102.52 196.71
  C 102.39 198.71 101.32 201.68 98.65 200.89
  C 97.02 200.41 96.60 198.83 94.92 198.21
  A 0.81 0.81 0.0 0 1 94.40 197.59"
/>
</g>
<path fill="#fdc15f" d="
  M 190.37 77.95
  Q 192.41 86.29 195.61 93.72
  Q 196.49 95.76 198.64 101.81
  Q 200.13 106.02 201.97 109.52
  Q 203.51 112.44 204.94 115.50
  Q 206.19 118.17 206.82 121.29
  Q 207.87 126.44 208.82 131.84
  A 6.29 6.17 47.6 0 1 208.73 134.43
  C 207.89 137.76 206.97 141.11 207.17 144.54
  Q 207.57 151.19 207.31 157.96
  Q 207.29 158.50 207.56 158.96
  C 208.09 159.91 207.84 161.25 207.95 162.35
  Q 208.86 171.33 205.65 179.54
  Q 204.53 182.42 201.71 186.55
  Q 199.41 189.93 197.17 193.23
  Q 194.73 196.85 182.27 208.69
  C 181.63 209.31 180.75 209.56 180.19 210.20
  C 178.98 211.57 177.31 212.15 176.19 213.68
  Q 175.21 215.02 173.99 216.09
  C 170.26 219.37 166.68 223.19 162.62 225.44
  Q 156.33 228.94 150.67 230.53
  Q 146.30 231.75 142.27 233.34
  Q 138.26 234.92 133.50 235.94
  Q 132.16 236.22 131.12 236.73
  Q 130.00 237.27 128.80 237.40
  Q 128.26 237.46 127.83 237.80
  Q 127.27 238.25 126.66 237.96
  A 0.29 0.28 30.7 0 0 126.30 238.05
  Q 125.65 238.99 126.08 239.88
  Q 126.24 240.21 125.87 240.16
  Q 125.55 240.12 125.26 240.25
  Q 125.01 240.37 125.24 240.75
  Q 118.22 241.63 111.26 240.98
  Q 95.96 239.55 82.12 235.39
  C 70.31 231.85 61.46 225.54 52.58 216.62
  Q 45.38 209.39 35.62 201.53
  Q 28.62 195.89 23.79 187.01
  Q 18.62 177.48 18.93 165.17
  Q 19.36 148.03 20.79 133.57
  C 22.33 117.97 23.18 106.91 31.42 95.36
  Q 40.21 83.04 49.13 74.35
  C 60.19 63.57 75.10 56.06 90.04 51.75
  Q 124.41 41.85 155.79 56.34
  Q 163.99 60.12 177.65 67.61
  Q 185.85 72.10 190.37 77.95
  Z
  M 63.99 66.54
  Q 60.13 69.40 56.53 71.25
  Q 53.94 72.58 52.03 74.73
  Q 49.11 77.99 46.02 80.68
  Q 44.05 82.40 42.65 84.35
  Q 41.08 86.54 39.47 88.60
  Q 39.21 88.94 39.13 89.37
  Q 39.09 89.57 38.98 89.76
  Q 37.08 92.86 35.12 95.58
  C 32.44 99.31 31.33 103.73 29.85 108.01
  Q 28.82 110.99 28.24 113.94
  Q 26.40 123.30 24.45 132.12
  Q 24.01 134.08 23.96 136.06
  Q 23.92 137.71 23.25 139.29
  Q 19.32 148.41 20.14 157.31
  C 20.48 161.05 22.30 164.46 22.61 168.25
  Q 23.37 177.41 28.56 184.04
  A 0.95 0.95 0.0 0 0 30.09 183.99
  Q 30.76 182.98 30.39 181.87
  C 29.39 178.95 29.61 176.10 28.46 173.14
  Q 26.60 168.36 26.23 166.25
  Q 25.28 160.86 24.26 155.48
  Q 23.40 150.95 24.68 144.67
  Q 25.87 138.82 27.45 134.70
  Q 27.93 133.46 28.24 132.07
  Q 28.55 130.67 28.98 129.22
  Q 29.63 127.00 29.87 124.93
  Q 30.20 122.03 30.62 119.25
  Q 32.34 107.88 36.86 99.28
  C 38.79 95.60 42.11 92.64 44.63 89.35
  C 47.94 85.04 51.12 80.11 55.15 76.52
  Q 61.33 71.02 69.28 68.22
  Q 75.45 66.05 80.94 61.90
  A 2.17 2.16 -31.7 0 0 81.58 59.22
  Q 80.72 57.49 78.77 57.88
  Q 76.01 58.43 73.99 60.30
  Q 72.29 61.87 70.45 62.80
  Q 67.48 64.31 64.52 66.02
  Q 64.34 66.12 64.23 66.29
  Q 64.13 66.44 63.99 66.54
  Z
  M 112.14 230.79
  Q 111.61 232.69 112.97 234.81
  Q 113.59 235.77 114.58 236.07
  Q 115.74 236.43 116.75 236.13
  Q 123.64 234.14 143.25 228.87
  Q 154.75 225.77 165.55 219.42
  Q 168.13 217.91 170.62 215.67
  C 174.61 212.07 178.51 208.62 182.24 204.75
  Q 187.76 199.03 193.30 193.18
  Q 195.05 191.34 196.89 189.65
  Q 200.77 186.11 204.34 180.47
  Q 205.47 178.68 204.26 177.19
  Q 203.98 176.85 203.61 177.07
  C 200.52 178.90 198.34 181.53 196.64 184.60
  Q 195.34 186.97 193.19 188.93
  Q 189.42 192.36 185.59 195.03
  C 181.57 197.84 178.14 201.33 174.55 204.55
  Q 173.13 205.81 172.17 207.57
  Q 170.42 210.75 167.79 213.84
  Q 167.53 214.14 167.15 214.28
  C 166.29 214.61 165.76 214.97 165.07 215.54
  Q 164.29 216.19 163.32 216.02
  Q 162.93 215.95 162.54 215.99
  L 160.30 216.22
  Q 163.42 213.47 165.38 211.12
  Q 169.08 206.66 173.60 200.64
  C 180.14 191.94 197.31 185.32 196.90 169.35
  Q 196.76 163.99 196.67 158.61
  C 196.57 152.66 198.69 146.93 199.81 141.12
  Q 201.19 133.89 199.06 126.41
  Q 196.62 117.84 193.07 108.81
  C 188.61 97.49 182.81 90.34 172.92 83.04
  Q 162.71 75.52 151.38 68.44
  C 145.13 64.54 138.84 62.54 131.52 62.31
  Q 118.70 61.91 106.37 62.64
  C 88.59 63.70 68.30 68.99 60.96 86.62
  C 58.87 91.63 56.74 96.45 52.99 100.51
  C 48.94 104.88 44.40 108.63 40.93 113.77
  Q 36.49 120.33 34.34 128.71
  Q 31.57 139.47 29.89 150.96
  Q 28.98 157.22 31.03 163.11
  Q 34.17 172.08 36.46 180.99
  C 37.74 185.96 39.50 190.21 43.00 193.69
  Q 49.24 199.87 54.13 207.69
  Q 59.00 215.45 68.54 219.23
  Q 80.83 224.10 91.48 227.59
  Q 101.72 230.95 112.14 230.79
  Z"
/>
<path fill="#ffd17c" d="
  M 64.23 66.29
  Q 64.34 66.12 64.52 66.02
  Q 67.48 64.31 70.45 62.80
  Q 72.29 61.87 73.99 60.30
  Q 76.01 58.43 78.77 57.88
  Q 80.72 57.49 81.58 59.22
  A 2.17 2.16 -31.7 0 1 80.94 61.90
  Q 75.45 66.05 69.28 68.22
  Q 61.33 71.02 55.15 76.52
  C 51.12 80.11 47.94 85.04 44.63 89.35
  C 42.11 92.64 38.79 95.60 36.86 99.28
  Q 32.34 107.88 30.62 119.25
  Q 30.20 122.03 29.87 124.93
  Q 29.63 127.00 28.98 129.22
  Q 28.55 130.67 28.24 132.07
  Q 27.93 133.46 27.45 134.70
  Q 25.87 138.82 24.68 144.67
  Q 23.40 150.95 24.26 155.48
  Q 25.28 160.86 26.23 166.25
  Q 26.60 168.36 28.46 173.14
  C 29.61 176.10 29.39 178.95 30.39 181.87
  Q 30.76 182.98 30.09 183.99
  A 0.95 0.95 0.0 0 1 28.56 184.04
  Q 23.37 177.41 22.61 168.25
  C 22.30 164.46 20.48 161.05 20.14 157.31
  Q 19.32 148.41 23.25 139.29
  Q 23.92 137.71 23.96 136.06
  Q 24.01 134.08 24.45 132.12
  Q 26.40 123.30 28.24 113.94
  Q 28.82 110.99 29.85 108.01
  C 31.33 103.73 32.44 99.31 35.12 95.58
  Q 37.08 92.86 38.98 89.76
  Q 39.09 89.57 39.13 89.37
  Q 39.21 88.94 39.47 88.60
  Q 41.08 86.54 42.65 84.35
  Q 44.05 82.40 46.02 80.68
  Q 49.11 77.99 52.03 74.73
  Q 53.94 72.58 56.53 71.25
  Q 60.13 69.40 63.99 66.54
  Q 64.13 66.44 64.23 66.29
  Z"
/>
<path fill="#bf372a" d="
  M 160.30 216.22
  Q 156.65 219.15 153.26 220.47
  Q 143.81 224.14 130.99 227.72
  Q 121.87 230.26 112.14 230.79
  Q 101.72 230.95 91.48 227.59
  Q 80.83 224.10 68.54 219.23
  Q 59.00 215.45 54.13 207.69
  Q 49.24 199.87 43.00 193.69
  C 39.50 190.21 37.74 185.96 36.46 180.99
  Q 34.17 172.08 31.03 163.11
  Q 28.98 157.22 29.89 150.96
  Q 31.57 139.47 34.34 128.71
  Q 36.49 120.33 40.93 113.77
  C 44.40 108.63 48.94 104.88 52.99 100.51
  C 56.74 96.45 58.87 91.63 60.96 86.62
  C 68.30 68.99 88.59 63.70 106.37 62.64
  Q 118.70 61.91 131.52 62.31
  C 138.84 62.54 145.13 64.54 151.38 68.44
  Q 162.71 75.52 172.92 83.04
  C 182.81 90.34 188.61 97.49 193.07 108.81
  Q 196.62 117.84 199.06 126.41
  Q 201.19 133.89 199.81 141.12
  C 198.69 146.93 196.57 152.66 196.67 158.61
  Q 196.76 163.99 196.90 169.35
  C 197.31 185.32 180.14 191.94 173.60 200.64
  Q 169.08 206.66 165.38 211.12
  Q 163.42 213.47 160.30 216.22
  Z
  M 136.65 87.22
  L 139.01 90.70
  Q 139.29 91.11 139.27 91.62
  Q 139.17 93.29 139.74 95.17
  Q 139.28 92.84 138.52 92.77
  C 134.67 92.42 128.12 92.62 125.41 95.94
  Q 122.84 99.10 122.92 103.39
  Q 120.12 102.83 116.83 103.60
  Q 115.43 103.92 114.08 104.08
  Q 112.50 104.28 111.36 104.84
  Q 109.38 105.81 107.26 107.25
  Q 104.00 109.46 102.31 113.01
  Q 102.10 113.45 102.15 113.94
  Q 102.39 116.17 100.16 116.62
  Q 97.47 114.68 93.07 112.91
  C 84.01 109.26 90.18 95.88 79.86 95.28
  C 68.29 94.61 58.09 101.88 58.29 114.13
  C 58.36 118.54 64.56 122.42 68.01 124.30
  C 69.28 124.99 70.50 126.16 71.15 127.48
  Q 75.49 136.27 85.41 135.25
  Q 85.98 135.19 85.70 134.70
  L 85.45 134.24
  L 87.70 135.09
  Q 88.21 135.28 88.28 135.82
  Q 88.32 136.15 88.70 136.13
  A 0.69 0.68 -23.2 0 1 89.21 136.33
  C 90.53 137.59 92.78 139.32 94.62 139.56
  Q 95.31 139.65 95.79 140.14
  Q 96.20 140.54 96.76 140.68
  C 99.64 141.36 103.28 141.50 105.72 139.67
  Q 106.72 138.93 107.67 138.17
  Q 109.02 137.10 111.28 136.67
  Q 115.61 135.84 120.46 135.82
  Q 122.39 135.81 124.16 135.15
  Q 124.72 134.95 124.67 134.36
  L 124.50 132.32
  Q 131.70 131.81 135.58 135.38
  C 138.26 137.85 141.08 141.08 144.49 142.34
  Q 144.83 142.46 145.23 142.10
  Q 145.71 142.14 145.94 142.41
  Q 147.13 142.74 148.31 142.58
  Q 148.09 143.45 148.77 143.67
  Q 149.36 143.86 149.37 144.47
  Q 149.52 149.43 155.48 150.86
  Q 159.28 151.77 163.19 150.94
  C 164.72 150.62 166.44 151.44 167.81 152.14
  A 1.36 1.35 12.9 0 0 169.78 150.91
  Q 169.60 141.87 162.62 135.90
  Q 157.83 131.81 153.15 133.56
  C 151.81 129.03 150.43 123.31 151.77 118.74
  C 153.36 113.30 158.76 112.85 157.28 105.51
  Q 155.89 98.61 148.57 95.24
  Q 152.13 91.23 152.12 88.99
  C 152.11 86.68 153.37 84.56 154.51 82.65
  A 1.27 1.26 -70.2 0 0 153.62 80.75
  L 150.85 80.34
  Q 150.52 75.57 146.62 72.89
  Q 143.07 70.45 140.49 70.03
  Q 132.42 68.73 125.60 66.76
  Q 118.84 64.82 114.78 64.85
  Q 107.95 64.90 102.16 67.05
  Q 99.11 68.18 99.97 71.04
  C 101.04 74.59 106.08 73.86 108.71 73.43
  C 114.27 72.53 120.19 75.20 122.36 80.64
  C 123.73 84.09 124.40 88.82 129.50 87.97
  Q 132.85 87.41 136.65 87.22
  Z
  M 68.88 85.80
  Q 68.34 87.53 68.75 89.04
  A 1.37 1.34 3.4 0 0 69.56 89.93
  C 74.16 91.71 83.35 92.27 82.69 84.48
  Q 82.32 80.15 84.89 76.99
  A 1.82 1.82 0.0 0 0 84.14 74.15
  Q 82.30 73.43 80.02 73.81
  C 73.17 74.93 70.74 79.91 68.88 85.80
  Z
  M 166.38 104.41
  C 171.12 98.81 175.61 106.14 178.94 102.69
  Q 179.36 102.25 179.30 101.65
  C 178.85 97.50 174.34 96.10 170.92 94.91
  Q 166.41 93.34 164.49 88.44
  Q 163.23 85.22 161.20 82.31
  A 1.96 1.95 50.0 0 0 158.21 82.05
  C 156.51 83.77 153.97 89.26 155.92 91.46
  C 158.15 93.98 160.91 96.55 160.60 100.18
  C 160.40 102.58 160.66 106.10 164.04 105.68
  Q 165.45 105.51 166.38 104.41
  Z
  M 99.94 82.96
  C 92.77 83.76 90.67 91.33 90.94 97.31
  C 91.16 102.37 94.24 105.30 98.74 106.97
  Q 101.04 109.01 104.12 108.84
  A 0.98 0.97 -77.2 0 0 104.92 108.33
  L 105.33 107.58
  Q 105.54 107.19 105.94 106.99
  L 112.73 103.62
  Q 114.03 104.00 115.20 103.56
  Q 116.21 103.19 116.86 101.96
  Q 119.03 97.85 117.66 92.45
  Q 118.27 90.26 116.86 87.61
  Q 116.03 86.05 115.67 85.19
  A 1.85 1.79 -84.5 0 0 115.07 84.44
  Q 111.59 81.91 107.21 81.92
  Q 106.97 81.93 106.73 81.85
  Q 106.49 81.77 106.37 81.98
  Q 106.12 82.40 105.63 82.37
  Q 102.72 82.20 99.94 82.96
  Z
  M 50.55 114.50
  C 51.26 112.53 52.72 111.77 53.85 110.19
  Q 54.48 109.30 53.89 108.42
  Q 53.55 107.93 53.07 108.26
  Q 49.36 110.84 46.75 113.30
  Q 46.02 113.99 45.56 115.15
  Q 45.19 116.09 44.70 116.97
  Q 43.99 118.23 43.47 119.66
  Q 41.79 124.27 39.59 128.86
  Q 37.05 134.16 36.37 137.00
  Q 35.77 139.52 35.05 146.98
  Q 34.50 152.66 36.98 158.85
  A 1.53 1.50 89.8 0 0 37.80 159.68
  Q 39.42 160.34 40.35 158.64
  A 1.87 1.86 47.9 0 0 40.43 157.04
  Q 39.62 155.10 38.66 153.13
  Q 37.78 151.33 37.81 149.20
  Q 37.88 145.72 38.37 142.45
  Q 38.40 142.22 38.58 142.08
  Q 38.87 141.85 38.87 141.48
  Q 38.77 135.95 40.52 130.79
  C 40.97 129.45 41.77 128.54 42.48 127.35
  Q 43.05 126.39 43.95 125.59
  C 45.39 124.29 46.28 121.93 47.01 120.12
  Q 47.67 118.50 48.90 117.26
  Q 49.94 116.22 50.55 114.50
  Z
  M 165.57 112.82
  Q 159.16 118.02 160.52 128.24
  Q 160.81 130.41 162.14 131.80
  Q 164.63 134.40 168.85 136.17
  Q 172.67 137.78 176.51 137.33
  Q 184.40 136.43 187.47 127.92
  Q 188.20 123.99 187.87 122.75
  Q 187.26 120.50 187.16 118.24
  Q 187.13 117.65 186.77 117.20
  Q 185.86 116.07 185.39 114.79
  C 184.71 112.90 183.05 112.61 181.47 111.85
  Q 180.51 111.38 179.50 111.35
  Q 174.73 111.21 170.08 110.88
  Q 169.52 110.84 169.03 111.11
  L 168.55 111.37
  Q 168.15 111.59 167.70 111.56
  Q 166.71 111.49 165.57 112.82
  Z
  M 54.93 130.84
  Q 52.50 131.14 50.35 132.11
  Q 48.09 133.13 47.12 134.89
  Q 43.81 140.86 44.69 147.04
  Q 45.09 149.87 47.30 151.85
  Q 49.85 154.13 53.17 155.22
  Q 55.04 154.58 56.11 153.16
  Q 56.51 152.63 56.80 153.23
  Q 56.86 153.36 56.86 153.50
  Q 56.84 154.12 57.46 154.12
  C 58.92 154.13 61.08 153.77 62.25 154.76
  Q 62.93 155.33 63.56 156.02
  Q 63.94 156.43 64.46 156.25
  Q 65.41 155.94 66.05 154.90
  L 70.04 151.00
  Q 71.06 151.29 71.32 149.96
  Q 71.41 149.50 71.72 149.14
  Q 72.75 147.95 72.61 146.18
  Q 72.38 143.48 72.36 140.69
  Q 72.33 137.84 70.94 135.68
  Q 69.48 133.42 67.70 131.78
  C 66.72 130.88 64.18 130.35 62.87 130.42
  Q 58.93 130.64 54.93 130.84
  Z
  M 190.54 135.53
  C 185.75 139.37 181.39 140.74 175.00 141.42
  Q 172.65 141.67 173.60 143.83
  C 173.95 144.62 175.32 145.67 176.07 146.09
  Q 180.25 148.36 182.49 152.08
  C 184.98 156.20 190.14 155.47 192.00 151.38
  C 193.79 147.43 193.36 141.82 193.16 137.56
  Q 193.11 136.51 192.50 135.75
  A 1.39 1.39 0.0 0 0 190.54 135.53
  Z
  M 79.69 146.72
  C 84.70 147.42 88.24 143.32 86.47 138.51
  Q 85.68 136.37 83.73 137.55
  L 82.89 138.07
  Q 82.39 138.37 81.80 138.31
  Q 80.41 138.16 78.98 137.76
  C 76.38 137.04 74.36 139.34 75.98 141.76
  Q 77.41 143.88 78.58 145.97
  A 1.51 1.51 0.0 0 0 79.69 146.72
  Z
  M 128.77 141.06
  Q 128.30 140.01 126.45 139.87
  A 0.73 0.71 13.5 0 0 125.73 140.30
  L 125.18 141.52
  L 124.67 142.26
  Q 124.55 142.14 124.30 142.11
  Q 123.95 142.08 123.89 141.73
  L 123.78 140.95
  L 123.88 140.58
  Q 124.02 140.11 123.53 140.03
  C 119.03 139.36 111.05 139.04 108.60 143.65
  Q 106.12 148.31 106.15 153.97
  C 106.17 158.30 108.15 160.98 111.92 162.90
  Q 124.29 169.21 131.34 160.02
  Q 133.49 157.21 133.60 153.93
  Q 133.72 150.12 132.55 146.40
  Q 131.53 143.18 128.77 141.06
  Z
  M 101.74 170.93
  C 97.84 169.15 96.53 165.49 98.47 161.80
  Q 100.56 157.82 99.87 153.42
  C 99.27 149.57 94.27 151.88 92.39 152.88
  A 2.32 2.31 33.8 0 1 91.07 153.14
  C 88.94 152.91 87.41 151.63 85.23 151.40
  C 82.34 151.09 78.47 153.12 76.17 154.76
  A 1.75 1.74 -36.3 0 0 75.79 157.22
  C 78.41 160.74 83.96 157.62 86.90 162.38
  Q 88.46 164.92 89.32 167.94
  C 90.23 171.13 92.71 173.91 95.82 174.91
  C 99.33 176.03 97.84 181.51 103.05 181.02
  Q 107.42 180.60 108.92 177.29
  Q 110.70 173.33 106.36 172.43
  Q 103.91 171.93 101.74 170.93
  Z
  M 167.22 155.29
  C 163.37 154.90 157.36 155.26 155.27 159.13
  Q 152.25 164.73 152.69 170.54
  Q 152.93 173.65 155.24 175.98
  Q 157.36 178.11 160.14 179.33
  Q 166.20 182.96 172.62 180.36
  Q 174.47 179.62 175.48 178.24
  Q 181.14 173.45 179.99 166.60
  Q 180.53 161.64 178.34 158.49
  Q 177.64 157.47 174.75 155.24
  C 173.60 154.35 172.75 154.44 171.41 154.33
  Q 170.74 154.28 170.28 153.81
  Q 169.64 153.15 168.86 153.15
  Q 168.37 153.15 168.13 153.58
  L 167.22 155.29
  Z
  M 42.27 167.15
  L 50.32 171.18
  Q 50.72 171.37 50.88 171.79
  Q 51.12 172.40 51.77 172.41
  C 47.81 179.35 50.47 184.91 54.47 191.51
  Q 58.38 197.96 62.83 201.55
  C 68.32 205.96 73.71 204.36 76.90 198.72
  C 79.21 194.63 81.33 191.13 85.97 189.27
  C 89.12 188.02 90.93 185.69 89.50 182.26
  Q 86.86 175.92 86.08 169.68
  Q 85.38 164.12 80.27 163.79
  Q 73.95 163.38 67.82 161.03
  Q 67.57 160.94 67.50 161.20
  Q 67.45 161.42 67.46 161.46
  Q 67.10 160.55 65.94 160.33
  Q 65.53 160.26 65.79 159.95
  Q 65.83 159.90 65.81 159.84
  Q 65.71 159.40 65.23 159.18
  Q 64.04 158.66 63.34 157.86
  Q 62.09 155.68 59.90 154.85
  Q 59.00 154.51 58.09 154.72
  C 56.49 155.08 55.28 154.74 53.75 155.67
  C 52.37 156.50 50.93 156.54 49.53 157.54
  Q 44.35 161.21 42.27 167.15
  Z
  M 117.38 177.12
  Q 116.58 178.21 116.13 180.13
  Q 115.76 181.69 116.27 182.26
  Q 116.25 182.45 116.05 182.65
  Q 115.62 183.09 115.88 183.64
  L 117.95 188.12
  Q 118.16 188.58 118.66 188.68
  L 119.22 188.78
  Q 119.90 191.65 119.83 196.51
  Q 119.67 206.56 131.03 209.26
  Q 126.32 211.62 124.26 211.46
  Q 121.49 211.25 119.00 212.07
  A 1.67 1.67 0.0 0 0 118.29 214.79
  Q 122.41 219.27 125.73 222.48
  Q 127.81 224.50 131.76 224.18
  Q 136.08 223.83 136.51 220.41
  C 136.70 218.91 136.02 217.85 135.73 216.46
  C 135.39 214.79 136.51 213.21 135.75 211.64
  Q 135.55 211.23 135.15 210.99
  Q 134.28 210.48 134.18 209.73
  Q 138.52 209.80 142.75 209.81
  C 151.73 209.84 155.76 202.71 157.25 194.98
  Q 157.88 191.66 155.50 189.21
  Q 152.19 185.81 151.45 181.86
  C 150.43 176.47 148.10 171.99 142.32 170.77
  Q 132.35 168.67 122.26 173.01
  Q 119.07 174.38 117.38 177.12
  Z
  M 91.80 191.39
  Q 88.05 195.79 87.34 202.78
  Q 86.66 209.49 92.50 212.69
  C 97.28 215.30 103.28 217.48 108.28 214.17
  C 111.89 211.79 114.68 208.15 114.77 203.76
  Q 114.84 200.04 113.60 195.84
  Q 112.62 191.11 108.99 190.18
  Q 100.27 187.92 91.80 191.39
  Z"
/>
<path fill="#eabb84" d="
  M 150.85 80.34
  Q 150.64 81.57 148.98 81.71
  Q 145.64 81.99 142.23 82.32
  Q 137.33 82.78 136.65 87.22
  Q 132.85 87.41 129.50 87.97
  C 124.40 88.82 123.73 84.09 122.36 80.64
  C 120.19 75.20 114.27 72.53 108.71 73.43
  C 106.08 73.86 101.04 74.59 99.97 71.04
  Q 99.11 68.18 102.16 67.05
  Q 107.95 64.90 114.78 64.85
  Q 118.84 64.82 125.60 66.76
  Q 132.42 68.73 140.49 70.03
  Q 143.07 70.45 146.62 72.89
  Q 150.52 75.57 150.85 80.34
  Z"
/>
<path fill="#eabb84" d="
  M 68.88 85.80
  C 70.74 79.91 73.17 74.93 80.02 73.81
  Q 82.30 73.43 84.14 74.15
  A 1.82 1.82 0.0 0 1 84.89 76.99
  Q 82.32 80.15 82.69 84.48
  C 83.35 92.27 74.16 91.71 69.56 89.93
  A 1.37 1.34 3.4 0 1 68.75 89.04
  Q 68.34 87.53 68.88 85.80
  Z"
/>
<path fill="#faaf57" d="
  M 190.37 77.95
  Q 195.36 84.01 197.84 91.68
  Q 201.86 104.11 209.49 119.57
  Q 211.92 124.50 212.00 132.94
  C 212.09 142.73 211.96 153.71 212.07 164.20
  Q 212.14 171.49 211.38 177.90
  C 211.04 180.71 208.70 185.50 206.88 188.26
  Q 199.96 198.70 191.10 206.76
  Q 185.37 211.97 179.31 217.67
  C 170.60 225.88 163.98 229.94 153.02 233.74
  Q 137.42 239.15 125.24 240.75
  Q 125.01 240.37 125.26 240.25
  Q 125.55 240.12 125.87 240.16
  Q 126.24 240.21 126.08 239.88
  Q 125.65 238.99 126.30 238.05
  A 0.29 0.28 30.7 0 1 126.66 237.96
  Q 127.27 238.25 127.83 237.80
  Q 128.26 237.46 128.80 237.40
  Q 130.00 237.27 131.12 236.73
  Q 132.16 236.22 133.50 235.94
  Q 138.26 234.92 142.27 233.34
  Q 146.30 231.75 150.67 230.53
  Q 156.33 228.94 162.62 225.44
  C 166.68 223.19 170.26 219.37 173.99 216.09
  Q 175.21 215.02 176.19 213.68
  C 177.31 212.15 178.98 211.57 180.19 210.20
  C 180.75 209.56 181.63 209.31 182.27 208.69
  Q 194.73 196.85 197.17 193.23
  Q 199.41 189.93 201.71 186.55
  Q 204.53 182.42 205.65 179.54
  Q 208.86 171.33 207.95 162.35
  C 207.84 161.25 208.09 159.91 207.56 158.96
  Q 207.29 158.50 207.31 157.96
  Q 207.57 151.19 207.17 144.54
  C 206.97 141.11 207.89 137.76 208.73 134.43
  A 6.29 6.17 47.6 0 0 208.82 131.84
  Q 207.87 126.44 206.82 121.29
  Q 206.19 118.17 204.94 115.50
  Q 203.51 112.44 201.97 109.52
  Q 200.13 106.02 198.64 101.81
  Q 196.49 95.76 195.61 93.72
  Q 192.41 86.29 190.37 77.95
  Z"
/>
<path fill="#479842" d="
  M 150.85 80.34
  L 153.62 80.75
  A 1.27 1.26 -70.2 0 1 154.51 82.65
  C 153.37 84.56 152.11 86.68 152.12 88.99
  Q 152.13 91.23 148.57 95.24
  Q 147.07 96.26 144.50 96.95
  Q 141.36 97.50 139.74 95.17
  Q 139.17 93.29 139.27 91.62
  Q 139.29 91.11 139.01 90.70
  L 136.65 87.22
  Q 137.33 82.78 142.23 82.32
  Q 145.64 81.99 148.98 81.71
  Q 150.64 81.57 150.85 80.34
  Z"
/>
<path fill="#e23d36" d="
  M 178.94 102.69
  C 175.61 106.14 171.12 98.81 166.38 104.41
  Q 165.45 105.51 164.04 105.68
  C 160.66 106.10 160.40 102.58 160.60 100.18
  C 160.91 96.55 158.15 93.98 155.92 91.46
  C 153.97 89.26 156.51 83.77 158.21 82.05
  A 1.96 1.95 50.0 0 1 161.20 82.31
  Q 163.23 85.22 164.49 88.44
  Q 166.41 93.34 170.92 94.91
  C 174.34 96.10 178.85 97.50 179.30 101.65
  Q 179.36 102.25 178.94 102.69
  Z"
/>
<path fill="#e23d36" d="
  M 117.66 92.45
  Q 117.27 91.58 115.09 94.04
  Q 114.77 94.41 114.28 94.40
  Q 111.49 94.35 108.61 93.78
  Q 107.57 93.57 107.37 94.81
  A 1.13 1.12 -68.3 0 0 107.84 95.91
  Q 110.25 97.58 112.42 99.65
  A 2.19 2.03 38.0 0 1 112.84 102.27
  Q 112.67 102.53 112.73 103.62
  L 105.94 106.99
  Q 105.54 107.19 105.33 107.58
  L 104.92 108.33
  A 0.98 0.97 -77.2 0 1 104.12 108.84
  Q 101.04 109.01 98.74 106.97
  Q 99.23 107.21 99.40 107.08
  A 0.71 0.70 48.8 0 0 99.46 106.03
  Q 98.42 104.97 99.18 103.70
  Q 100.65 101.21 102.77 99.02
  A 0.69 0.68 32.9 0 0 102.53 97.91
  Q 101.83 97.63 101.12 98.07
  Q 98.32 99.79 95.65 101.72
  A 1.29 1.29 0.0 0 1 93.82 101.39
  C 91.95 98.57 93.11 94.91 93.80 91.85
  C 94.53 88.58 98.47 83.28 101.22 89.08
  Q 102.15 91.03 103.51 92.63
  Q 104.02 93.22 104.07 92.44
  C 104.25 89.46 103.83 86.17 106.12 84.01
  A 0.52 0.52 0.0 0 0 105.77 83.11
  L 99.94 82.96
  Q 102.72 82.20 105.63 82.37
  Q 106.12 82.40 106.37 81.98
  Q 106.49 81.77 106.73 81.85
  Q 106.97 81.93 107.21 81.92
  Q 111.59 81.91 115.07 84.44
  A 1.85 1.79 -84.5 0 1 115.67 85.19
  Q 116.03 86.05 116.86 87.61
  Q 118.27 90.26 117.66 92.45
  Z
  M 96.20 91.41
  A 0.76 0.75 24.4 0 1 96.61 92.49
  Q 95.63 94.27 96.02 96.47
  Q 96.14 97.15 95.45 97.09
  L 95.03 97.05
  Q 94.12 96.97 94.33 97.86
  Q 94.48 98.51 94.17 99.07
  Q 93.86 99.63 94.47 99.86
  Q 94.72 99.95 94.97 99.88
  Q 95.57 99.71 95.48 99.10
  Q 95.40 98.49 95.70 97.96
  Q 95.90 97.62 96.29 97.59
  Q 98.70 97.44 101.28 96.40
  Q 102.76 95.80 104.11 96.79
  A 1.98 1.98 0.0 0 1 104.83 99.01
  L 104.02 101.47
  Q 103.83 102.03 104.37 102.27
  C 106.35 103.18 108.35 102.75 110.46 102.84
  Q 114.21 102.99 110.99 101.07
  C 108.37 99.51 105.79 97.90 105.50 94.59
  Q 105.45 94.04 105.87 93.67
  Q 108.99 90.97 113.06 92.98
  Q 113.64 93.26 113.74 92.63
  Q 114.02 90.98 112.66 90.18
  Q 112.27 89.95 111.99 90.30
  Q 111.54 90.83 110.97 90.43
  C 109.80 89.60 109.78 88.24 108.34 87.57
  A 1.51 1.50 15.0 0 0 106.21 88.79
  Q 105.92 91.77 104.15 93.83
  Q 103.29 94.83 102.19 94.09
  Q 98.28 91.47 97.16 88.88
  Q 96.92 88.32 96.46 88.72
  Q 95.43 89.60 95.68 91.04
  Q 95.71 91.24 95.91 91.31
  Q 96.06 91.36 96.20 91.41
  Z"
/>
<path fill="#fd5862" d="
  M 99.94 82.96
  L 105.77 83.11
  A 0.52 0.52 0.0 0 1 106.12 84.01
  C 103.83 86.17 104.25 89.46 104.07 92.44
  Q 104.02 93.22 103.51 92.63
  Q 102.15 91.03 101.22 89.08
  C 98.47 83.28 94.53 88.58 93.80 91.85
  C 93.11 94.91 91.95 98.57 93.82 101.39
  A 1.29 1.29 0.0 0 0 95.65 101.72
  Q 98.32 99.79 101.12 98.07
  Q 101.83 97.63 102.53 97.91
  A 0.69 0.68 32.9 0 1 102.77 99.02
  Q 100.65 101.21 99.18 103.70
  Q 98.42 104.97 99.46 106.03
  A 0.71 0.70 48.8 0 1 99.40 107.08
  Q 99.23 107.21 98.74 106.97
  C 94.24 105.30 91.16 102.37 90.94 97.31
  C 90.67 91.33 92.77 83.76 99.94 82.96
  Z"
/>
<path fill="#fd5862" d="
  M 96.20 91.41
  Q 96.06 91.36 95.91 91.31
  Q 95.71 91.24 95.68 91.04
  Q 95.43 89.60 96.46 88.72
  Q 96.92 88.32 97.16 88.88
  Q 98.28 91.47 102.19 94.09
  Q 103.29 94.83 104.15 93.83
  Q 105.92 91.77 106.21 88.79
  A 1.51 1.50 15.0 0 1 108.34 87.57
  C 109.78 88.24 109.80 89.60 110.97 90.43
  Q 111.54 90.83 111.99 90.30
  Q 112.27 89.95 112.66 90.18
  Q 114.02 90.98 113.74 92.63
  Q 113.64 93.26 113.06 92.98
  Q 108.99 90.97 105.87 93.67
  Q 105.45 94.04 105.50 94.59
  C 105.79 97.90 108.37 99.51 110.99 101.07
  Q 114.21 102.99 110.46 102.84
  C 108.35 102.75 106.35 103.18 104.37 102.27
  Q 103.83 102.03 104.02 101.47
  L 104.83 99.01
  A 1.98 1.98 0.0 0 0 104.11 96.79
  Q 102.76 95.80 101.28 96.40
  Q 98.70 97.44 96.29 97.59
  Q 95.90 97.62 95.70 97.96
  Q 95.40 98.49 95.48 99.10
  Q 95.57 99.71 94.97 99.88
  Q 94.72 99.95 94.47 99.86
  Q 93.86 99.63 94.17 99.07
  Q 94.48 98.51 94.33 97.86
  Q 94.12 96.97 95.03 97.05
  L 95.45 97.09
  Q 96.14 97.15 96.02 96.47
  Q 95.63 94.27 96.61 92.49
  A 0.76 0.75 24.4 0 0 96.20 91.41
  Z"
/>
<path fill="#fd5862" d="
  M 117.66 92.45
  Q 119.03 97.85 116.86 101.96
  Q 116.21 103.19 115.20 103.56
  Q 114.03 104.00 112.73 103.62
  Q 112.67 102.53 112.84 102.27
  A 2.19 2.03 38.0 0 0 112.42 99.65
  Q 110.25 97.58 107.84 95.91
  A 1.13 1.12 -68.3 0 1 107.37 94.81
  Q 107.57 93.57 108.61 93.78
  Q 111.49 94.35 114.28 94.40
  Q 114.77 94.41 115.09 94.04
  Q 117.27 91.58 117.66 92.45
  Z"
/>
<path fill="#eecda0" d="
  M 139.74 95.17
  Q 141.36 97.50 144.50 96.95
  Q 146.47 98.43 148.47 99.71
  Q 151.14 101.42 151.84 102.80
  C 152.84 104.77 153.58 108.70 151.28 110.23
  C 148.90 111.81 145.87 112.32 143.68 110.18
  C 141.82 108.37 144.64 103.22 139.84 103.10
  Q 138.73 103.07 136.80 104.06
  Q 134.51 105.23 132.44 106.03
  Q 128.28 103.42 122.92 103.39
  Q 122.84 99.10 125.41 95.94
  C 128.12 92.62 134.67 92.42 138.52 92.77
  Q 139.28 92.84 139.74 95.17
  Z"
/>
<path fill="#eabb84" d="
  M 100.16 116.62
  Q 102.08 118.52 102.66 120.69
  Q 102.81 121.29 102.20 121.21
  C 94.34 120.28 88.71 125.63 85.07 132.42
  Q 84.81 132.90 84.97 133.42
  Q 85.13 133.95 85.45 134.24
  L 85.70 134.70
  Q 85.98 135.19 85.41 135.25
  Q 75.49 136.27 71.15 127.48
  C 70.50 126.16 69.28 124.99 68.01 124.30
  C 64.56 122.42 58.36 118.54 58.29 114.13
  C 58.09 101.88 68.29 94.61 79.86 95.28
  C 90.18 95.88 84.01 109.26 93.07 112.91
  Q 97.47 114.68 100.16 116.62
  Z
  M 62.75 106.47
  Q 60.79 108.41 61.61 110.80
  C 62.23 112.61 64.58 114.14 66.25 114.82
  C 73.40 117.74 71.43 129.00 80.10 129.85
  Q 81.86 130.02 83.33 129.12
  C 84.85 128.19 84.66 125.85 83.45 124.78
  Q 81.10 122.71 78.23 120.70
  C 76.00 119.14 73.18 116.21 73.64 113.25
  C 73.96 111.22 76.31 111.20 77.72 112.04
  Q 78.88 112.74 80.15 113.05
  A 2.61 2.61 0.0 0 0 83.36 110.83
  Q 83.63 108.61 80.86 106.89
  A 2.38 2.37 -62.1 0 1 79.95 103.90
  L 81.15 101.21
  A 1.99 1.99 0.0 0 0 80.28 98.65
  Q 77.12 96.96 74.07 97.95
  Q 70.17 99.20 66.84 101.51
  Q 65.71 102.30 64.85 103.76
  Q 63.97 105.26 62.75 106.47
  Z"
/>
<path fill="#eabb84" d="
  M 148.57 95.24
  Q 155.89 98.61 157.28 105.51
  C 158.76 112.85 153.36 113.30 151.77 118.74
  C 150.43 123.31 151.81 129.03 153.15 133.56
  Q 152.05 134.30 151.37 135.29
  Q 151.09 135.70 151.09 136.21
  Q 151.08 137.27 150.71 138.24
  A 0.90 0.90 0.0 0 1 149.99 138.81
  C 148.22 139.05 145.49 140.06 145.23 142.10
  Q 144.83 142.46 144.49 142.34
  C 141.08 141.08 138.26 137.85 135.58 135.38
  Q 131.70 131.81 124.50 132.32
  Q 120.74 130.01 119.16 125.80
  A 0.83 0.82 -26.6 0 1 119.49 124.82
  C 123.16 122.49 125.98 117.50 128.01 113.68
  Q 129.57 110.76 132.72 107.97
  Q 133.90 106.93 132.44 106.03
  Q 134.51 105.23 136.80 104.06
  Q 138.73 103.07 139.84 103.10
  C 144.64 103.22 141.82 108.37 143.68 110.18
  C 145.87 112.32 148.90 111.81 151.28 110.23
  C 153.58 108.70 152.84 104.77 151.84 102.80
  Q 151.14 101.42 148.47 99.71
  Q 146.47 98.43 144.50 96.95
  Q 147.07 96.26 148.57 95.24
  Z"
/>
<path fill="#eecda0" d="
  M 64.85 103.76
  Q 65.71 102.30 66.84 101.51
  Q 70.17 99.20 74.07 97.95
  Q 77.12 96.96 80.28 98.65
  A 1.99 1.99 0.0 0 1 81.15 101.21
  L 79.95 103.90
  A 2.38 2.37 -62.1 0 0 80.86 106.89
  Q 83.63 108.61 83.36 110.83
  A 2.61 2.61 0.0 0 1 80.15 113.05
  Q 78.88 112.74 77.72 112.04
  C 76.31 111.20 73.96 111.22 73.64 113.25
  C 73.18 116.21 76.00 119.14 78.23 120.70
  Q 81.10 122.71 83.45 124.78
  C 84.66 125.85 84.85 128.19 83.33 129.12
  Q 81.86 130.02 80.10 129.85
  C 71.43 129.00 73.40 117.74 66.25 114.82
  C 64.58 114.14 62.23 112.61 61.61 110.80
  Q 60.79 108.41 62.75 106.47
  Q 63.97 105.26 64.85 103.76
  Z"
/>
<path fill="#479842" d="
  M 122.92 103.39
  Q 128.28 103.42 132.44 106.03
  Q 133.90 106.93 132.72 107.97
  Q 129.57 110.76 128.01 113.68
  C 125.98 117.50 123.16 122.49 119.49 124.82
  A 0.83 0.82 -26.6 0 0 119.16 125.80
  Q 120.74 130.01 124.50 132.32
  L 124.67 134.36
  Q 124.72 134.95 124.16 135.15
  Q 122.39 135.81 120.46 135.82
  Q 115.61 135.84 111.28 136.67
  Q 109.02 137.10 107.67 138.17
  Q 106.72 138.93 105.72 139.67
  C 103.28 141.50 99.64 141.36 96.76 140.68
  Q 96.20 140.54 95.79 140.14
  Q 95.31 139.65 94.62 139.56
  C 92.78 139.32 90.53 137.59 89.21 136.33
  A 0.69 0.68 -23.2 0 0 88.70 136.13
  Q 88.32 136.15 88.28 135.82
  Q 88.21 135.28 87.70 135.09
  L 85.45 134.24
  Q 85.13 133.95 84.97 133.42
  Q 84.81 132.90 85.07 132.42
  C 88.71 125.63 94.34 120.28 102.20 121.21
  Q 102.81 121.29 102.66 120.69
  Q 102.08 118.52 100.16 116.62
  Q 102.39 116.17 102.15 113.94
  Q 102.10 113.45 102.31 113.01
  Q 104.00 109.46 107.26 107.25
  Q 109.38 105.81 111.36 104.84
  Q 112.50 104.28 114.08 104.08
  Q 115.43 103.92 116.83 103.60
  Q 120.12 102.83 122.92 103.39
  Z"
/>
<path fill="#fd5862" d="
  M 50.55 114.50
  Q 49.94 116.22 48.90 117.26
  Q 47.67 118.50 47.01 120.12
  C 46.28 121.93 45.39 124.29 43.95 125.59
  Q 43.05 126.39 42.48 127.35
  C 41.77 128.54 40.97 129.45 40.52 130.79
  Q 38.77 135.95 38.87 141.48
  Q 38.87 141.85 38.58 142.08
  Q 38.40 142.22 38.37 142.45
  Q 37.88 145.72 37.81 149.20
  Q 37.78 151.33 38.66 153.13
  Q 39.62 155.10 40.43 157.04
  A 1.87 1.86 47.9 0 1 40.35 158.64
  Q 39.42 160.34 37.80 159.68
  A 1.53 1.50 89.8 0 1 36.98 158.85
  Q 34.50 152.66 35.05 146.98
  Q 35.77 139.52 36.37 137.00
  Q 37.05 134.16 39.59 128.86
  Q 41.79 124.27 43.47 119.66
  Q 43.99 118.23 44.70 116.97
  Q 45.19 116.09 45.56 115.15
  Q 46.02 113.99 46.75 113.30
  Q 49.36 110.84 53.07 108.26
  Q 53.55 107.93 53.89 108.42
  Q 54.48 109.30 53.85 110.19
  C 52.72 111.77 51.26 112.53 50.55 114.50
  Z"
/>
<path fill="#e23d36" d="
  M 187.47 127.92
  Q 187.06 124.58 187.05 121.48
  Q 187.04 121.25 186.93 121.06
  Q 186.77 120.80 186.46 120.84
  Q 185.97 120.90 185.79 121.36
  C 185.35 122.50 184.29 123.43 182.99 123.26
  Q 180.22 122.91 177.76 122.58
  A 0.94 0.93 14.7 0 0 176.76 123.16
  Q 176.35 124.17 177.33 124.77
  C 179.38 126.02 182.65 127.66 182.30 130.48
  C 182.10 131.98 181.89 133.65 180.34 134.36
  Q 176.00 136.36 170.53 135.29
  C 168.32 134.85 167.83 132.50 169.40 131.09
  Q 171.16 129.50 171.88 127.65
  Q 172.68 125.63 170.76 126.65
  Q 168.53 127.84 166.51 129.65
  C 163.05 132.75 161.48 127.41 162.06 125.04
  C 162.82 121.93 163.27 117.48 166.36 115.80
  A 2.67 2.66 59.3 0 1 169.87 116.70
  Q 171.02 118.47 171.97 120.47
  Q 172.23 121.02 172.78 121.26
  Q 173.21 121.46 173.60 121.24
  Q 174.08 120.97 174.24 121.50
  L 174.32 121.78
  A 0.58 0.57 -15.5 0 1 173.91 122.50
  Q 172.50 122.85 171.17 122.58
  Q 170.56 122.46 170.20 121.95
  Q 169.19 120.56 167.76 119.71
  A 1.13 1.13 0.0 0 1 167.26 119.08
  L 166.84 117.71
  Q 166.61 116.99 166.00 117.44
  C 164.14 118.83 165.10 123.00 165.40 124.94
  Q 165.51 125.61 164.99 126.05
  Q 163.99 126.92 163.44 128.22
  Q 163.28 128.60 163.70 128.64
  L 164.15 128.67
  A 0.45 0.43 -72.4 0 0 164.56 128.45
  L 165.61 126.65
  Q 165.79 126.35 166.14 126.28
  Q 168.47 125.79 170.74 125.18
  C 172.54 124.69 174.49 125.52 174.06 127.71
  Q 173.75 129.29 173.44 130.67
  A 0.51 0.51 0.0 0 0 173.88 131.29
  L 178.45 131.83
  Q 179.00 131.89 179.42 131.54
  Q 179.77 131.26 180.14 131.00
  A 0.72 0.71 -44.8 0 0 180.15 129.84
  C 178.01 128.28 173.97 126.09 175.51 122.76
  Q 176.08 121.55 177.41 121.17
  Q 180.49 120.29 182.41 121.75
  A 0.54 0.53 -75.4 0 0 183.26 121.25
  Q 182.96 119.07 180.78 119.02
  A 1.03 1.03 0.0 0 1 179.98 118.61
  Q 178.99 117.31 177.58 116.36
  A 1.17 1.16 22.7 0 0 175.79 117.09
  Q 175.37 119.06 174.57 120.64
  Q 174.17 121.40 173.99 120.56
  Q 172.90 115.41 175.90 113.33
  Q 177.56 112.18 175.56 111.91
  Q 171.00 111.29 165.57 112.82
  Q 166.71 111.49 167.70 111.56
  Q 168.15 111.59 168.55 111.37
  L 169.03 111.11
  Q 169.52 110.84 170.08 110.88
  Q 174.73 111.21 179.50 111.35
  Q 180.51 111.38 181.47 111.85
  C 183.05 112.61 184.71 112.90 185.39 114.79
  Q 185.86 116.07 186.77 117.20
  Q 187.13 117.65 187.16 118.24
  Q 187.26 120.50 187.87 122.75
  Q 188.20 123.99 187.47 127.92
  Z"
/>
<path fill="#fd5862" d="
  M 187.47 127.92
  Q 184.40 136.43 176.51 137.33
  Q 172.67 137.78 168.85 136.17
  Q 164.63 134.40 162.14 131.80
  Q 160.81 130.41 160.52 128.24
  Q 159.16 118.02 165.57 112.82
  Q 171.00 111.29 175.56 111.91
  Q 177.56 112.18 175.90 113.33
  Q 172.90 115.41 173.99 120.56
  Q 174.17 121.40 174.57 120.64
  Q 175.37 119.06 175.79 117.09
  A 1.17 1.16 22.7 0 1 177.58 116.36
  Q 178.99 117.31 179.98 118.61
  A 1.03 1.03 0.0 0 0 180.78 119.02
  Q 182.96 119.07 183.26 121.25
  A 0.54 0.53 -75.4 0 1 182.41 121.75
  Q 180.49 120.29 177.41 121.17
  Q 176.08 121.55 175.51 122.76
  C 173.97 126.09 178.01 128.28 180.15 129.84
  A 0.72 0.71 -44.8 0 1 180.14 131.00
  Q 179.77 131.26 179.42 131.54
  Q 179.00 131.89 178.45 131.83
  L 173.88 131.29
  A 0.51 0.51 0.0 0 1 173.44 130.67
  Q 173.75 129.29 174.06 127.71
  C 174.49 125.52 172.54 124.69 170.74 125.18
  Q 168.47 125.79 166.14 126.28
  Q 165.79 126.35 165.61 126.65
  L 164.56 128.45
  A 0.45 0.43 -72.4 0 1 164.15 128.67
  L 163.70 128.64
  Q 163.28 128.60 163.44 128.22
  Q 163.99 126.92 164.99 126.05
  Q 165.51 125.61 165.40 124.94
  C 165.10 123.00 164.14 118.83 166.00 117.44
  Q 166.61 116.99 166.84 117.71
  L 167.26 119.08
  A 1.13 1.13 0.0 0 0 167.76 119.71
  Q 169.19 120.56 170.20 121.95
  Q 170.56 122.46 171.17 122.58
  Q 172.50 122.85 173.91 122.50
  A 0.58 0.57 -15.5 0 0 174.32 121.78
  L 174.24 121.50
  Q 174.08 120.97 173.60 121.24
  Q 173.21 121.46 172.78 121.26
  Q 172.23 121.02 171.97 120.47
  Q 171.02 118.47 169.87 116.70
  A 2.67 2.66 59.3 0 0 166.36 115.80
  C 163.27 117.48 162.82 121.93 162.06 125.04
  C 161.48 127.41 163.05 132.75 166.51 129.65
  Q 168.53 127.84 170.76 126.65
  Q 172.68 125.63 171.88 127.65
  Q 171.16 129.50 169.40 131.09
  C 167.83 132.50 168.32 134.85 170.53 135.29
  Q 176.00 136.36 180.34 134.36
  C 181.89 133.65 182.10 131.98 182.30 130.48
  C 182.65 127.66 179.38 126.02 177.33 124.77
  Q 176.35 124.17 176.76 123.16
  A 0.94 0.93 14.7 0 1 177.76 122.58
  Q 180.22 122.91 182.99 123.26
  C 184.29 123.43 185.35 122.50 185.79 121.36
  Q 185.97 120.90 186.46 120.84
  Q 186.77 120.80 186.93 121.06
  Q 187.04 121.25 187.05 121.48
  Q 187.06 124.58 187.47 127.92
  Z"
/>
<path fill="#e23d36" d="
  M 70.04 151.00
  Q 73.01 146.17 71.30 140.61
  Q 70.91 139.31 70.34 140.54
  C 68.96 143.52 64.89 142.37 62.35 141.95
  Q 61.44 141.80 61.16 142.79
  A 0.89 0.89 0.0 0 0 61.53 143.78
  Q 64.45 145.65 66.37 147.65
  Q 66.71 148.01 66.77 148.50
  Q 67.17 151.78 64.77 153.93
  Q 64.44 154.23 64.69 154.59
  Q 64.98 155.00 66.05 154.90
  Q 65.41 155.94 64.46 156.25
  Q 63.94 156.43 63.56 156.02
  Q 62.93 155.33 62.25 154.76
  C 61.08 153.77 58.92 154.13 57.46 154.12
  Q 56.84 154.12 56.86 153.50
  Q 56.86 153.36 56.80 153.23
  Q 56.51 152.63 56.11 153.16
  Q 55.04 154.58 53.17 155.22
  Q 53.87 154.27 52.81 152.17
  A 0.57 0.55 -40.0 0 1 52.87 151.56
  L 56.63 146.81
  A 0.58 0.58 0.0 0 0 56.23 145.87
  Q 55.32 145.77 54.55 146.41
  Q 52.05 148.48 49.53 149.86
  A 1.88 1.87 67.0 0 1 46.84 148.77
  C 45.60 144.80 46.81 141.04 48.43 137.39
  C 49.80 134.29 53.09 133.55 54.86 136.86
  Q 55.47 138.00 56.07 139.20
  Q 58.07 143.20 58.05 138.73
  C 58.04 135.78 58.13 132.39 61.76 131.72
  Q 61.85 131.70 61.89 131.61
  Q 61.94 131.47 61.92 131.33
  Q 61.87 131.08 61.61 131.07
  L 54.93 130.84
  Q 58.93 130.64 62.87 130.42
  C 64.18 130.35 66.72 130.88 67.70 131.78
  Q 69.48 133.42 70.94 135.68
  Q 72.33 137.84 72.36 140.69
  Q 72.38 143.48 72.61 146.18
  Q 72.75 147.95 71.72 149.14
  Q 71.41 149.50 71.32 149.96
  Q 71.06 151.29 70.04 151.00
  Z
  M 58.94 140.67
  A 2.26 2.26 0.0 0 1 55.13 141.75
  L 52.99 139.59
  A 1.08 1.04 61.7 0 0 52.05 139.29
  C 49.03 139.83 49.95 142.66 49.89 144.67
  A 0.77 0.77 0.0 0 0 50.79 145.44
  C 53.09 145.02 57.22 143.17 58.50 145.93
  Q 58.75 146.48 58.56 147.05
  L 57.75 149.50
  A 0.91 0.91 0.0 0 0 58.68 150.70
  Q 60.27 150.59 61.65 151.27
  A 2.04 2.02 -45.2 0 0 63.45 151.26
  L 65.10 150.42
  Q 66.02 149.95 65.14 149.41
  Q 62.43 147.76 60.55 145.91
  C 59.00 144.39 58.84 141.52 61.23 140.64
  Q 64.45 139.47 66.84 141.10
  A 0.56 0.56 0.0 0 0 67.71 140.59
  Q 67.33 136.21 64.85 133.53
  Q 64.30 132.93 63.57 133.29
  L 63.21 133.47
  Q 62.31 133.92 63.07 134.57
  L 65.90 137.00
  Q 66.35 137.39 66.10 137.93
  Q 65.97 138.21 65.72 138.40
  A 0.83 0.83 0.0 0 1 64.45 138.01
  Q 63.50 135.36 60.82 135.18
  A 0.71 0.71 0.0 0 0 60.08 135.74
  L 58.94 140.67
  Z"
/>
<path fill="#fd5862" d="
  M 54.93 130.84
  L 61.61 131.07
  Q 61.87 131.08 61.92 131.33
  Q 61.94 131.47 61.89 131.61
  Q 61.85 131.70 61.76 131.72
  C 58.13 132.39 58.04 135.78 58.05 138.73
  Q 58.07 143.20 56.07 139.20
  Q 55.47 138.00 54.86 136.86
  C 53.09 133.55 49.80 134.29 48.43 137.39
  C 46.81 141.04 45.60 144.80 46.84 148.77
  A 1.88 1.87 67.0 0 0 49.53 149.86
  Q 52.05 148.48 54.55 146.41
  Q 55.32 145.77 56.23 145.87
  A 0.58 0.58 0.0 0 1 56.63 146.81
  L 52.87 151.56
  A 0.57 0.55 -40.0 0 0 52.81 152.17
  Q 53.87 154.27 53.17 155.22
  Q 49.85 154.13 47.30 151.85
  Q 45.09 149.87 44.69 147.04
  Q 43.81 140.86 47.12 134.89
  Q 48.09 133.13 50.35 132.11
  Q 52.50 131.14 54.93 130.84
  Z"
/>
<path fill="#479842" d="
  M 148.31 142.58
  Q 149.91 142.08 149.94 140.61
  Q 149.95 140.07 149.41 140.13
  Q 147.40 140.39 145.94 142.41
  Q 145.71 142.14 145.23 142.10
  C 145.49 140.06 148.22 139.05 149.99 138.81
  A 0.90 0.90 0.0 0 0 150.71 138.24
  Q 151.08 137.27 151.09 136.21
  Q 151.09 135.70 151.37 135.29
  Q 152.05 134.30 153.15 133.56
  Q 157.83 131.81 162.62 135.90
  Q 169.60 141.87 169.78 150.91
  A 1.36 1.35 12.9 0 1 167.81 152.14
  C 166.44 151.44 164.72 150.62 163.19 150.94
  Q 159.28 151.77 155.48 150.86
  Q 149.52 149.43 149.37 144.47
  Q 149.36 143.86 148.77 143.67
  Q 148.09 143.45 148.31 142.58
  Z"
/>
<path fill="#fd5862" d="
  M 58.94 140.67
  L 60.08 135.74
  A 0.71 0.71 0.0 0 1 60.82 135.18
  Q 63.50 135.36 64.45 138.01
  A 0.83 0.83 0.0 0 0 65.72 138.40
  Q 65.97 138.21 66.10 137.93
  Q 66.35 137.39 65.90 137.00
  L 63.07 134.57
  Q 62.31 133.92 63.21 133.47
  L 63.57 133.29
  Q 64.30 132.93 64.85 133.53
  Q 67.33 136.21 67.71 140.59
  A 0.56 0.56 0.0 0 1 66.84 141.10
  Q 64.45 139.47 61.23 140.64
  C 58.84 141.52 59.00 144.39 60.55 145.91
  Q 62.43 147.76 65.14 149.41
  Q 66.02 149.95 65.10 150.42
  L 63.45 151.26
  A 2.04 2.02 -45.2 0 1 61.65 151.27
  Q 60.27 150.59 58.68 150.70
  A 0.91 0.91 0.0 0 1 57.75 149.50
  L 58.56 147.05
  Q 58.75 146.48 58.50 145.93
  C 57.22 143.17 53.09 145.02 50.79 145.44
  A 0.77 0.77 0.0 0 1 49.89 144.67
  C 49.95 142.66 49.03 139.83 52.05 139.29
  A 1.08 1.04 61.7 0 1 52.99 139.59
  L 55.13 141.75
  A 2.26 2.26 0.0 0 0 58.94 140.67
  Z"
/>
<path fill="#eabb84" d="
  M 175.00 141.42
  C 181.39 140.74 185.75 139.37 190.54 135.53
  A 1.39 1.39 0.0 0 1 192.50 135.75
  Q 193.11 136.51 193.16 137.56
  C 193.36 141.82 193.79 147.43 192.00 151.38
  C 190.14 155.47 184.98 156.20 182.49 152.08
  Q 180.25 148.36 176.07 146.09
  C 175.32 145.67 173.95 144.62 173.60 143.83
  Q 172.65 141.67 175.00 141.42
  Z"
/>
<path fill="#eabb84" d="
  M 86.47 138.51
  C 88.24 143.32 84.70 147.42 79.69 146.72
  A 1.51 1.51 0.0 0 1 78.58 145.97
  Q 77.41 143.88 75.98 141.76
  C 74.36 139.34 76.38 137.04 78.98 137.76
  Q 80.41 138.16 81.80 138.31
  Q 82.39 138.37 82.89 138.07
  L 83.73 137.55
  Q 85.68 136.37 86.47 138.51
  Z"
/>
<path fill="#fd5862" d="
  M 123.78 140.95
  Q 123.04 141.05 123.17 142.79
  Q 123.18 142.93 123.07 142.84
  Q 122.65 142.50 122.97 142.08
  Q 123.28 141.67 122.86 141.40
  Q 122.28 141.02 121.68 141.28
  C 119.53 142.19 119.55 145.19 119.55 147.12
  Q 119.54 151.66 117.45 147.64
  C 116.73 146.26 116.16 144.58 114.79 143.78
  C 112.53 142.45 110.13 145.05 109.63 147.02
  Q 108.81 150.20 107.92 153.82
  Q 107.47 155.63 109.26 155.84
  Q 109.86 155.91 109.34 156.23
  Q 108.11 156.97 109.24 158.32
  A 1.49 1.48 -39.5 0 0 111.32 158.52
  Q 114.31 156.04 117.31 154.50
  Q 117.85 154.22 117.96 154.82
  Q 118.09 155.55 117.62 156.15
  Q 116.43 157.67 115.03 159.10
  C 113.66 160.49 114.09 162.41 115.98 162.98
  Q 117.93 163.57 119.03 162.98
  Q 120.28 162.32 118.90 162.05
  Q 117.61 161.80 116.45 161.33
  Q 116.07 161.18 116.14 160.77
  Q 116.17 160.54 116.33 160.36
  Q 116.67 159.96 117.18 160.08
  L 121.48 161.03
  Q 121.94 161.13 122.39 160.99
  Q 123.38 160.69 124.40 160.97
  Q 125.19 161.19 124.52 161.66
  Q 124.26 161.84 123.93 161.85
  A 0.51 0.51 0.0 0 0 123.43 162.41
  L 123.46 162.67
  Q 123.48 162.85 123.65 162.83
  Q 128.55 162.22 128.22 158.20
  C 128.01 155.54 125.29 154.27 123.26 153.03
  Q 122.59 152.62 122.44 151.96
  Q 122.04 150.23 123.79 150.55
  C 125.59 150.89 129.15 151.90 130.67 150.76
  Q 132.09 149.69 131.59 147.93
  Q 130.39 143.72 126.94 141.12
  Q 126.36 140.68 127.08 140.66
  Q 127.77 140.64 128.77 141.06
  Q 131.53 143.18 132.55 146.40
  Q 133.72 150.12 133.60 153.93
  Q 133.49 157.21 131.34 160.02
  Q 124.29 169.21 111.92 162.90
  C 108.15 160.98 106.17 158.30 106.15 153.97
  Q 106.12 148.31 108.60 143.65
  C 111.05 139.04 119.03 139.36 123.53 140.03
  Q 124.02 140.11 123.88 140.58
  L 123.78 140.95
  Z"
/>
<path fill="#fd5862" d="
  M 70.04 151.00
  L 66.05 154.90
  Q 64.98 155.00 64.69 154.59
  Q 64.44 154.23 64.77 153.93
  Q 67.17 151.78 66.77 148.50
  Q 66.71 148.01 66.37 147.65
  Q 64.45 145.65 61.53 143.78
  A 0.89 0.89 0.0 0 1 61.16 142.79
  Q 61.44 141.80 62.35 141.95
  C 64.89 142.37 68.96 143.52 70.34 140.54
  Q 70.91 139.31 71.30 140.61
  Q 73.01 146.17 70.04 151.00
  Z"
/>
<path fill="#e23d36" d="
  M 128.77 141.06
  Q 127.77 140.64 127.08 140.66
  Q 126.36 140.68 126.94 141.12
  Q 130.39 143.72 131.59 147.93
  Q 132.09 149.69 130.67 150.76
  C 129.15 151.90 125.59 150.89 123.79 150.55
  Q 122.04 150.23 122.44 151.96
  Q 122.59 152.62 123.26 153.03
  C 125.29 154.27 128.01 155.54 128.22 158.20
  Q 128.55 162.22 123.65 162.83
  Q 123.48 162.85 123.46 162.67
  L 123.43 162.41
  A 0.51 0.51 0.0 0 1 123.93 161.85
  Q 124.26 161.84 124.52 161.66
  Q 125.19 161.19 124.40 160.97
  Q 123.38 160.69 122.39 160.99
  Q 121.94 161.13 121.48 161.03
  L 117.18 160.08
  Q 116.67 159.96 116.33 160.36
  Q 116.17 160.54 116.14 160.77
  Q 116.07 161.18 116.45 161.33
  Q 117.61 161.80 118.90 162.05
  Q 120.28 162.32 119.03 162.98
  Q 117.93 163.57 115.98 162.98
  C 114.09 162.41 113.66 160.49 115.03 159.10
  Q 116.43 157.67 117.62 156.15
  Q 118.09 155.55 117.96 154.82
  Q 117.85 154.22 117.31 154.50
  Q 114.31 156.04 111.32 158.52
  A 1.49 1.48 -39.5 0 1 109.24 158.32
  Q 108.11 156.97 109.34 156.23
  Q 109.86 155.91 109.26 155.84
  Q 107.47 155.63 107.92 153.82
  Q 108.81 150.20 109.63 147.02
  C 110.13 145.05 112.53 142.45 114.79 143.78
  C 116.16 144.58 116.73 146.26 117.45 147.64
  Q 119.54 151.66 119.55 147.12
  C 119.55 145.19 119.53 142.19 121.68 141.28
  Q 122.28 141.02 122.86 141.40
  Q 123.28 141.67 122.97 142.08
  Q 122.65 142.50 123.07 142.84
  Q 123.18 142.93 123.17 142.79
  Q 123.04 141.05 123.78 140.95
  L 123.89 141.73
  Q 123.95 142.08 124.30 142.11
  Q 124.55 142.14 124.67 142.26
  C 125.14 144.26 126.46 144.74 127.19 146.48
  Q 127.52 147.26 126.95 147.96
  A 0.33 0.32 57.7 0 1 126.39 147.83
  Q 125.70 145.08 122.64 143.90
  Q 122.08 143.69 121.84 144.24
  Q 120.89 146.44 120.64 148.71
  C 120.51 149.93 119.45 150.91 118.22 150.95
  Q 117.23 150.98 116.04 150.01
  Q 113.90 148.24 112.71 146.28
  Q 111.50 144.29 111.08 146.58
  Q 110.56 149.38 111.51 153.79
  A 0.72 0.72 0.0 0 0 112.49 154.31
  Q 115.37 153.15 118.22 153.12
  A 1.89 1.88 7.9 0 1 120.05 155.54
  L 119.25 158.25
  A 0.97 0.97 0.0 0 0 120.01 159.48
  Q 122.79 159.95 125.32 159.68
  Q 128.02 159.38 125.80 157.82
  C 123.62 156.28 120.71 154.37 120.79 151.40
  A 1.44 1.44 0.0 0 1 121.17 150.48
  Q 122.99 148.45 125.96 148.87
  C 127.04 149.02 127.52 149.84 128.55 150.08
  Q 129.52 150.31 129.39 149.32
  Q 129.10 147.18 128.35 145.41
  C 127.78 144.04 126.48 143.50 125.94 142.01
  Q 125.82 141.69 125.50 141.58
  Q 125.35 141.52 125.18 141.52
  L 125.73 140.30
  A 0.73 0.71 13.5 0 1 126.45 139.87
  Q 128.30 140.01 128.77 141.06
  Z"
/>
<path fill="#eabb84" d="
  M 148.31 142.58
  Q 147.13 142.74 145.94 142.41
  Q 147.40 140.39 149.41 140.13
  Q 149.95 140.07 149.94 140.61
  Q 149.91 142.08 148.31 142.58
  Z"
/>
<path fill="#fd5862" d="
  M 125.18 141.52
  Q 125.35 141.52 125.50 141.58
  Q 125.82 141.69 125.94 142.01
  C 126.48 143.50 127.78 144.04 128.35 145.41
  Q 129.10 147.18 129.39 149.32
  Q 129.52 150.31 128.55 150.08
  C 127.52 149.84 127.04 149.02 125.96 148.87
  Q 122.99 148.45 121.17 150.48
  A 1.44 1.44 0.0 0 0 120.79 151.40
  C 120.71 154.37 123.62 156.28 125.80 157.82
  Q 128.02 159.38 125.32 159.68
  Q 122.79 159.95 120.01 159.48
  A 0.97 0.97 0.0 0 1 119.25 158.25
  L 120.05 155.54
  A 1.89 1.88 7.9 0 0 118.22 153.12
  Q 115.37 153.15 112.49 154.31
  A 0.72 0.72 0.0 0 1 111.51 153.79
  Q 110.56 149.38 111.08 146.58
  Q 111.50 144.29 112.71 146.28
  Q 113.90 148.24 116.04 150.01
  Q 117.23 150.98 118.22 150.95
  C 119.45 150.91 120.51 149.93 120.64 148.71
  Q 120.89 146.44 121.84 144.24
  Q 122.08 143.69 122.64 143.90
  Q 125.70 145.08 126.39 147.83
  A 0.33 0.32 57.7 0 0 126.95 147.96
  Q 127.52 147.26 127.19 146.48
  C 126.46 144.74 125.14 144.26 124.67 142.26
  L 125.18 141.52
  Z"
/>
<path fill="#e23d36" d="
  M 98.47 161.80
  C 96.53 165.49 97.84 169.15 101.74 170.93
  Q 103.91 171.93 106.36 172.43
  Q 110.70 173.33 108.92 177.29
  Q 107.42 180.60 103.05 181.02
  C 97.84 181.51 99.33 176.03 95.82 174.91
  C 92.71 173.91 90.23 171.13 89.32 167.94
  Q 88.46 164.92 86.90 162.38
  C 83.96 157.62 78.41 160.74 75.79 157.22
  A 1.75 1.74 -36.3 0 1 76.17 154.76
  C 78.47 153.12 82.34 151.09 85.23 151.40
  C 87.41 151.63 88.94 152.91 91.07 153.14
  A 2.32 2.31 33.8 0 0 92.39 152.88
  C 94.27 151.88 99.27 149.57 99.87 153.42
  Q 100.56 157.82 98.47 161.80
  Z"
/>
<path fill="#e23d36" d="
  M 179.99 166.60
  L 179.35 164.29
  Q 178.90 162.65 178.52 164.31
  C 177.68 167.98 172.98 166.52 170.33 166.25
  Q 169.23 166.14 169.14 167.21
  A 0.97 0.96 -69.6 0 0 169.53 168.08
  L 174.38 171.67
  Q 174.81 171.99 174.83 172.52
  L 174.92 175.92
  Q 174.94 176.40 174.69 176.80
  Q 173.91 178.06 175.48 178.24
  Q 174.47 179.62 172.62 180.36
  Q 166.20 182.96 160.14 179.33
  L 161.02 179.34
  Q 161.64 179.36 161.62 178.73
  Q 161.61 178.46 161.38 178.33
  Q 160.92 178.06 160.87 177.53
  Q 160.69 175.31 164.85 171.07
  Q 164.92 171.01 164.90 170.92
  Q 164.78 170.26 164.17 170.11
  Q 163.35 169.91 162.69 170.44
  Q 159.80 172.74 156.83 174.01
  Q 156.18 174.29 155.65 173.83
  L 155.46 173.67
  A 0.40 0.40 0.0 0 1 155.49 173.03
  L 157.74 171.47
  A 0.31 0.31 0.0 0 0 157.43 170.94
  Q 153.97 172.71 154.27 169.87
  Q 154.43 168.38 155.51 164.61
  Q 155.65 164.10 155.89 163.81
  C 156.27 163.34 156.17 162.61 156.43 161.97
  C 157.69 158.94 161.50 157.60 163.08 161.28
  Q 163.71 162.75 164.39 164.03
  Q 164.78 164.76 165.62 164.92
  Q 166.23 165.04 166.20 164.42
  C 166.07 161.83 166.02 157.60 168.77 156.31
  Q 168.85 156.27 168.88 156.18
  Q 168.93 156.04 168.91 155.89
  Q 168.88 155.60 168.59 155.61
  Q 167.73 155.62 167.22 155.29
  L 168.13 153.58
  Q 168.37 153.15 168.86 153.15
  Q 169.64 153.15 170.28 153.81
  Q 170.74 154.28 171.41 154.33
  C 172.75 154.44 173.60 154.35 174.75 155.24
  Q 177.64 157.47 178.34 158.49
  Q 180.53 161.64 179.99 166.60
  Z
  M 173.83 163.58
  Q 173.77 163.81 173.43 163.65
  A 0.41 0.41 0.0 0 1 173.22 163.40
  C 172.77 161.63 171.35 161.28 170.42 159.86
  A 1.10 1.09 39.6 0 0 168.49 160.04
  Q 167.76 161.80 167.49 163.69
  C 167.12 166.25 164.43 167.38 162.65 165.22
  Q 161.68 164.04 160.27 163.43
  A 0.91 0.89 11.1 0 1 159.73 162.64
  Q 159.70 162.13 159.52 161.66
  Q 158.84 159.89 157.93 161.55
  L 157.21 162.85
  A 2.59 2.58 -46.4 0 0 157.27 165.47
  Q 158.18 166.95 157.88 168.80
  Q 157.78 169.43 157.22 169.14
  Q 156.49 168.76 155.73 168.96
  Q 155.01 169.15 155.46 169.73
  Q 155.82 170.21 156.45 170.20
  Q 159.57 170.14 162.03 169.10
  C 165.86 167.48 167.73 170.27 166.12 173.71
  Q 165.58 174.87 166.82 175.20
  Q 169.61 175.93 171.82 174.77
  A 1.16 1.15 46.4 0 0 171.86 172.75
  Q 169.85 171.57 168.41 169.77
  C 166.71 167.63 167.49 164.88 170.29 164.59
  Q 172.82 164.32 174.99 165.24
  A 0.62 0.62 0.0 0 0 175.82 164.48
  L 174.16 159.46
  A 1.97 1.95 -76.1 0 0 173.70 158.69
  Q 171.66 156.58 171.41 158.00
  Q 171.31 158.55 171.70 158.96
  Q 172.70 160.05 173.45 161.13
  Q 174.18 162.17 173.83 163.58
  Z"
/>
<path fill="#479842" d="
  M 63.34 157.86
  Q 63.97 160.19 59.24 159.75
  Q 58.64 159.69 58.57 160.29
  Q 58.51 160.80 58.81 161.15
  Q 59.15 161.54 59.65 161.39
  Q 62.92 160.36 64.87 162.10
  C 68.83 165.63 64.25 170.24 60.37 170.54
  Q 58.91 170.66 55.77 169.51
  Q 49.17 167.11 42.27 167.15
  Q 44.35 161.21 49.53 157.54
  C 50.93 156.54 52.37 156.50 53.75 155.67
  C 55.28 154.74 56.49 155.08 58.09 154.72
  Q 59.00 154.51 59.90 154.85
  Q 62.09 155.68 63.34 157.86
  Z"
/>
<path fill="#fd5862" d="
  M 167.22 155.29
  Q 167.73 155.62 168.59 155.61
  Q 168.88 155.60 168.91 155.89
  Q 168.93 156.04 168.88 156.18
  Q 168.85 156.27 168.77 156.31
  C 166.02 157.60 166.07 161.83 166.20 164.42
  Q 166.23 165.04 165.62 164.92
  Q 164.78 164.76 164.39 164.03
  Q 163.71 162.75 163.08 161.28
  C 161.50 157.60 157.69 158.94 156.43 161.97
  C 156.17 162.61 156.27 163.34 155.89 163.81
  Q 155.65 164.10 155.51 164.61
  Q 154.43 168.38 154.27 169.87
  Q 153.97 172.71 157.43 170.94
  A 0.31 0.31 0.0 0 1 157.74 171.47
  L 155.49 173.03
  A 0.40 0.40 0.0 0 0 155.46 173.67
  L 155.65 173.83
  Q 156.18 174.29 156.83 174.01
  Q 159.80 172.74 162.69 170.44
  Q 163.35 169.91 164.17 170.11
  Q 164.78 170.26 164.90 170.92
  Q 164.92 171.01 164.85 171.07
  Q 160.69 175.31 160.87 177.53
  Q 160.92 178.06 161.38 178.33
  Q 161.61 178.46 161.62 178.73
  Q 161.64 179.36 161.02 179.34
  L 160.14 179.33
  Q 157.36 178.11 155.24 175.98
  Q 152.93 173.65 152.69 170.54
  Q 152.25 164.73 155.27 159.13
  C 157.36 155.26 163.37 154.90 167.22 155.29
  Z"
/>
<path fill="#fd5862" d="
  M 173.83 163.58
  Q 174.18 162.17 173.45 161.13
  Q 172.70 160.05 171.70 158.96
  Q 171.31 158.55 171.41 158.00
  Q 171.66 156.58 173.70 158.69
  A 1.97 1.95 -76.1 0 1 174.16 159.46
  L 175.82 164.48
  A 0.62 0.62 0.0 0 1 174.99 165.24
  Q 172.82 164.32 170.29 164.59
  C 167.49 164.88 166.71 167.63 168.41 169.77
  Q 169.85 171.57 171.86 172.75
  A 1.16 1.15 46.4 0 1 171.82 174.77
  Q 169.61 175.93 166.82 175.20
  Q 165.58 174.87 166.12 173.71
  C 167.73 170.27 165.86 167.48 162.03 169.10
  Q 159.57 170.14 156.45 170.20
  Q 155.82 170.21 155.46 169.73
  Q 155.01 169.15 155.73 168.96
  Q 156.49 168.76 157.22 169.14
  Q 157.78 169.43 157.88 168.80
  Q 158.18 166.95 157.27 165.47
  A 2.59 2.58 -46.4 0 1 157.21 162.85
  L 157.93 161.55
  Q 158.84 159.89 159.52 161.66
  Q 159.70 162.13 159.73 162.64
  A 0.91 0.89 11.1 0 0 160.27 163.43
  Q 161.68 164.04 162.65 165.22
  C 164.43 167.38 167.12 166.25 167.49 163.69
  Q 167.76 161.80 168.49 160.04
  A 1.10 1.09 39.6 0 1 170.42 159.86
  C 171.35 161.28 172.77 161.63 173.22 163.40
  A 0.41 0.41 0.0 0 0 173.43 163.65
  Q 173.77 163.81 173.83 163.58
  Z"
/>
<path fill="#407d2e" d="
  M 63.34 157.86
  Q 64.04 158.66 65.23 159.18
  Q 65.71 159.40 65.81 159.84
  Q 65.83 159.90 65.79 159.95
  Q 65.53 160.26 65.94 160.33
  Q 67.10 160.55 67.46 161.46
  Q 68.58 163.44 68.66 165.05
  C 67.10 171.85 61.12 174.57 54.69 173.32
  Q 52.60 172.00 51.77 172.41
  Q 51.12 172.40 50.88 171.79
  Q 50.72 171.37 50.32 171.18
  L 42.27 167.15
  Q 49.17 167.11 55.77 169.51
  Q 58.91 170.66 60.37 170.54
  C 64.25 170.24 68.83 165.63 64.87 162.10
  Q 62.92 160.36 59.65 161.39
  Q 59.15 161.54 58.81 161.15
  Q 58.51 160.80 58.57 160.29
  Q 58.64 159.69 59.24 159.75
  Q 63.97 160.19 63.34 157.86
  Z"
/>
<path fill="#eabb84" d="
  M 51.77 172.41
  Q 52.60 172.00 54.69 173.32
  Q 53.86 173.48 54.16 174.24
  Q 54.62 175.40 54.31 176.34
  C 53.64 178.45 52.89 180.28 53.52 182.56
  Q 54.63 186.56 57.40 189.48
  Q 60.89 193.19 63.88 197.32
  Q 65.15 199.08 66.83 197.69
  L 67.20 197.38
  Q 68.74 196.11 67.63 194.45
  Q 65.68 191.51 62.93 188.73
  C 60.90 186.69 60.15 185.20 60.74 182.45
  Q 61.05 181.00 62.52 180.80
  Q 64.23 180.57 65.92 180.40
  C 69.50 180.04 69.35 174.75 68.58 172.26
  A 2.50 2.50 0.0 0 1 71.23 169.04
  C 74.39 169.37 78.94 168.30 79.21 173.19
  Q 79.32 175.02 80.87 175.59
  A 1.61 1.61 0.0 0 0 82.94 174.62
  Q 84.35 170.70 82.21 167.72
  C 81.25 166.38 79.32 166.15 77.79 166.14
  Q 76.09 166.13 74.23 165.75
  Q 71.26 165.14 68.66 165.05
  Q 68.58 163.44 67.46 161.46
  Q 67.45 161.42 67.50 161.20
  Q 67.57 160.94 67.82 161.03
  Q 73.95 163.38 80.27 163.79
  Q 85.38 164.12 86.08 169.68
  Q 86.86 175.92 89.50 182.26
  C 90.93 185.69 89.12 188.02 85.97 189.27
  C 81.33 191.13 79.21 194.63 76.90 198.72
  C 73.71 204.36 68.32 205.96 62.83 201.55
  Q 58.38 197.96 54.47 191.51
  C 50.47 184.91 47.81 179.35 51.77 172.41
  Z"
/>
<path fill="#fd5862" d="
  M 179.99 166.60
  Q 181.14 173.45 175.48 178.24
  Q 173.91 178.06 174.69 176.80
  Q 174.94 176.40 174.92 175.92
  L 174.83 172.52
  Q 174.81 171.99 174.38 171.67
  L 169.53 168.08
  A 0.97 0.96 -69.6 0 1 169.14 167.21
  Q 169.23 166.14 170.33 166.25
  C 172.98 166.52 177.68 167.98 178.52 164.31
  Q 178.90 162.65 179.35 164.29
  L 179.99 166.60
  Z"
/>
<path fill="#eecda0" d="
  M 54.69 173.32
  C 61.12 174.57 67.10 171.85 68.66 165.05
  Q 71.26 165.14 74.23 165.75
  Q 76.09 166.13 77.79 166.14
  C 79.32 166.15 81.25 166.38 82.21 167.72
  Q 84.35 170.70 82.94 174.62
  A 1.61 1.61 0.0 0 1 80.87 175.59
  Q 79.32 175.02 79.21 173.19
  C 78.94 168.30 74.39 169.37 71.23 169.04
  A 2.50 2.50 0.0 0 0 68.58 172.26
  C 69.35 174.75 69.50 180.04 65.92 180.40
  Q 64.23 180.57 62.52 180.80
  Q 61.05 181.00 60.74 182.45
  C 60.15 185.20 60.90 186.69 62.93 188.73
  Q 65.68 191.51 67.63 194.45
  Q 68.74 196.11 67.20 197.38
  L 66.83 197.69
  Q 65.15 199.08 63.88 197.32
  Q 60.89 193.19 57.40 189.48
  Q 54.63 186.56 53.52 182.56
  C 52.89 180.28 53.64 178.45 54.31 176.34
  Q 54.62 175.40 54.16 174.24
  Q 53.86 173.48 54.69 173.32
  Z"
/>
<path fill="#eabb84" d="
  M 134.18 209.73
  L 131.03 209.26
  Q 119.67 206.56 119.83 196.51
  Q 119.90 191.65 119.22 188.78
  Q 118.95 188.79 119.05 188.54
  A 0.16 0.16 0.0 0 1 119.32 188.51
  C 121.57 191.47 122.00 192.96 126.25 193.08
  Q 125.23 193.25 125.16 193.65
  Q 125.11 193.95 124.81 194.00
  C 122.37 194.44 122.89 198.40 123.55 199.77
  Q 124.40 201.53 126.62 203.26
  C 129.63 205.60 134.92 205.32 137.88 203.80
  Q 138.33 203.57 138.46 203.08
  C 138.80 201.74 137.36 201.00 136.25 200.99
  Q 131.29 200.92 130.05 195.72
  A 1.31 1.31 0.0 0 1 130.80 194.22
  Q 131.20 194.04 131.49 193.71
  Q 131.85 193.30 131.55 192.84
  Q 131.13 192.19 130.73 191.97
  L 140.39 182.55
  L 143.38 180.35
  A 0.89 0.88 -44.4 0 0 143.40 178.94
  Q 133.84 171.60 122.26 174.76
  Q 121.18 175.06 117.38 177.12
  Q 119.07 174.38 122.26 173.01
  Q 132.35 168.67 142.32 170.77
  C 148.10 171.99 150.43 176.47 151.45 181.86
  Q 152.19 185.81 155.50 189.21
  Q 157.88 191.66 157.25 194.98
  C 155.76 202.71 151.73 209.84 142.75 209.81
  Q 138.52 209.80 134.18 209.73
  Z"
/>
<path fill="#479842" d="
  M 140.39 182.55
  L 139.21 182.87
  Q 138.73 183.00 138.47 183.42
  Q 138.30 183.70 137.97 183.63
  Q 137.48 183.51 137.06 183.81
  Q 133.71 186.17 130.54 189.02
  C 127.24 192.00 123.41 189.81 121.58 186.58
  Q 121.31 186.09 121.49 185.56
  Q 122.18 183.45 124.32 182.98
  A 1.50 1.48 12.0 0 0 125.19 182.42
  Q 125.92 181.41 124.18 181.29
  A 1.57 1.56 -67.2 0 0 122.94 181.80
  Q 121.61 183.26 120.04 183.65
  Q 119.53 183.78 119.05 183.55
  L 116.27 182.26
  Q 115.76 181.69 116.13 180.13
  Q 116.58 178.21 117.38 177.12
  Q 121.18 175.06 122.26 174.76
  Q 133.84 171.60 143.40 178.94
  A 0.89 0.88 -44.4 0 1 143.38 180.35
  L 140.39 182.55
  Z"
/>
<path fill="#ffd17c" d="
  M 112.14 230.79
  Q 121.87 230.26 130.99 227.72
  Q 143.81 224.14 153.26 220.47
  Q 156.65 219.15 160.30 216.22
  L 162.54 215.99
  Q 162.93 215.95 163.32 216.02
  Q 164.29 216.19 165.07 215.54
  C 165.76 214.97 166.29 214.61 167.15 214.28
  Q 167.53 214.14 167.79 213.84
  Q 170.42 210.75 172.17 207.57
  Q 173.13 205.81 174.55 204.55
  C 178.14 201.33 181.57 197.84 185.59 195.03
  Q 189.42 192.36 193.19 188.93
  Q 195.34 186.97 196.64 184.60
  C 198.34 181.53 200.52 178.90 203.61 177.07
  Q 203.98 176.85 204.26 177.19
  Q 205.47 178.68 204.34 180.47
  Q 200.77 186.11 196.89 189.65
  Q 195.05 191.34 193.30 193.18
  Q 187.76 199.03 182.24 204.75
  C 178.51 208.62 174.61 212.07 170.62 215.67
  Q 168.13 217.91 165.55 219.42
  Q 154.75 225.77 143.25 228.87
  Q 123.64 234.14 116.75 236.13
  Q 115.74 236.43 114.58 236.07
  Q 113.59 235.77 112.97 234.81
  Q 111.61 232.69 112.14 230.79
  Z"
/>
<path fill="#407d2e" d="
  M 140.39 182.55
  L 130.73 191.97
  L 126.25 193.08
  C 122.00 192.96 121.57 191.47 119.32 188.51
  A 0.16 0.16 0.0 0 0 119.05 188.54
  Q 118.95 188.79 119.22 188.78
  L 118.66 188.68
  Q 118.16 188.58 117.95 188.12
  L 115.88 183.64
  Q 115.62 183.09 116.05 182.65
  Q 116.25 182.45 116.27 182.26
  L 119.05 183.55
  Q 119.53 183.78 120.04 183.65
  Q 121.61 183.26 122.94 181.80
  A 1.57 1.56 -67.2 0 1 124.18 181.29
  Q 125.92 181.41 125.19 182.42
  A 1.50 1.48 12.0 0 1 124.32 182.98
  Q 122.18 183.45 121.49 185.56
  Q 121.31 186.09 121.58 186.58
  C 123.41 189.81 127.24 192.00 130.54 189.02
  Q 133.71 186.17 137.06 183.81
  Q 137.48 183.51 137.97 183.63
  Q 138.30 183.70 138.47 183.42
  Q 138.73 183.00 139.21 182.87
  L 140.39 182.55
  Z"
/>
<path fill="#e23d36" d="
  M 113.60 195.84
  L 112.62 194.66
  Q 111.89 193.78 112.08 194.91
  Q 112.24 195.81 112.68 196.60
  C 113.74 198.49 113.08 200.94 110.69 201.21
  Q 108.78 201.42 105.90 200.93
  Q 102.19 200.31 104.66 203.14
  Q 105.41 203.99 106.54 204.56
  C 109.00 205.78 110.12 208.03 109.09 210.76
  C 108.63 211.99 107.30 212.39 106.20 212.82
  Q 105.64 213.03 105.40 212.49
  Q 105.30 212.25 105.38 212.02
  Q 105.73 211.09 104.79 211.39
  Q 102.13 212.23 99.10 210.47
  A 1.02 1.02 0.0 0 0 97.87 210.63
  L 97.64 210.86
  A 0.67 0.67 0.0 0 0 97.97 211.99
  L 101.76 212.77
  Q 102.07 212.84 102.16 213.14
  L 102.25 213.43
  A 0.31 0.31 0.0 0 1 101.97 213.83
  Q 99.25 213.97 96.82 213.17
  A 1.94 1.93 -61.0 0 1 95.94 210.09
  Q 97.54 208.16 99.05 206.06
  Q 100.35 204.24 98.21 204.86
  Q 97.39 205.10 96.67 205.65
  Q 94.02 207.70 91.23 208.72
  A 1.00 1.00 0.0 0 1 90.66 208.75
  Q 89.92 208.56 89.74 208.06
  Q 89.48 207.28 90.29 207.16
  Q 92.21 206.87 92.01 204.58
  Q 91.96 204.01 91.39 204.00
  L 91.00 203.99
  Q 89.98 203.97 90.43 204.88
  Q 90.86 205.78 89.95 206.26
  Q 89.24 206.62 89.07 205.85
  Q 88.69 204.22 89.69 202.68
  Q 89.92 202.32 89.90 201.89
  Q 89.69 197.66 92.34 194.62
  C 95.41 191.11 98.11 196.88 99.17 198.78
  Q 100.27 200.76 100.51 198.51
  C 100.73 196.50 100.54 192.67 102.53 191.40
  Q 104.10 190.40 102.25 190.19
  Q 96.99 189.57 91.80 191.39
  Q 100.27 187.92 108.99 190.18
  Q 112.62 191.11 113.60 195.84
  Z
  M 94.40 197.59
  Q 94.25 196.75 93.83 196.06
  A 0.53 0.52 50.1 0 0 93.00 195.98
  Q 92.14 196.92 91.92 198.39
  Q 91.86 198.73 92.21 198.71
  L 92.94 198.66
  A 0.57 0.55 -76.9 0 0 93.39 198.37
  Q 93.57 198.03 93.87 198.13
  A 0.37 0.37 0.0 0 1 93.94 198.79
  L 93.10 199.30
  Q 92.61 199.61 92.57 200.18
  L 92.38 203.19
  A 1.29 1.28 83.4 0 0 94.03 204.50
  Q 96.47 203.77 98.76 203.52
  Q 101.56 203.21 101.16 205.95
  Q 101.00 207.11 100.46 208.25
  Q 99.95 209.33 101.10 209.66
  Q 104.94 210.75 107.76 209.47
  A 0.75 0.75 0.0 0 0 107.80 208.13
  C 105.17 206.72 101.92 204.78 101.99 201.40
  A 1.23 1.20 -17.3 0 1 102.52 200.42
  Q 104.53 199.04 107.28 198.80
  Q 107.69 198.76 107.96 199.09
  Q 108.53 199.80 109.39 199.87
  Q 110.45 199.96 110.24 198.92
  Q 109.61 195.76 108.29 193.14
  A 1.67 1.66 74.6 0 0 106.70 192.23
  Q 105.40 192.30 106.13 193.76
  A 0.59 0.59 0.0 0 1 105.31 194.53
  C 103.64 193.54 102.61 195.31 102.52 196.71
  C 102.39 198.71 101.32 201.68 98.65 200.89
  C 97.02 200.41 96.60 198.83 94.92 198.21
  A 0.81 0.81 0.0 0 1 94.40 197.59
  Z"
/>
<path fill="#fd5862" d="
  M 113.60 195.84
  Q 114.84 200.04 114.77 203.76
  C 114.68 208.15 111.89 211.79 108.28 214.17
  C 103.28 217.48 97.28 215.30 92.50 212.69
  Q 86.66 209.49 87.34 202.78
  Q 88.05 195.79 91.80 191.39
  Q 96.99 189.57 102.25 190.19
  Q 104.10 190.40 102.53 191.40
  C 100.54 192.67 100.73 196.50 100.51 198.51
  Q 100.27 200.76 99.17 198.78
  C 98.11 196.88 95.41 191.11 92.34 194.62
  Q 89.69 197.66 89.90 201.89
  Q 89.92 202.32 89.69 202.68
  Q 88.69 204.22 89.07 205.85
  Q 89.24 206.62 89.95 206.26
  Q 90.86 205.78 90.43 204.88
  Q 89.98 203.97 91.00 203.99
  L 91.39 204.00
  Q 91.96 204.01 92.01 204.58
  Q 92.21 206.87 90.29 207.16
  Q 89.48 207.28 89.74 208.06
  Q 89.92 208.56 90.66 208.75
  A 1.00 1.00 0.0 0 0 91.23 208.72
  Q 94.02 207.70 96.67 205.65
  Q 97.39 205.10 98.21 204.86
  Q 100.35 204.24 99.05 206.06
  Q 97.54 208.16 95.94 210.09
  A 1.94 1.93 -61.0 0 0 96.82 213.17
  Q 99.25 213.97 101.97 213.83
  A 0.31 0.31 0.0 0 0 102.25 213.43
  L 102.16 213.14
  Q 102.07 212.84 101.76 212.77
  L 97.97 211.99
  A 0.67 0.67 0.0 0 1 97.64 210.86
  L 97.87 210.63
  A 1.02 1.02 0.0 0 1 99.10 210.47
  Q 102.13 212.23 104.79 211.39
  Q 105.73 211.09 105.38 212.02
  Q 105.30 212.25 105.40 212.49
  Q 105.64 213.03 106.20 212.82
  C 107.30 212.39 108.63 211.99 109.09 210.76
  C 110.12 208.03 109.00 205.78 106.54 204.56
  Q 105.41 203.99 104.66 203.14
  Q 102.19 200.31 105.90 200.93
  Q 108.78 201.42 110.69 201.21
  C 113.08 200.94 113.74 198.49 112.68 196.60
  Q 112.24 195.81 112.08 194.91
  Q 111.89 193.78 112.62 194.66
  L 113.60 195.84
  Z"
/>
<path fill="#fd5862" d="
  M 94.92 198.21
  C 96.60 198.83 97.02 200.41 98.65 200.89
  C 101.32 201.68 102.39 198.71 102.52 196.71
  C 102.61 195.31 103.64 193.54 105.31 194.53
  A 0.59 0.59 0.0 0 0 106.13 193.76
  Q 105.40 192.30 106.70 192.23
  A 1.67 1.66 74.6 0 1 108.29 193.14
  Q 109.61 195.76 110.24 198.92
  Q 110.45 199.96 109.39 199.87
  Q 108.53 199.80 107.96 199.09
  Q 107.69 198.76 107.28 198.80
  Q 104.53 199.04 102.52 200.42
  A 1.23 1.20 -17.3 0 0 101.99 201.40
  C 101.92 204.78 105.17 206.72 107.80 208.13
  A 0.75 0.75 0.0 0 1 107.76 209.47
  Q 104.94 210.75 101.10 209.66
  Q 99.95 209.33 100.46 208.25
  Q 101.00 207.11 101.16 205.95
  Q 101.56 203.21 98.76 203.52
  Q 96.47 203.77 94.03 204.50
  A 1.29 1.28 83.4 0 1 92.38 203.19
  L 92.57 200.18
  Q 92.61 199.61 93.10 199.30
  L 93.94 198.79
  A 0.37 0.37 0.0 0 0 93.87 198.13
  Q 93.57 198.03 93.39 198.37
  A 0.57 0.55 -76.9 0 1 92.94 198.66
  L 92.21 198.71
  Q 91.86 198.73 91.92 198.39
  Q 92.14 196.92 93.00 195.98
  A 0.53 0.52 50.1 0 1 93.83 196.06
  Q 94.25 196.75 94.40 197.59
  A 0.81 0.81 0.0 0 0 94.92 198.21
  Z"
/>
<path fill="#eecda0" d="
  M 130.73 191.97
  Q 131.13 192.19 131.55 192.84
  Q 131.85 193.30 131.49 193.71
  Q 131.20 194.04 130.80 194.22
  A 1.31 1.31 0.0 0 0 130.05 195.72
  Q 131.29 200.92 136.25 200.99
  C 137.36 201.00 138.80 201.74 138.46 203.08
  Q 138.33 203.57 137.88 203.80
  C 134.92 205.32 129.63 205.60 126.62 203.26
  Q 124.40 201.53 123.55 199.77
  C 122.89 198.40 122.37 194.44 124.81 194.00
  Q 125.11 193.95 125.16 193.65
  Q 125.23 193.25 126.25 193.08
  L 130.73 191.97
  Z"
/>
<path fill="#479842" d="
  M 131.03 209.26
  L 134.18 209.73
  Q 134.28 210.48 135.15 210.99
  Q 135.55 211.23 135.75 211.64
  C 136.51 213.21 135.39 214.79 135.73 216.46
  C 136.02 217.85 136.70 218.91 136.51 220.41
  Q 136.08 223.83 131.76 224.18
  Q 127.81 224.50 125.73 222.48
  Q 122.41 219.27 118.29 214.79
  A 1.67 1.67 0.0 0 1 119.00 212.07
  Q 121.49 211.25 124.26 211.46
  Q 126.32 211.62 131.03 209.26
  Z"
/>
</svg>
